<?xml version="1.0" encoding="UTF-8" standalone="no"?>
<svg
   xmlns:dc="http://purl.org/dc/elements/1.1/"
   xmlns:cc="http://creativecommons.org/ns#"
   xmlns:rdf="http://www.w3.org/1999/02/22-rdf-syntax-ns#"
   xmlns:svg="http://www.w3.org/2000/svg"
   xmlns="http://www.w3.org/2000/svg"
   xmlns:sodipodi="http://sodipodi.sourceforge.net/DTD/sodipodi-0.dtd"
   xmlns:inkscape="http://www.inkscape.org/namespaces/inkscape"
   width="350"
   height="350"
   viewBox="0 0 92.604165 92.604169"
   version="1.1"
   id="svg8"
   inkscape:version="1.0.1 (3bc2e813f5, 2020-09-07)"
   sodipodi:docname="U 0052 Uppercase R.svg">
  <defs
     id="defs2" />
  <sodipodi:namedview
     id="base"
     pagecolor="#ffffff"
     bordercolor="#666666"
     borderopacity="1.0"
     inkscape:pageopacity="0.0"
     inkscape:pageshadow="2"
     inkscape:zoom="1.979899"
     inkscape:cx="156.10882"
     inkscape:cy="135.47458"
     inkscape:document-units="mm"
     inkscape:current-layer="layer1"
     inkscape:document-rotation="0"
     showgrid="false"
     units="px"
     inkscape:window-width="1366"
     inkscape:window-height="705"
     inkscape:window-x="-8"
     inkscape:window-y="-8"
     inkscape:window-maximized="1" />
  <metadata
     id="metadata5">
    <rdf:RDF>
      <cc:Work
         rdf:about="">
        <dc:format>image/svg+xml</dc:format>
        <dc:type
           rdf:resource="http://purl.org/dc/dcmitype/StillImage" />
        <dc:title></dc:title>
      </cc:Work>
    </rdf:RDF>
  </metadata>
  <g
     inkscape:label="Layer 1"
     inkscape:groupmode="layer"
     id="layer1">
    <circle
       id="path885"
       style="fill:#000000;stroke:#000000;stroke-width:0.264583"
       cx="17.372519"
       cy="14.967093"
       r="0.11774057" />
    <path
       style="fill:#000000;stroke:#000000;stroke-width:0.264583px;stroke-linecap:butt;stroke-linejoin:miter;stroke-opacity:1"
       d="M 17.907058,68.420998 H 29.132379 L 28.86511,9.8889724 16.83798,10.156242 Z"
       id="path838" />
    <path
       style="fill:#000000;stroke:#000000;stroke-width:0.264583px;stroke-linecap:butt;stroke-linejoin:miter;stroke-opacity:1"
       d="m 28.86511,9.8889724 c 6.289349,-0.2069995 14.66818,-0.1219568 20.780205,0.7349906 3.781959,2.053426 6.169107,5.501662 7.817633,9.688521 0.355367,2.979857 0.334585,5.884483 -0.200453,8.686259 -2.274767,3.333801 -5.320146,5.931531 -9.020345,5.87993 l -9.621705,1.469981 c 5.255678,1.233845 11.933565,0.948826 14.365739,4.476767 2.571511,1.577952 7.379205,22.856628 8.88671,24.789248 -3.52778,0.443703 -8.114465,2.989181 -9.343311,2.446489 C 49.586201,66.761281 48.386041,50.227573 47.039436,43.965837 46.816399,41.727611 45.16755,41.705682 42.094949,40.892238 38.846517,39.840411 30.869904,40.101152 26.927404,40.090428 l -0.06682,-7.750815 c 5.735961,0.189767 16.669891,-1.260672 22.049737,-3.741775 2.15214,-1.944069 6.781349,-5.673989 2.338608,-8.485806 -0.718163,-1.302974 -2.001852,-2.473006 -6.347651,-2.739513 l -17.706608,0.53454 z"
       id="path840"
       sodipodi:nodetypes="ccccccccsccccccccc" />
  </g>
</svg>
