<?xml version="1.0" encoding="UTF-8" standalone="no"?>
<svg
   xmlns:dc="http://purl.org/dc/elements/1.1/"
   xmlns:cc="http://creativecommons.org/ns#"
   xmlns:rdf="http://www.w3.org/1999/02/22-rdf-syntax-ns#"
   xmlns:svg="http://www.w3.org/2000/svg"
   xmlns="http://www.w3.org/2000/svg"
   xmlns:sodipodi="http://sodipodi.sourceforge.net/DTD/sodipodi-0.dtd"
   xmlns:inkscape="http://www.inkscape.org/namespaces/inkscape"
   width="350"
   height="350"
   viewBox="0 0 92.604165 92.604169"
   version="1.1"
   id="svg8"
   inkscape:version="1.0.1 (3bc2e813f5, 2020-09-07)"
   sodipodi:docname="Stencil U 0042 Uppercase B.svg">
  <defs
     id="defs2" />
  <sodipodi:namedview
     id="base"
     pagecolor="#ffffff"
     bordercolor="#666666"
     borderopacity="1.0"
     inkscape:pageopacity="0.0"
     inkscape:pageshadow="2"
     inkscape:zoom="1.4"
     inkscape:cx="156.10882"
     inkscape:cy="192.11876"
     inkscape:document-units="mm"
     inkscape:current-layer="layer1"
     inkscape:document-rotation="0"
     showgrid="false"
     units="px"
     inkscape:window-width="1366"
     inkscape:window-height="705"
     inkscape:window-x="-8"
     inkscape:window-y="-8"
     inkscape:window-maximized="1" />
  <metadata
     id="metadata5">
    <rdf:RDF>
      <cc:Work
         rdf:about="">
        <dc:format>image/svg+xml</dc:format>
        <dc:type
           rdf:resource="http://purl.org/dc/dcmitype/StillImage" />
        <dc:title></dc:title>
      </cc:Work>
    </rdf:RDF>
  </metadata>
  <g
     inkscape:label="Layer 1"
     inkscape:groupmode="layer"
     id="layer1">
    <circle
       id="path885"
       style="fill:#000000;stroke:#000000;stroke-width:0.264583"
       cx="17.372519"
       cy="14.967093"
       r="0.11774057" />
    <path
       style="fill:#000000;stroke:#000000;stroke-width:0.264583px;stroke-linecap:butt;stroke-linejoin:miter;stroke-opacity:1"
       d="M 17.907058,68.420998 H 29.132379 L 28.86511,9.8889724 16.83798,10.156242 Z"
       id="path838" />
    <path
       style="fill:#000000;stroke:#000000;stroke-width:0.264583px;stroke-linecap:butt;stroke-linejoin:miter;stroke-opacity:1"
       d="m 31.003265,9.8889724 c 6.28935,-0.2069995 12.530025,-0.1219568 18.64205,0.7349906 3.781959,2.053426 6.169107,5.501662 7.817633,9.688521 0.355367,2.979857 0.334585,5.884483 -0.200453,8.686259 -2.274767,3.333801 -5.320146,5.931531 -9.020345,5.87993 l -9.621705,1.469981 c 5.255678,1.233845 11.933565,0.948826 14.365739,4.476767 2.571511,1.577952 2.434719,5.350474 3.942224,7.283094 1.129673,3.992812 0.395697,7.57148 0,11.225321 -0.728034,5.040902 -3.570854,7.403075 -6.949006,9.087162 l -16.437078,0.133635 c -3.767481,0.738427 -2.049065,-6.949007 -1.870885,-10.156242 4.151124,1.338663 12.427637,4.901922 17.439337,1.937704 l 1.603617,-4.009041 C 49.824065,52.65347 55.977525,46.772013 48.308967,44.233107 48.08593,41.99488 45.16755,41.705682 42.094949,40.892238 38.846517,39.840411 35.613938,38.764805 31.671438,38.75408 l 0.534539,-6.949006 c 5.735962,0.189767 11.324501,-0.726133 16.704347,-3.207236 2.15214,-1.944069 6.781349,-5.673989 2.338608,-8.485806 -0.718163,-1.302974 -2.001852,-2.473006 -6.347651,-2.739513 l -13.764382,0.26727 z"
       id="path840"
       sodipodi:nodetypes="ccccccccccccccccccccccc" />
  </g>
</svg>
