<?xml version="1.0" encoding="UTF-8" standalone="no"?>
<svg
   xmlns:dc="http://purl.org/dc/elements/1.1/"
   xmlns:cc="http://creativecommons.org/ns#"
   xmlns:rdf="http://www.w3.org/1999/02/22-rdf-syntax-ns#"
   xmlns:svg="http://www.w3.org/2000/svg"
   xmlns="http://www.w3.org/2000/svg"
   xmlns:sodipodi="http://sodipodi.sourceforge.net/DTD/sodipodi-0.dtd"
   xmlns:inkscape="http://www.inkscape.org/namespaces/inkscape"
   width="350"
   height="350"
   viewBox="0 0 92.604165 92.604169"
   version="1.1"
   id="svg8"
   inkscape:version="1.0.1 (3bc2e813f5, 2020-09-07)"
   sodipodi:docname="U 0038 Digit Eight.svg">
  <defs
     id="defs2" />
  <sodipodi:namedview
     id="base"
     pagecolor="#ffffff"
     bordercolor="#666666"
     borderopacity="1.0"
     inkscape:pageopacity="0.0"
     inkscape:pageshadow="2"
     inkscape:zoom="0.98994949"
     inkscape:cx="309.50916"
     inkscape:cy="110.64312"
     inkscape:document-units="mm"
     inkscape:current-layer="layer1"
     inkscape:document-rotation="0"
     showgrid="false"
     units="px"
     inkscape:window-width="1267"
     inkscape:window-height="728"
     inkscape:window-x="78"
     inkscape:window-y="0"
     inkscape:window-maximized="0" />
  <metadata
     id="metadata5">
    <rdf:RDF>
      <cc:Work
         rdf:about="">
        <dc:format>image/svg+xml</dc:format>
        <dc:type
           rdf:resource="http://purl.org/dc/dcmitype/StillImage" />
        <dc:title></dc:title>
      </cc:Work>
    </rdf:RDF>
  </metadata>
  <g
     inkscape:label="Layer 1"
     inkscape:groupmode="layer"
     id="layer1">
    <circle
       id="path885"
       style="fill:#000000;stroke:#000000;stroke-width:0.264583"
       cx="17.372519"
       cy="14.967093"
       r="0.11774057" />
    <path
       style="fill:#000000;stroke:#000000;stroke-width:0.264583;stroke-linejoin:round"
       id="path897"
       d="m 49.013041,42.539597 c -2.757898,0.221567 -5.450171,-0.474509 -8.101359,-1.137902 -3.285485,-0.943435 -6.609887,-1.889596 -9.684443,-3.414199 -0.493769,-0.244848 -0.968844,-0.525709 -1.453267,-0.788561 -1.626724,-0.961891 -3.087489,-2.15382 -3.869611,-3.903626 -0.325027,-0.823378 -0.333265,-1.684282 -0.323896,-2.554219 0.02933,-0.748635 0.01114,-1.539237 0.236536,-2.263476 0.109072,-0.350467 0.258006,-0.581194 0.433887,-0.897334 0.553795,-0.756901 1.291348,-1.342304 1.791696,-2.140487 0.05754,-0.0918 0.568915,-1.037354 0.640334,-1.168959 0.453768,-0.764845 0.845561,-1.677979 1.631439,-2.170461 0.17821,-0.111676 0.376381,-0.187775 0.564568,-0.281663 2.084147,-1.026718 4.321252,-1.706844 6.572144,-2.256842 1.936486,-0.605088 4.01388,-0.770017 5.876907,-1.598035 0.152902,-0.05951 0.310488,-0.108165 0.45871,-0.178523 0.875454,-0.415559 -0.02915,-0.07931 0.85475,-0.434408 0.409318,-0.164438 0.818126,-0.309224 1.221602,-0.490431 2.18697,-0.890179 4.551157,-1.085355 6.880143,-1.279598 -13.720082,0.295689 -10.847032,-0.425338 -6.723557,0.645761 0.740111,0.192248 1.467279,0.434097 2.187197,0.691855 2.048788,0.733544 3.953682,1.702704 5.851075,2.754912 1.581668,0.841573 2.832457,2.105819 4.162983,3.269286 0.497351,0.448741 1.105575,0.766692 1.560338,1.26643 0.496776,0.545906 0.803018,1.135653 1.181309,1.766174 0.809945,1.660705 1.414351,3.537344 1.11465,5.399519 -0.644988,1.568839 -1.474888,3.073977 -2.60889,4.347062 -0.319029,0.358156 -0.678854,0.677772 -1.018283,1.016661 -1.668092,1.484114 -3.651274,2.459958 -5.758151,3.152706 -0.946211,0.311116 -1.912276,0.558287 -2.866416,0.844151 -1.388277,0.418946 -2.672853,1.112411 -4.069411,1.505992 -0.74757,0.210685 -1.109498,0.255903 -1.868985,0.390806 -1.673214,0.18071 -3.35417,0.30476 -5.034817,0.401849 -1.11411,0.0587 -2.229879,0.06897 -3.34527,0.06499 -1.06163,0.02281 -2.111586,0.203631 -3.158934,0.364384 -0.403527,0.142761 -0.839248,0.117739 -1.250088,0.218495 -0.299709,0.0735 -0.586041,0.193855 -0.881745,0.282107 -1.433965,0.427964 -2.882172,0.809858 -4.318793,1.229307 -1.892735,0.476523 -3.7172,1.282166 -5.2339,2.529769 -0.736306,0.605668 -0.975579,0.94153 -1.585106,1.648486 -0.627477,0.762315 -1.126548,1.615078 -1.643139,2.452762 -0.137215,0.222501 -0.254088,0.458959 -0.411964,0.667311 -0.215916,0.284948 -0.656568,0.64993 -0.922054,0.883986 -0.289608,0.233532 -0.996365,0.794176 -1.226425,1.024927 -0.26817,0.268975 -0.491111,0.580154 -0.753709,0.854572 -0.266506,0.278503 -0.58379,0.508183 -0.832311,0.802847 -0.517493,0.613576 -0.897306,1.366451 -1.286615,2.060389 -0.528282,1.233528 -1.02677,2.511608 -1.131573,3.863451 -0.02979,0.384236 0.0056,0.855734 0.02577,1.244069 0.09096,0.554378 0.138498,1.140909 0.383875,1.657006 0.452214,0.951126 1.155226,1.76459 1.824361,2.562635 1.110609,1.182592 2.279262,2.343136 3.072771,3.771942 0.285311,0.743863 0.599869,1.445953 1.051234,2.106303 0.921411,1.007218 1.855011,2.001512 2.833418,2.953559 0.148438,0.12541 0.287149,0.263335 0.445313,0.376233 0.569872,0.406775 1.175501,0.760994 1.765841,1.137449 0.704001,0.448937 1.5511,0.996764 2.29965,1.36109 0.482138,0.234662 0.985956,0.421884 1.478933,0.632823 2.17362,0.771588 4.406952,1.356156 6.632214,1.956509 1.542682,0.354208 2.990363,1.020077 4.504931,1.460431 0.42001,0.122116 0.847187,0.218072 1.27078,0.32711 2.005997,0.529979 4.037912,0.915106 6.08684,1.229796 1.49076,0.17099 2.993745,0.294958 4.495594,0.295341 13.175278,0.0034 8.741256,0.502444 14.146175,-0.160991 1.389893,-0.250997 2.80285,-0.45004 4.160562,-0.851328 0.644922,-0.190611 1.279541,-0.414732 1.922862,-0.61068 0.284938,-0.07837 0.568018,-0.16384 0.854816,-0.235106 0.254773,-0.06331 0.515292,-0.10228 0.769334,-0.168465 1.318901,-0.343609 2.596005,-0.858465 3.861795,-1.35473 2.106758,-0.950744 4.298696,-1.852393 6.155955,-3.25813 0.30717,-0.232492 0.589909,-0.495607 0.884864,-0.743413 0.248267,-0.271198 0.532125,-0.513672 0.7448,-0.813596 0.370982,-0.523179 0.882623,-1.689375 1.142957,-2.256274 0.169275,-0.368607 0.353682,-0.730861 0.503502,-1.107792 0.280755,-0.70634 0.492276,-1.438272 0.741117,-2.156476 0.527542,-1.376664 0.970065,-2.780432 1.056412,-4.257159 -0.234206,-0.938167 -0.363643,-1.890898 -0.650235,-2.816839 -0.135445,-0.437607 -0.320471,-0.859308 -0.446375,-1.29976 -0.0682,-0.238585 -0.550749,-2.43082 -0.60638,-2.681589 -0.341398,-1.263227 -0.489474,-2.659118 -1.206879,-3.791823 -0.380796,-0.601234 -0.656455,-0.767583 -1.195221,-1.234972 -0.336319,-0.226322 -0.663852,-0.466283 -1.008959,-0.678963 -0.822698,-0.507008 -2.62369,-1.486755 -3.386841,-1.902836 -2.113651,-1.152387 -4.24433,-2.27272 -6.366346,-3.40954 -2.135492,-1.188823 -4.286099,-2.297244 -6.559296,-3.192997 -1.873419,-0.69315 -3.69983,-1.501613 -5.537909,-2.280774 -1.338506,-0.528945 -2.732723,-0.847677 -4.128535,-1.170935 -1.051594,-0.274412 -2.091348,-0.564586 -3.168335,-0.723095 -0.87572,-0.122407 -1.760445,-0.133673 -2.642864,-0.145029 -4.943007,0.01722 -9.885966,0.0059 -14.828928,-0.007 -0.269041,0.04533 -0.570404,-0.05869 -0.837006,-0.0016 -0.176006,0.03774 -0.332272,0.139089 -0.502021,0.19898 0,0 12.98149,1.795881 12.98149,1.795881 v 0 c 0.406501,-0.01098 0.816494,0.09885 1.230646,0.04231 4.577617,-0.0358 10.718109,-0.12869 -10.761755,-0.01701 0.904722,-0.0076 1.809941,-0.01762 2.71439,0.0105 1.124802,0.05456 2.238465,0.183679 3.312617,0.544282 0.416373,0.09022 0.822892,0.223067 1.240095,0.309361 0.220657,0.04564 0.447233,0.05614 0.669718,0.09182 0.836472,0.134123 1.664602,0.3209 2.473505,0.573691 1.911345,0.598739 3.722187,1.448977 5.557385,2.244849 2.668902,1.063593 5.509405,1.646724 8.106288,2.908652 1.749978,0.837893 2.521342,1.155988 4.187177,2.158865 1.76103,1.060188 3.345815,2.354527 4.882602,3.71139 0.531961,0.463362 1.155264,0.882155 1.582468,1.452356 0.622805,0.831278 1.032822,1.816814 1.369962,2.788941 0.256672,1.014899 0.437737,1.606619 0.573648,2.652009 0.05559,0.427569 0.05746,0.86053 0.09819,1.289772 0.07882,0.830649 0.275587,1.662462 0.136498,2.499127 -0.09477,1.33177 -0.150973,2.670871 -0.481774,3.972277 -0.385265,1.398839 -0.784654,2.883601 -1.638684,4.082806 -0.397356,0.557959 -0.958485,1.078196 -1.444437,1.559904 -1.959096,1.640232 -4.207639,2.8384 -6.6514,3.600001 -0.458311,0.136554 -0.91305,0.285731 -1.374936,0.409665 -1.534552,0.411747 -3.120388,0.649917 -4.599189,1.255641 -1.893001,0.612835 -3.854431,1.022627 -5.834284,1.225602 -4.802931,0.221496 -1.044808,0.03003 9.702392,0.06937 0.376282,0.0013 -0.752435,0.02291 -1.128699,0.01884 -0.52224,-0.0056 -1.616271,-0.06792 -2.148176,-0.107545 -0.320776,-0.02389 -0.64085,-0.05639 -0.961276,-0.08458 -2.134762,-0.252701 -4.261528,-0.566544 -6.359247,-1.043892 -0.995244,-0.264938 -1.983624,-0.544444 -2.947588,-0.911003 -0.548273,-0.208489 -1.077733,-0.464232 -1.625354,-0.67442 -0.251312,-0.09646 -0.507394,-0.180001 -0.761093,-0.270005 -2.452237,-0.58698 -4.981564,-0.852786 -7.375596,-1.677651 -1.229011,-0.515498 -2.183934,-0.950058 -3.2443,-1.770922 -0.979096,-0.757952 -0.429958,-0.393362 -1.212855,-1.114264 -0.132117,-0.121655 -0.278479,-0.226864 -0.417716,-0.340297 -0.983314,-0.791262 -2.054987,-1.526325 -2.752421,-2.60092 -0.191368,-0.332568 -0.310459,-0.662265 -0.474572,-1.004527 -0.182103,-0.379775 -0.475515,-0.710177 -0.597586,-1.122022 -1.078584,-1.445175 -2.567314,-2.489038 -3.754204,-3.838535 -0.19587,-0.262305 -0.413659,-0.509593 -0.58761,-0.786921 -0.531083,-0.846704 -0.782154,-1.835086 -0.942121,-2.809092 -0.140115,-0.527261 -0.308179,-1.100804 -0.314737,-1.650473 -0.01117,-0.935898 0.328834,-1.803615 0.728049,-2.632901 0.17919,-0.298828 0.333568,-0.61401 0.537569,-0.896482 1.076239,-1.490223 2.65993,-2.401462 4.063322,-3.531695 0.374547,-0.476208 0.558438,-0.670791 0.854641,-1.219595 0.111647,-0.206851 0.185791,-0.431977 0.287044,-0.644109 0.381281,-0.798812 0.853472,-1.538399 1.428557,-2.213745 0.507013,-0.571468 0.760169,-0.903383 1.360951,-1.389073 1.361273,-1.100498 3.013257,-1.702372 4.677412,-2.175981 1.457886,-0.38404 1.787459,-0.496425 3.279389,-0.784982 1.663906,-0.321821 1.401056,-0.235696 2.956488,-0.428792 0.251399,-0.03121 0.501735,-0.07045 0.752602,-0.105682 0.232818,-0.02768 0.465638,-0.05536 0.698455,-0.08304 1.080418,-0.143134 2.169613,-0.21404 3.259791,-0.18356 0.989754,-0.0325 1.977015,-0.09754 2.962392,-0.198297 1.640411,-0.14346 3.294483,-0.211937 4.900244,-0.608772 1.931112,-0.533818 3.697166,-1.308317 5.540984,-2.079871 2.991273,-1.175015 6.020339,-2.389063 8.446828,-4.565253 0.957903,-0.992685 1.204865,-1.204137 2.068377,-2.274716 0.290145,-0.359722 0.554572,-0.73947 0.835525,-1.106418 0.38354,-0.500941 1.113372,-1.368886 1.412132,-1.96492 0.143285,-0.285859 0.209076,-0.604378 0.313613,-0.906566 -0.02421,-0.245848 -0.0305,-0.494131 -0.07265,-0.737547 -0.311472,-1.798881 -1.10649,-3.483814 -1.615088,-5.226186 -0.254061,-0.659771 -0.51054,-1.318609 -0.763735,-1.978712 -0.337868,-0.880848 -0.47901,-1.217839 -1.294583,-1.714948 -1.93013,-1.176108 -3.901183,-2.286747 -5.942134,-3.262109 -2.030169,-0.988488 -4.03805,-2.034578 -6.133044,-2.88268 -0.601485,-0.243495 -3.548552,-1.367318 -4.248962,-1.408045 -4.377757,-0.254558 -8.768358,-0.184624 -13.152536,-0.276935 -2.817135,0.283831 -5.682337,0.546527 -8.378653,1.459235 -0.836504,0.33686 -1.632526,0.75478 -2.456624,1.119021 -1.584605,0.654223 -3.24181,1.099738 -4.897508,1.534504 -2.475707,0.698428 -4.994624,1.376405 -7.300837,2.535704 -0.245359,0.174937 -0.507783,0.328124 -0.736076,0.524811 -0.796711,0.686411 -1.225038,1.692426 -1.715814,2.593487 -0.188993,0.395501 -0.273655,0.610282 -0.521864,0.976256 -0.569461,0.839648 -1.331639,1.528902 -1.912403,2.359988 -0.09133,0.208721 -0.203579,0.409493 -0.273996,0.626165 -0.06233,0.191783 -0.08355,0.394584 -0.122072,0.592529 -0.16186,0.831773 -0.29643,1.662293 -0.373401,2.506387 -0.0048,1.104694 -0.127083,2.224702 0.437658,3.214955 1.278233,1.952747 3.17723,3.426389 5.239011,4.483457 0.548696,0.28275 1.08701,0.586621 1.646086,0.848249 3.124069,1.461945 6.452013,2.445626 9.704364,3.568359 2.051013,0.65496 4.097427,1.470501 6.243518,1.743691 0,0 12.947415,-2.050671 12.947415,-2.050671 z" />
  </g>
</svg>
