<?xml version="1.0" encoding="UTF-8" standalone="no"?>
<svg
   xmlns:dc="http://purl.org/dc/elements/1.1/"
   xmlns:cc="http://creativecommons.org/ns#"
   xmlns:rdf="http://www.w3.org/1999/02/22-rdf-syntax-ns#"
   xmlns:svg="http://www.w3.org/2000/svg"
   xmlns="http://www.w3.org/2000/svg"
   xmlns:sodipodi="http://sodipodi.sourceforge.net/DTD/sodipodi-0.dtd"
   xmlns:inkscape="http://www.inkscape.org/namespaces/inkscape"
   width="350"
   height="350"
   viewBox="0 0 92.604165 92.604169"
   version="1.1"
   id="svg8"
   inkscape:version="1.0.1 (3bc2e813f5, 2020-09-07)"
   sodipodi:docname="U 0041 Uppercase A.svg">
  <defs
     id="defs2" />
  <sodipodi:namedview
     id="base"
     pagecolor="#ffffff"
     bordercolor="#666666"
     borderopacity="1.0"
     inkscape:pageopacity="0.0"
     inkscape:pageshadow="2"
     inkscape:zoom="0.98994949"
     inkscape:cx="309.50916"
     inkscape:cy="110.64312"
     inkscape:document-units="mm"
     inkscape:current-layer="layer1"
     inkscape:document-rotation="0"
     showgrid="false"
     units="px"
     inkscape:window-width="1267"
     inkscape:window-height="728"
     inkscape:window-x="78"
     inkscape:window-y="0"
     inkscape:window-maximized="0" />
  <metadata
     id="metadata5">
    <rdf:RDF>
      <cc:Work
         rdf:about="">
        <dc:format>image/svg+xml</dc:format>
        <dc:type
           rdf:resource="http://purl.org/dc/dcmitype/StillImage" />
        <dc:title></dc:title>
      </cc:Work>
    </rdf:RDF>
  </metadata>
  <g
     inkscape:label="Layer 1"
     inkscape:groupmode="layer"
     id="layer1">
    <circle
       id="path885"
       style="fill:#000000;stroke:#000000;stroke-width:0.264583"
       cx="17.372519"
       cy="14.967093"
       r="0.11774057" />
    <path
       style="fill:#000000;stroke:#000000;stroke-width:0.264583;stroke-linejoin:round"
       id="path1466"
       d="m 38.2393,14.237215 c -0.03003,0.104259 -0.06005,0.208517 -0.09008,0.312776 -0.05638,0.222907 -0.105722,0.447717 -0.169156,0.668723 -0.626911,2.184194 -0.02973,-0.213406 -0.77997,2.811032 -0.23236,0.936717 -0.420156,1.884838 -0.679307,2.814499 -0.348293,1.249441 -0.761461,2.479883 -1.142193,3.719824 -0.565082,1.43233 -1.079574,2.885666 -1.695241,4.296993 -1.196713,2.743277 -3.022648,6.242111 -4.410038,8.891992 -1.477701,2.822371 -2.538984,4.829617 -4.135421,7.540043 -0.57538,0.976879 -1.18666,1.932162 -1.779989,2.898243 -0.528086,0.838943 -1.06687,1.671246 -1.584258,2.51683 -0.495639,0.810036 -0.997996,1.616925 -1.454564,2.449608 -2.12905,3.882932 -3.75734,8.0386 -5.422956,12.132559 -0.49102,1.007787 -0.965326,2.023893 -1.47306,3.023367 -0.441362,0.86882 -0.922501,1.716902 -1.373774,2.580616 -1.233174,2.360234 -2.4506285,4.722519 -3.7553082,7.044579 -0.7670573,1.213035 -1.7348729,2.26854 -2.4589285,3.50888 -0.2877794,0.466418 -0.1523188,0.230974 -0.4070959,0.705924 0,0 12.9279426,0.600695 12.9279426,0.600695 v 0 c 0.198998,-0.432433 0.09335,-0.206907 0.31785,-0.676154 0.568794,-1.187767 1.121337,-2.375876 1.381435,-3.681841 0.617459,-2.393635 1.39315,-4.739706 2.145906,-7.09363 0.27713,-0.866608 0.532321,-1.740492 0.829718,-2.600356 0.352145,-1.018154 0.745621,-2.021539 1.118431,-3.032308 0.937278,-2.023856 2.017879,-4.423214 3.054541,-6.406258 1.436864,-2.7486 1.688732,-2.956775 3.219383,-5.574012 0.48046,-0.821528 0.977586,-1.634889 1.40964,-2.482873 0.427513,-0.839071 0.77761,-1.715387 1.166413,-2.573079 0.369535,-0.983752 0.74658,-1.964719 1.108601,-2.95126 1.121204,-3.055369 1.540494,-4.507209 2.914166,-7.569049 2.042422,-4.552445 4.546129,-8.879731 7.080451,-13.169767 0.762688,-1.220568 1.491903,-2.462704 2.288066,-3.661706 1.262878,-1.901862 1.967304,-2.748412 3.290171,-4.407359 0.26276,-0.329515 0.515995,-0.667034 0.791522,-0.985951 0.28367,-0.328343 0.611838,-0.616073 0.899244,-0.941202 0,0 -13.132138,-0.710378 -13.132138,-0.710378 z" />
    <path
       style="fill:#000000;stroke:#000000;stroke-width:0.264583;stroke-linejoin:round"
       id="path1468"
       d="m 37.508688,17.2651 c 0.595569,1.909461 1.749586,3.592383 2.706081,5.325325 0.557038,1.009216 1.072605,2.040772 1.608908,3.061158 2.472287,4.58106 4.471746,9.403925 6.055169,14.359962 0.528362,1.653749 0.809329,2.734149 1.254837,4.358675 1.643075,3.928493 4.079695,7.459898 5.838293,11.334929 1.180536,2.601281 1.590585,4.109837 2.446022,6.762703 0.673444,2.346094 1.201143,4.747228 2.431225,6.885469 0.655217,1.138954 2.27883,3.309323 3.009085,4.354663 0.485394,0.694825 0.954093,1.401164 1.431136,2.101744 1.233538,1.787194 2.163972,3.775348 3.436964,5.536806 0.02027,0.02805 1.476904,1.859259 1.516116,1.908569 0.661945,0.847505 1.221946,1.762059 1.762895,2.688701 0,0 12.183887,-0.709208 12.183887,-0.709208 v 0 c -0.6747,-0.923996 -1.313569,-1.871525 -1.99119,-2.79347 -0.65876,-0.802156 -0.901875,-1.116862 -1.599026,-1.890332 -1.622512,-1.800132 -3.388026,-3.472561 -4.878842,-5.390573 -0.516938,-0.68621 -1.066639,-1.348923 -1.550813,-2.05863 -0.940284,-1.378278 -1.698979,-2.831317 -2.526503,-4.27517 -1.276763,-2.22768 -2.610906,-4.424264 -3.756719,-6.724782 -1.34203,-2.7267 -1.96874,-3.848206 -3.074101,-6.751613 C 63.099351,53.477842 62.187301,50.497197 61.61026,48.521484 61.360761,47.667227 61.165938,46.796883 60.893631,45.949621 60.67028,45.254677 60.381004,44.582675 60.124688,43.8992 56.418127,38.128363 52.878336,32.121001 51.47551,25.321363 50.754766,21.470112 50.986996,23.318447 50.727011,20.022322 50.655349,19.113769 50.52932,18.172938 50.690255,17.2651 c 0,0 -13.181567,0 -13.181567,0 z" />
    <path
       style="fill:#000000;stroke:#000000;stroke-width:0.264583;stroke-linejoin:round"
       id="path1474"
       d="m 61.419752,55.566745 c -0.228645,0.01992 -0.455414,-0.03171 -0.683395,-0.02877 -0.273748,0.0035 -0.546346,0.04773 -0.820102,0.04468 -0.29183,-0.0033 -0.58202,-0.0443 -0.873231,-0.06358 -1.162092,-0.07694 -0.788771,-0.05543 -2.013799,-0.06732 -1.187024,0.06416 -2.378991,0.03819 -3.557657,-0.124264 -0.643956,-0.08875 -1.272183,-0.274968 -1.916705,-0.359513 -0.344845,-0.04524 -0.693838,-0.04945 -1.040754,-0.07418 -2.824986,0.05168 -5.639337,0.396944 -8.464095,0.453363 -0.546648,0.01093 -1.093459,-0.01069 -1.640189,-0.01606 -4.521991,-0.03237 1.52527,-0.009 -2.900151,0.03747 -1.451946,0.01527 -1.273969,-0.129045 -2.77904,0.193202 -0.641477,0.137345 -1.267222,0.339949 -1.900833,0.509923 -0.688324,0.130503 -1.376648,0.261006 -2.064973,0.391509 -1.687094,0.254717 -3.392521,0.32665 -5.092668,0.185378 -1.852176,-0.153908 -0.422804,-0.09416 -2.072224,-0.288274 -0.307769,-0.03622 -0.618112,-0.04556 -0.927166,-0.06834 -0.817587,-0.03743 -1.626286,-0.162864 -2.434231,-0.284652 0,0 -0.07615,12.557016 -0.07615,12.557016 v 0 c 0.813102,-0.02408 1.627294,-0.04662 2.439535,0.01926 0.317704,0.01339 0.635196,0.04673 0.953114,0.04016 2.493513,-0.05153 4.890389,-0.927965 7.360312,-1.170437 0.688456,-0.05923 1.375074,-0.146518 2.065372,-0.177691 0.618844,-0.02795 1.239038,0.01093 1.858428,5.29e-4 1.70285,-0.02866 1.082066,-0.05262 2.726311,-0.179486 2.61774,-0.201972 0.261154,0.05448 2.911128,-0.267041 3.284998,-0.415189 6.644074,-0.563327 9.885397,0.244822 0.340082,0.06152 0.677749,0.138345 1.020247,0.184555 1.841182,0.248414 3.724026,0.04009 5.55847,0.362659 0.899758,0.124661 1.891458,0.17989 2.763816,0.452281 0.509193,0.158993 0.962184,0.469728 1.455126,0.668218 0,0 0.260112,-13.175397 0.260112,-13.175397 z" />
  </g>
</svg>
