<?xml version="1.0" encoding="UTF-8" standalone="no"?>
<svg
   xmlns:dc="http://purl.org/dc/elements/1.1/"
   xmlns:cc="http://creativecommons.org/ns#"
   xmlns:rdf="http://www.w3.org/1999/02/22-rdf-syntax-ns#"
   xmlns:svg="http://www.w3.org/2000/svg"
   xmlns="http://www.w3.org/2000/svg"
   xmlns:sodipodi="http://sodipodi.sourceforge.net/DTD/sodipodi-0.dtd"
   xmlns:inkscape="http://www.inkscape.org/namespaces/inkscape"
   width="350"
   height="350"
   viewBox="0 0 92.604165 92.604169"
   version="1.1"
   id="svg8"
   inkscape:version="1.0.1 (3bc2e813f5, 2020-09-07)"
   sodipodi:docname="U 0036 Digit Six.svg">
  <defs
     id="defs2" />
  <sodipodi:namedview
     id="base"
     pagecolor="#ffffff"
     bordercolor="#666666"
     borderopacity="1.0"
     inkscape:pageopacity="0.0"
     inkscape:pageshadow="2"
     inkscape:zoom="0.98994949"
     inkscape:cx="309.50916"
     inkscape:cy="110.64312"
     inkscape:document-units="mm"
     inkscape:current-layer="layer1"
     inkscape:document-rotation="0"
     showgrid="false"
     units="px"
     inkscape:window-width="1267"
     inkscape:window-height="728"
     inkscape:window-x="78"
     inkscape:window-y="0"
     inkscape:window-maximized="0" />
  <metadata
     id="metadata5">
    <rdf:RDF>
      <cc:Work
         rdf:about="">
        <dc:format>image/svg+xml</dc:format>
        <dc:type
           rdf:resource="http://purl.org/dc/dcmitype/StillImage" />
        <dc:title></dc:title>
      </cc:Work>
    </rdf:RDF>
  </metadata>
  <g
     inkscape:label="Layer 1"
     inkscape:groupmode="layer"
     id="layer1">
    <path
       style="fill:#000000;stroke:#000000;stroke-width:0.264583;stroke-linejoin:round"
       id="path883"
       d="M 80.38345,8.056138 C 79.933013,8.075016 79.05829,8.113355 78.696028,8.11786 74.157678,8.174295 69.61865,8.180994 65.08071,8.2642471 c -0.789543,0.014486 -1.576057,0.1022668 -2.364481,0.1467787 -1.977972,0.1116705 -3.956724,0.2091827 -5.934794,0.3191618 -3.104253,0.3817522 -6.241603,0.7962985 -9.266444,1.6240824 -1.415164,0.387277 -4.342233,1.444327 -5.680625,2.036483 -0.956564,0.423221 -1.874401,0.929054 -2.8116,1.393581 -4.096496,2.161077 -8.032271,4.62446 -12.170259,6.707038 -1.434945,0.646569 -2.828337,1.449796 -3.948109,2.575753 -0.98831,0.993767 -1.546678,1.889821 -2.370182,3.043856 -1.320596,1.738253 -2.632482,3.483307 -3.932682,5.236889 -0.410656,0.553852 -1.289386,1.714741 -1.662786,2.363745 -0.185584,0.322562 -0.322447,0.670804 -0.48367,1.006208 -0.680208,1.567508 -0.477862,3.27274 -0.480293,4.931219 -0.0015,0.994143 -0.04367,1.987812 -0.06184,2.981788 -0.05537,1.4262 -0.204525,2.879268 -0.604013,4.256762 -0.195474,0.674024 -0.333103,0.924711 -0.61621,1.558629 -0.346579,1.407536 -0.499362,2.852267 -0.764478,4.275071 -0.103404,0.554945 -0.240351,1.103236 -0.346348,1.657692 -0.236932,1.239345 -0.304326,1.796166 -0.481481,3.019695 -0.02869,0.209737 -0.258907,1.898753 -0.303046,2.199327 -0.03998,0.27228 -0.109164,0.541094 -0.127613,0.815674 -0.01897,0.282381 0.01078,0.565938 0.01577,0.848913 0.0047,0.267374 -0.04145,0.540393 0.01335,0.802132 0.0841,0.401698 0.265654,0.776634 0.398481,1.164949 0.830179,2.419271 1.735392,4.81511 2.481506,7.262509 0.413504,1.342212 0.635902,2.731992 1.056978,4.069696 0.390402,1.2568 0.932654,2.452362 1.721537,3.507486 0.544206,0.654934 1.270174,1.105212 1.951684,1.598742 1.209814,0.876115 0.214314,0.227962 1.793106,1.180301 2.280983,1.304512 4.738158,2.263907 7.295584,2.850912 2.228152,0.395174 4.471768,0.70571 6.711101,1.033386 1.768993,0.267345 3.556717,0.352292 5.342355,0.415541 5.449845,0.152612 10.904593,0.08013 16.35637,0.0223 2.109015,-0.02566 4.216979,-0.03984 6.319157,-0.224533 1.616604,-0.156623 3.180768,-0.534212 4.70889,-1.072113 0.791038,-0.246255 1.460013,-0.767223 2.253856,-0.998051 0.416814,-0.1212 0.843201,-0.206999 1.262166,-0.32054 2.086083,-0.849505 4.20997,-1.698262 6.020149,-3.072579 0.344355,-0.26144 0.650592,-0.569616 0.975886,-0.854425 1.563233,-1.546108 2.590739,-3.526668 3.416755,-5.542089 0.371623,-1.142333 0.668121,-2.30455 1.039225,-3.447463 0.165413,-0.556381 0.421548,-1.07129 0.471557,-1.656696 0.05474,-0.640755 0.0027,-0.903385 -0.04868,-1.581936 -0.103909,-2.187308 0.108961,-4.362042 0.318225,-6.534896 0.0931,-1.151482 0.05123,-1.999977 -0.575326,-2.975681 -0.146071,-0.228833 -0.378761,-0.38072 -0.5453,-0.590638 -0.101854,-0.128386 -0.175025,-0.277153 -0.265692,-0.413668 -0.533779,-0.803706 -1.036463,-1.595657 -1.506707,-2.440032 -1.059842,-1.891035 -1.952898,-3.874275 -2.565707,-5.954739 -0.130506,-0.81816 -0.190908,-1.664682 -0.853961,-2.259595 -0.211106,-0.189409 -0.462513,-0.328406 -0.69377,-0.492606 -2.267055,-1.103106 -4.615378,-2.033511 -7.01979,-2.789603 -1.145696,-0.360526 -2.311582,-0.635082 -3.510618,-0.715248 -5.530194,-0.109738 -11.063782,-0.01849 -16.595349,0.01122 -1.80516,0.05802 -3.612894,-0.03754 -5.415685,0.07207 -1.441558,0.117379 -2.858685,0.39162 -4.287451,0.597125 -0.841089,0.0984 -1.689645,0.06927 -2.528903,0.188555 -0.753383,0.107085 -1.500267,0.255804 -2.25111,0.379457 -2.797757,0.456555 -5.511924,1.260716 -8.150304,2.282219 -1.400279,0.662599 -2.909053,1.000078 -4.376334,1.466345 -1.214691,0.456981 -2.297339,1.17049 -3.45429,1.741744 -0.174644,0.10867 -0.353924,0.210217 -0.523931,0.326004 -0.172834,0.11771 -0.32907,0.258919 -0.50373,0.373904 -0.452114,0.297638 -0.564044,0.284308 -1.007348,0.590873 -0.202544,0.140067 -0.678027,0.550084 -0.871084,0.713515 -0.692778,0.480711 -1.286039,1.089684 -1.899334,1.66589 -0.746086,0.742032 -1.35792,1.613348 -1.920005,2.499829 -0.412914,0.711919 -0.538369,1.539308 -0.616155,2.347084 0.0248,0.504918 -0.14474,0.97006 -0.219264,1.462646 -0.01318,0.76499 0.02735,1.527611 0.0016,2.292916 -0.03107,0.655894 -0.05788,1.311889 -0.07161,1.968384 -0.0094,0.540369 -0.0096,1.080841 -0.0099,1.621274 -10e-7,0.08871 -10e-7,0.177413 -10e-7,0.266123 0,0 13.060549,-2.65e-4 13.060549,-2.65e-4 v 0 c -4.2e-5,-0.08876 -8.4e-5,-0.177514 -1.26e-4,-0.266271 -7.14e-4,-0.540726 -0.0016,-1.081492 -0.01236,-1.622131 -0.01495,-0.650817 -0.04353,-1.301118 -0.06303,-1.951795 -0.0074,-0.703246 0.02055,-1.408324 0.192197,-2.094198 0.09449,-0.523732 0.156688,-1.04513 0.131218,-1.579287 0.03012,-0.613246 0.117933,-1.200047 0.447784,-1.733651 0.496549,-0.831924 1.100614,-1.55879 1.890544,-2.133023 0.614269,-0.527545 1.219919,-1.061635 1.819335,-1.606481 0.870292,-0.667626 1.81464,-1.245039 2.772125,-1.777881 1.095745,-0.640736 2.254911,-1.169149 3.480551,-1.511292 1.3051,-0.434869 2.524646,-1.058661 3.775646,-1.625658 2.489772,-1.050288 5.093351,-1.772529 7.793302,-2.021144 0.499134,-0.04873 0.997482,-0.106331 1.497404,-0.146196 1.418212,-0.113088 2.853053,-0.05951 4.255268,-0.333592 1.269336,-0.253063 2.554089,-0.442508 3.84897,-0.493974 1.853621,-0.02164 3.70744,-0.02622 5.561132,-0.0092 0.507037,-0.0016 1.014071,-0.0036 1.521108,-0.0051 0.246742,-7.94e-4 0.986975,-0.0021 0.74023,-0.0019 -20.2237,0.01532 -14.880717,0.02903 -10.64518,0.0062 1.387626,-0.01011 2.772841,0.06366 4.136448,0.345871 2.28064,0.480608 4.517996,1.15202 6.509531,2.402221 0.200525,0.138404 0.770421,0.448411 0.915874,0.678159 0.238582,0.376857 0.38799,1.007832 0.620855,1.384011 1.098828,1.935954 2.37494,3.794483 3.020986,5.950062 0.349647,1.022402 0.636593,2.057638 1.043554,3.057228 0.06363,0.156282 0.100867,0.323443 0.175201,0.474922 0.04888,0.09962 0.127654,0.181533 0.191482,0.272301 0.702045,0.698979 1.06513,1.025742 1.192847,2.110685 0.23344,2.146884 0.09625,4.310652 -0.330718,6.427723 -0.268047,1.027182 -0.627036,2.017726 -0.933723,3.032139 -0.185933,1.108689 -0.254322,2.234369 -0.526277,3.327175 -0.599324,1.940054 -1.509599,3.534142 -2.996023,4.945112 -0.279669,0.239115 -0.545562,0.495353 -0.839007,0.717347 -1.88601,1.426792 -4.178704,2.171491 -6.478116,2.599351 -0.325279,0.07629 -0.655402,0.134279 -0.975836,0.228878 -0.951878,0.281022 -1.774267,0.909158 -2.743944,1.149744 -1.40245,0.413197 -2.840151,0.69237 -4.296502,0.831884 -2.194536,0.138134 -4.390652,0.146569 -6.588715,0.09035 -4.393391,-0.0284 -10.444882,-0.0068 10.303602,-0.0093 0.2041,-2.4e-5 -0.408199,-0.0028 -0.612296,-0.0016 -0.466968,0.0026 -0.933826,0.01775 -1.40086,0.01357 -1.88954,-0.0055 -3.781182,-0.03953 -5.662546,-0.232151 -2.260891,-0.249457 -4.496634,-0.66798 -6.755482,-0.93662 -2.50399,-0.447696 -5.061897,-0.944134 -7.209211,-2.393839 -1.042336,-0.778793 -2.015969,-1.63644 -2.938907,-2.553925 -0.23501,-0.206555 -0.49258,-0.387588 -0.718179,-0.604385 -0.657929,-0.632253 -1.123289,-1.419701 -1.382967,-2.292022 -0.144134,-0.545803 -0.241525,-0.8505 -0.321863,-1.410623 C 26.73772,72.54803 26.7435,72.292758 26.7004,72.043909 26.572402,71.304888 26.226945,70.634376 25.877422,69.980736 24.57246,67.729119 23.443634,65.634084 23.223011,62.973 c -0.110257,-1.829289 -0.183124,-3.657176 -0.352202,-5.483105 0.0031,-0.453374 -0.01787,-0.907556 0.0093,-1.360123 0.154188,-2.564738 0.852839,-5.054809 2.21651,-7.242818 0.269112,-0.893974 0.616421,-1.803627 0.679889,-2.743946 0.07862,-1.164801 -0.251608,-2.32805 -0.179875,-3.493756 0.0092,-0.703033 0.01631,-2.233557 0.07714,-2.934841 0.133162,-1.535155 0.493098,-3.039925 0.942964,-4.5095 0.385311,-1.069536 0.718397,-2.188136 1.206747,-3.216039 0.889566,-1.872412 2.088726,-3.569531 3.497236,-5.087263 1.171418,-1.067666 1.929876,-1.842572 3.202638,-2.725403 1.371568,-0.951367 2.964283,-1.505744 4.324051,-2.47232 1.027559,-0.838245 2.007986,-1.731255 3.053358,-2.54812 2.108983,-1.647985 4.333316,-3.139227 6.769581,-4.268641 2.448306,-1.054096 3.358766,-1.511623 5.848218,-2.337383 3.891735,-1.290901 7.937386,-2.064753 12.028826,-2.325321 2.516899,-0.125197 3.714551,-0.206026 6.250186,-0.2448881 1.062773,-0.016288 4.25151,-0.018333 3.188692,-0.00542 -16.47434,0.2000991 -12.065199,-0.1501643 -8.62207,0.1441681 0,0 13.019283,-2.0620512 13.019283,-2.0620512 z" />
  </g>
</svg>
