<?xml version="1.0" encoding="UTF-8" standalone="no"?>
<svg
   xmlns:dc="http://purl.org/dc/elements/1.1/"
   xmlns:cc="http://creativecommons.org/ns#"
   xmlns:rdf="http://www.w3.org/1999/02/22-rdf-syntax-ns#"
   xmlns:svg="http://www.w3.org/2000/svg"
   xmlns="http://www.w3.org/2000/svg"
   xmlns:sodipodi="http://sodipodi.sourceforge.net/DTD/sodipodi-0.dtd"
   xmlns:inkscape="http://www.inkscape.org/namespaces/inkscape"
   width="350"
   height="350"
   viewBox="0 0 92.604165 92.604169"
   version="1.1"
   id="svg8"
   inkscape:version="1.0.1 (3bc2e813f5, 2020-09-07)"
   sodipodi:docname="U 0034 Digit Four.svg">
  <defs
     id="defs2" />
  <sodipodi:namedview
     id="base"
     pagecolor="#ffffff"
     bordercolor="#666666"
     borderopacity="1.0"
     inkscape:pageopacity="0.0"
     inkscape:pageshadow="2"
     inkscape:zoom="0.7"
     inkscape:cx="115.99117"
     inkscape:cy="222.6943"
     inkscape:document-units="mm"
     inkscape:current-layer="layer1"
     inkscape:document-rotation="0"
     showgrid="false"
     units="px"
     inkscape:window-width="1267"
     inkscape:window-height="728"
     inkscape:window-x="78"
     inkscape:window-y="0"
     inkscape:window-maximized="0" />
  <metadata
     id="metadata5">
    <rdf:RDF>
      <cc:Work
         rdf:about="">
        <dc:format>image/svg+xml</dc:format>
        <dc:type
           rdf:resource="http://purl.org/dc/dcmitype/StillImage" />
        <dc:title></dc:title>
      </cc:Work>
    </rdf:RDF>
  </metadata>
  <g
     inkscape:label="Layer 1"
     inkscape:groupmode="layer"
     id="layer1">
    <path
       style="fill:#000000;stroke:#000000;stroke-width:0.264583;stroke-linejoin:round"
       id="path875"
       d="m 68.592315,81.713315 c -0.104624,-0.05873 -0.247176,-0.07646 -0.313875,-0.176199 -0.205306,-0.306999 -0.350152,-0.653548 -0.473763,-1.00157 -0.761971,-2.145324 -0.553632,-1.993498 -0.851834,-4.392922 -0.89795,-7.225252 0.04538,1.114023 -0.892421,-7.473669 -0.09628,-1.615964 -0.197183,-3.231661 -0.288858,-4.847892 -0.103823,-1.830461 -0.263396,-3.659068 -0.297633,-5.492152 -0.111815,-5.986632 0.501404,-11.906038 1.432793,-17.806611 0.267875,-2.059906 0.989269,-3.962432 1.831726,-5.838452 0.297873,-0.663316 0.655355,-1.303626 0.797277,-2.027669 0.07484,-0.381807 0.06935,-0.775052 0.104029,-1.162579 -0.01963,-2.078612 -0.460669,-4.120028 -0.695664,-6.176623 -0.06724,-0.588462 -0.186833,-2.557213 -0.226901,-3.180556 -0.12147,-1.883416 0.0044,-3.767448 0.135676,-5.646063 0.09313,-0.881854 0.0542,-1.765787 0.06277,-2.650014 -0.08006,-0.950478 0.05936,-1.942288 0.305197,-2.863498 0.15874,-0.404777 0.166698,-0.857071 0.295156,-1.2679377 0.160036,-0.5118634 0.241456,-0.3237785 0.299522,-0.985543 C 68.46177,1.4493028 69.9405,7.3088846 50.847791,7.6049065 c -0.13431,0.00209 -0.193831,0.1867551 -0.299918,0.2691516 -0.484542,0.3763383 -0.974725,0.7513815 -1.506276,1.0577579 -0.498102,0.2870962 -1.029473,0.5121587 -1.544206,0.768238 -0.690698,0.475636 -1.362625,0.979756 -2.072092,1.426909 -0.903484,0.569434 -1.866255,1.041849 -2.763624,1.620873 -0.378714,0.244365 -6.541179,4.575025 -6.666439,4.668983 -3.227337,2.420825 -3.698949,2.975994 -6.651995,5.663543 -2.630818,2.582318 -4.763166,5.552722 -6.564185,8.754521 -1.124185,1.998546 -2.089526,4.092715 -3.136599,6.132375 -1.776684,2.785951 -3.569857,5.55262 -5.216394,8.419092 -0.717783,1.400633 -1.973007,2.430775 -2.768795,3.766807 -0.525827,0.917696 -0.733399,1.937057 -0.830975,2.976551 -0.08125,0.268402 0.02831,0.560634 -0.03605,0.829969 -0.01188,0.04973 -0.08055,0.06495 -0.110478,0.106408 -0.04975,0.06891 -0.09295,0.143327 -0.126278,0.221517 -0.187472,0.43988 -0.115921,0.439547 -0.11238,1.012253 0.153955,0.334696 0.200061,0.74489 0.461865,1.004086 0.240232,0.237837 0.601076,0.377817 0.939089,0.382905 6.244045,0.094 12.489911,2.57e-4 18.734058,-0.08675 0.274894,-0.0038 2.868028,-0.498599 2.887146,-0.501859 0.745191,-0.127048 1.492975,-0.238379 2.239463,-0.357571 7.014387,-1.084035 14.090359,-1.639274 21.172138,-2.031495 4.723026,-0.214233 9.443749,-0.429276 14.143852,-0.952362 2.517259,-0.329089 5.060151,-0.36404 7.59461,-0.415018 2.998013,-0.08769 5.955684,0.304718 8.842227,-0.675507 1.103683,-0.857806 0.741085,-2.327344 -0.494503,-2.819197 -0.640604,-0.255005 -2.478903,-0.235341 -3.19068,-0.263781 -8.276539,-0.132332 -16.551319,-0.08648 -24.830097,-0.09218 -1.789036,-0.03597 -3.57772,0.01032 -5.366457,0.03506 -2.628688,0.02566 -5.25753,-0.004 -7.886245,-2.65e-4 -2.474782,0.198975 -4.939455,0.488924 -7.420017,0.634312 -1.635741,0.199359 -3.324288,-0.110088 -4.942729,0.192204 -0.419007,0.157134 -0.893265,0.111133 -1.319146,0.221216 -0.429114,0.110916 -0.779253,0.38926 -1.250992,0.542134 -1.002991,0.249187 -2.022269,0.416382 -3.023079,0.672922 -1.491298,0.199097 -2.978718,0.430925 -4.477113,0.578615 -1.72775,0.416928 -3.439426,0.894405 -5.117221,1.482407 -0.930934,0.283732 -0.476008,0.159076 -1.363522,0.378524 0,0 18.036971,2.306767 18.036971,2.306767 v 0 c 0.765191,-0.289481 0.370213,-0.142777 1.185262,-0.439219 1.639242,-0.507524 3.295859,-1.003588 5.017613,-1.126405 1.57933,-0.21199 3.169113,-0.360762 4.725525,-0.715124 1.089094,-0.192188 2.16563,-0.481378 3.211756,-0.838189 0.795644,-0.257702 1.643803,-0.263938 2.470293,-0.378421 1.446519,0.03098 2.891432,-0.147399 4.33256,-0.24511 2.394653,-0.229846 4.785018,-0.578146 7.197291,-0.532415 2.623994,0.0034 5.248092,-0.02635 7.872081,-0.0027 1.911239,0.02088 3.822684,0.06433 5.733984,0.02305 -31.139775,-0.02569 -17.28493,-0.07598 -10.223024,0.0045 0.241983,0.0064 2.36509,0.142211 2.554828,0.0786 0.589534,-0.197625 0.501837,-1.672256 0.50946,-2.001543 -2.360422,0.606308 -4.866941,0.249052 -7.269546,0.390879 -2.801043,0.01881 -5.642525,-0.09006 -8.39716,0.504333 -3.804717,0.639842 -7.66286,0.893157 -11.502909,1.225685 -7.456514,0.51871 -14.888876,1.315453 -22.336099,1.949177 -1.999113,0.18273 -3.230236,0.316627 -5.184328,0.421752 -0.551153,0.02965 -2.206928,0.05136 -1.654983,0.05362 5.559746,0.02278 11.119583,0.0053 16.679375,0.0079 -0.152302,0.111874 -0.356016,0.175834 -0.456906,0.335621 -0.126233,0.199922 -0.124685,0.456142 -0.187026,0.684213 -0.02682,0.07911 -0.0288,0.171672 -0.08044,0.23732 -0.04028,0.0512 0.02625,-0.127733 0.04363,-0.190521 0.03824,-0.138091 0.09438,-0.271476 0.123155,-0.411845 0.08732,-0.425945 0.08245,-0.847696 0.09878,-1.278546 0.06009,-0.74758 0.200105,-1.470194 0.618395,-2.110483 0.834435,-1.231189 1.46037,-2.58902 1.910085,-4.006618 0.442921,-1.122338 0.499182,-1.35981 1.106961,-2.468869 1.12131,-2.046123 2.579989,-3.904194 3.486833,-6.069219 0.197665,-0.590251 0.424508,-1.171522 0.592997,-1.770755 0.708462,-2.519633 0.170098,-1.600695 1.191414,-4.292407 1.187646,-3.130082 2.971644,-5.8908 5.264994,-8.333288 2.653554,-2.538251 3.26844,-3.319312 6.351262,-5.455323 2.836968,-1.965665 4.750178,-2.884683 7.830695,-4.405531 1.063689,-0.525142 2.120347,-1.068386 3.213214,-1.529738 1.069581,-0.451523 2.178307,-0.804048 3.267461,-1.206071 0.655593,-0.247378 1.304282,-0.513892 1.966783,-0.742134 0.601853,-0.207347 1.214234,-0.382978 1.824516,-0.564026 0.313005,-0.09286 0.62506,-0.192465 0.944989,-0.257587 0.153657,-0.03128 0.626247,-0.02922 0.469445,-0.03032 C 50.669709,9.9191872 50.641398,16.043052 51.08724,8.8964364 c 0.02291,-0.057669 0.01045,-0.1942285 0.06875,-0.1730076 0.09312,0.033886 -0.279924,1.7315712 -0.299304,1.8896202 -0.163444,1.067612 -0.22519,2.149318 -0.343239,3.222754 0.0042,0.909153 -0.04276,1.819642 0.104981,2.722079 0.269346,1.926337 0.699056,3.825654 0.958734,5.753747 0.03273,0.232742 0.421981,2.985007 0.43874,3.170762 0.172368,1.910351 0.180896,3.869231 -0.05099,5.772265 -0.05833,0.303635 -0.315013,1.61354 -0.354737,1.92438 -0.310264,2.42774 -0.01603,4.891675 0.189082,7.312105 0.477752,4.130206 0.956481,8.233574 1.044516,12.397348 0.109704,5.188619 -0.01789,5.723676 -0.454766,10.912329 -0.136069,1.61607 -0.290742,3.23052 -0.436112,4.84578 -0.197795,1.404107 -0.387742,2.809344 -0.593381,4.212326 -0.161571,1.102336 -0.369684,2.198007 -0.508233,3.303473 -0.103018,0.821982 -0.0984,1.655813 -0.216093,2.475823 -0.200028,1.393672 -0.706795,2.752453 -0.723831,4.17489 0,0 18.680958,-1.099712 18.680958,-1.099712 z" />
  </g>
</svg>
