<?xml version="1.0" encoding="UTF-8" standalone="no"?>
<svg
   xmlns:dc="http://purl.org/dc/elements/1.1/"
   xmlns:cc="http://creativecommons.org/ns#"
   xmlns:rdf="http://www.w3.org/1999/02/22-rdf-syntax-ns#"
   xmlns:svg="http://www.w3.org/2000/svg"
   xmlns="http://www.w3.org/2000/svg"
   xmlns:sodipodi="http://sodipodi.sourceforge.net/DTD/sodipodi-0.dtd"
   xmlns:inkscape="http://www.inkscape.org/namespaces/inkscape"
   width="350"
   height="350"
   viewBox="0 0 92.604165 92.604169"
   version="1.1"
   id="svg8"
   inkscape:version="1.0.1 (3bc2e813f5, 2020-09-07)"
   sodipodi:docname="U 0042 Uppercase B.svg">
  <defs
     id="defs2" />
  <sodipodi:namedview
     id="base"
     pagecolor="#ffffff"
     bordercolor="#666666"
     borderopacity="1.0"
     inkscape:pageopacity="0.0"
     inkscape:pageshadow="2"
     inkscape:zoom="0.98994949"
     inkscape:cx="309.50916"
     inkscape:cy="110.64312"
     inkscape:document-units="mm"
     inkscape:current-layer="layer1"
     inkscape:document-rotation="0"
     showgrid="false"
     units="px"
     inkscape:window-width="1267"
     inkscape:window-height="728"
     inkscape:window-x="78"
     inkscape:window-y="0"
     inkscape:window-maximized="0" />
  <metadata
     id="metadata5">
    <rdf:RDF>
      <cc:Work
         rdf:about="">
        <dc:format>image/svg+xml</dc:format>
        <dc:type
           rdf:resource="http://purl.org/dc/dcmitype/StillImage" />
        <dc:title></dc:title>
      </cc:Work>
    </rdf:RDF>
  </metadata>
  <g
     inkscape:label="Layer 1"
     inkscape:groupmode="layer"
     id="layer1">
    <circle
       id="path885"
       style="fill:#000000;stroke:#000000;stroke-width:0.264583"
       cx="22.717909"
       cy="14.967093"
       r="0.11774057" />
    <path
       style="fill:#000000;stroke:#000000;stroke-width:0.264583;stroke-linejoin:round"
       id="path1476"
       d="m 17.196203,13.790596 c 1.08535,2.925812 1.525241,6.05427 1.710581,9.158504 0.07274,1.218387 0.06746,2.440181 0.101191,3.66027 -0.376824,4.371997 -0.12448,2.443287 -0.799595,6.567604 -0.155781,0.951675 -0.430166,1.890565 -0.474134,2.853899 -0.05662,1.24052 0.12415,2.480556 0.174026,3.721365 0.221807,5.51802 0.176518,3.504297 0.03297,9.235429 -0.260223,3.962109 -1.09004,7.836686 -2.021673,11.683166 -0.257368,1.062607 -0.974973,3.664914 -1.062896,4.842069 -0.0664,0.888997 0.03406,1.782622 0.05109,2.673932 0.190803,4.181771 -0.584052,8.292499 -1.124618,12.414617 -0.09695,1.382631 -0.212373,2.761716 -0.368961,4.138893 0,0 12.712224,-0.0055 12.712224,-0.0055 v 0 C 25.95826,83.362961 25.832592,81.988975 25.747003,80.609271 25.260204,76.506919 24.65809,72.387934 25.246108,68.253205 c 0.130687,-0.877138 0.314347,-1.748009 0.392063,-2.631421 0.101224,-1.150615 -7.67e-4,-3.767632 -0.025,-4.847278 -0.0878,-3.910354 -0.186289,-7.828076 0.196748,-11.729169 0.352565,-2.898654 0.727597,-6.326534 1.23648,-9.219539 0.217131,-1.23439 0.590869,-2.4398 0.77096,-3.680134 0.137872,-0.949564 0.133871,-1.914507 0.180511,-2.872894 0.09715,-1.996345 0.149665,-4.661545 0.198184,-6.636112 0.375334,-4.324479 0.664272,-8.738229 2.181719,-12.846043 0,0 -13.18157,0 -13.18157,0 z" />
    <path
       style="fill:#000000;stroke:#000000;stroke-width:0.264583;stroke-linejoin:round"
       id="path1478"
       d="m 32.647742,15.609822 c 1.409758,-0.807384 3.171711,-1.075473 4.73669,-1.333839 1.274953,-0.210485 2.554753,-0.397744 3.840009,-0.531653 4.31837,-0.449929 5.402569,-0.372983 9.821426,-0.456409 -0.826363,0.06652 -3.247776,-0.110949 -2.479088,0.199562 1.340615,0.54154 2.879389,0.291418 4.304125,0.53766 2.824846,0.488228 5.64623,1.31752 8.167971,2.704627 0.521663,0.286946 1.003281,0.641337 1.504921,0.962006 1.556041,1.181332 2.94183,2.515056 3.159678,4.537894 -0.151905,2.086379 -1.255184,3.960844 -2.8297,5.308277 -0.462765,0.396025 -0.984377,0.717597 -1.476569,1.076396 -1.262882,0.856689 -2.626833,1.542693 -3.943268,2.308797 -0.34336,0.199818 -0.709562,0.368551 -1.020003,0.616439 -0.373956,0.298601 -0.677688,0.675857 -1.018772,1.011518 -0.42567,0.418896 -0.854316,0.834755 -1.281473,1.252133 -1.304814,1.297858 -1.91077,2.010468 -3.479929,3.080017 -2.85727,1.947534 -6.141387,3.036681 -9.399601,4.087738 -4.121298,1.231228 -8.400484,1.840453 -12.645291,2.478223 -3.597722,0.485415 -7.214342,0.820586 -10.829171,1.150982 -4.515291,-0.09456 -10.4264561,-0.01519 11.006301,-0.05508 0.28775,-5.3e-4 -0.333607,-0.05189 -0.532517,0.107166 0,0 -13.097277,1.524432 -13.097277,1.524432 v 0 c 0.270992,0.241826 0.470172,0.367448 0.848319,0.368146 4.785685,0.0088 9.411631,0.77107 14.004377,-0.17223 2.928923,-0.554871 5.878006,-0.99037 8.821199,-1.461532 2.709596,-0.413004 2.644924,-0.414835 5.411301,-0.787816 2.725494,-0.367471 5.493374,-0.650192 8.022812,-1.819801 4.554752,-2.100069 9.083612,-4.347274 13.010293,-7.511815 0.560639,-0.391101 1.108712,-0.800859 1.681916,-1.173305 0.476221,-0.30943 0.982583,-0.570188 1.4643,-0.87099 1.472432,-0.919445 2.800471,-2.045536 4.168888,-3.106901 1.00138,-0.813226 2.093918,-1.645412 2.975621,-2.593414 1.040969,-1.119247 1.12109,-1.404684 1.771176,-2.66435 0.762606,-1.477691 0.491617,-0.847979 0.985748,-2.348625 -0.04908,-0.261717 -0.06298,-0.532549 -0.147222,-0.785151 C 77.970795,20.636805 77.588231,20.121722 77.178225,19.634955 76.13447,18.395784 74.884319,17.366341 73.506994,16.516282 72.808666,16.177256 72.129375,15.79583 71.41201,15.499204 69.277936,14.616779 67.453513,14.126658 65.169243,13.632115 58.084945,12.09837 50.955874,11.88202 43.693522,12.137714 c -1.767591,0.03368 -3.536111,0.03456 -5.302774,0.101049 -2.653178,0.09986 -7.75655,0.450264 -10.432988,0.679836 -5.328812,0.457078 -2.391501,0.283803 -6.882759,0.714175 -0.452631,0.04337 -0.907288,0.06207 -1.360933,0.09311 0,0 12.933674,1.883937 12.933674,1.883938 z" />
    <path
       style="fill:#000000;stroke:#000000;stroke-width:0.264583;stroke-linejoin:round"
       id="path1486"
       d="m 53.026008,42.621332 c 0.235683,-0.04296 0.471363,-0.08592 0.707043,-0.128881 -3.077152,0.04765 -6.178539,-0.245441 -9.231455,0.142938 -1.085128,0.138046 2.163934,0.344805 3.222225,0.621533 2.219944,0.580485 4.255699,1.403913 6.296261,2.440302 0.812678,0.412755 1.579271,0.910582 2.368907,1.365874 0.591727,0.410745 1.194009,0.806686 1.775185,1.232234 0.821282,0.601358 1.602343,1.255842 2.408724,1.877041 0.898438,0.692116 1.812856,1.360083 2.726507,2.031818 1.930027,1.32928 3.896839,2.732794 5.013018,4.862494 0.180766,0.344908 0.281361,0.726212 0.422043,1.089318 0.271028,1.169551 0.714909,2.257052 0.712808,3.482602 -0.0027,1.580105 -0.547674,3.063534 -1.008832,4.548989 -0.575011,1.83664 -0.602113,3.787259 -1.084612,5.644439 -0.330356,1.271566 -0.492257,1.472086 -1.04499,2.625116 -0.206899,0.342773 -0.401675,0.693163 -0.620697,1.028322 -0.186465,0.285339 -0.40346,0.549711 -0.594855,0.831768 -0.574325,0.846378 -1.032065,1.779375 -1.744996,2.526056 -0.260559,0.272894 -0.563398,0.502028 -0.845095,0.753044 -2.39741,1.373804 -5.139332,1.939549 -7.859506,2.22718 -1.322146,0.11135 -2.649365,0.130382 -3.975277,0.144608 -0.48628,0.0052 -1.94519,0.01156 -1.458883,0.0108 10.745864,-0.01746 13.385453,0.09219 8.735785,-0.07154 -1.957417,-0.123952 -3.918741,-0.17833 -5.875579,-0.308814 -2.566887,-0.15693 -5.108241,-0.548061 -7.623267,-1.07347 -1.396452,-0.379275 -2.814881,-0.594874 -4.247163,-0.772978 -1.678726,-0.148794 -3.342,-0.420203 -5.01727,-0.598236 -1.643695,-0.207446 -3.292848,-0.350332 -4.946981,-0.436748 -0.926361,-0.069 -1.862751,-0.01519 -2.780599,-0.17545 -4.338997,-2.157733 19.68635,-3.340283 -13.224314,1.550374 -0.122037,0.01812 0.183766,0.171547 0.296635,0.221371 0.110815,0.04892 0.962987,0.190902 0.998352,0.197176 1.33656,0.235029 2.419081,1.080288 3.610835,1.661109 1.00616,0.490371 1.243923,0.54093 2.295596,0.912815 1.418089,0.368202 2.859423,0.704922 4.320924,0.849646 0.861021,0.08526 1.410304,0.08502 2.29025,0.111242 2.775841,-0.01011 5.549204,0.07284 8.31524,0.305988 0.430125,0.02109 0.859972,0.049 1.290378,0.06327 2.066253,0.06848 4.135128,0.03809 6.202042,0.04652 10.446176,0.04262 -20.408161,0.02646 15.117046,0.0092 2.704938,-0.106537 5.396349,-0.458012 8.060745,-0.925483 0.615371,-0.107966 1.234961,-0.197186 1.843315,-0.339479 0.550931,-0.128863 1.086784,-0.315312 1.630177,-0.472969 2.244284,-0.870019 4.164397,-2.273046 5.883643,-3.928481 0.990235,-1.083921 1.553073,-2.479291 2.168464,-3.79689 0.273616,-0.66059 0.127995,-0.359941 0.424074,-0.908028 0,0 -12.863948,-0.470424 -12.863948,-0.470424 v 0 c -0.140163,0.579879 -0.06483,0.28435 -0.227026,0.886327 -0.424257,1.230218 -1.069242,2.343127 -1.918817,3.332943 -1.354762,1.531176 -3.031966,2.699039 -4.962863,3.397166 -0.452612,0.133246 -0.899285,0.288649 -1.357839,0.39974 -3.120607,0.756015 -6.359348,0.980551 -9.555232,1.114504 18.341047,0.07613 4.507521,0.111237 0.162899,-0.215071 -2.768438,-0.12821 -5.534858,-0.313669 -8.30672,-0.35083 -2.213674,-0.05566 -4.440997,-0.126201 -6.609446,-0.62144 -0.871085,-0.243594 -1.318569,-0.330856 -2.137285,-0.704847 -1.094703,-0.500058 -2.06484,-1.242015 -3.003762,-1.982552 -0.07747,-0.03743 -0.518186,-0.280771 -0.677367,-0.270836 -0.05782,0.0036 -0.08474,0.09279 -0.14224,0.09985 -21.6465713,2.65753 -17.3786154,1.399868 -12.759261,1.554438 0.13728,0.03899 0.750513,0.215757 0.871956,0.238815 0.78159,0.148392 1.575879,0.132014 2.367142,0.127979 1.70743,0.02784 3.416534,0.09103 5.112671,0.301985 1.587806,0.21966 3.182704,0.386937 4.765547,0.642591 1.619739,0.17249 3.242527,0.323948 4.84981,0.598495 2.449753,0.4171 4.884914,0.949913 7.355895,1.223947 2.10851,0.262646 4.229801,0.229566 6.350741,0.310404 5.704057,0.188518 1.515478,0.06463 14.439471,0.08137 1.964264,0.0026 3.932865,-0.0564 5.888032,-0.251301 0.362974,-0.06818 0.729234,-0.12073 1.088919,-0.204536 0.685382,-0.159698 1.513991,-0.442365 2.167414,-0.679281 1.564979,-0.567423 3.11971,-1.184204 4.535869,-2.072759 0.328631,-0.308393 0.678092,-0.595995 0.985893,-0.925179 0.620138,-0.663221 1.479364,-1.904572 1.902774,-2.720015 0.21761,-0.419094 0.651108,-1.641366 0.796031,-2.033743 0.906719,-2.760499 1.596014,-5.57752 2.078479,-8.443963 0.269145,-1.590818 0.509178,-3.185668 0.782553,-4.77583 0.205489,-1.195273 0.498891,-1.890506 0.175935,-3.054606 -0.102158,-0.368234 -0.340323,-0.684334 -0.510485,-1.026501 -0.844684,-1.411934 -0.639788,-1.110306 -1.608462,-2.549049 -0.636747,-0.945745 -1.074463,-1.640541 -1.85347,-2.463356 -0.501703,-0.529918 -1.242595,-1.095576 -1.81242,-1.55363 -0.47476,-0.313069 -1.53752,-1.019218 -2.005586,-1.305103 -2.255777,-1.377786 -4.636508,-2.53592 -6.977417,-3.757506 C 63.5011,44.57563 60.649572,43.13433 57.687027,41.944661 56.894589,41.626441 56.133409,41.129307 55.282139,41.061757 48.78035,40.545801 45.444759,40.6205 40.280468,40.702802 c 0,0 12.74554,1.918512 12.74554,1.918512 z" />
  </g>
</svg>
