<?xml version="1.0" encoding="UTF-8" standalone="no"?>
<svg
   xmlns:dc="http://purl.org/dc/elements/1.1/"
   xmlns:cc="http://creativecommons.org/ns#"
   xmlns:rdf="http://www.w3.org/1999/02/22-rdf-syntax-ns#"
   xmlns:svg="http://www.w3.org/2000/svg"
   xmlns="http://www.w3.org/2000/svg"
   xmlns:sodipodi="http://sodipodi.sourceforge.net/DTD/sodipodi-0.dtd"
   xmlns:inkscape="http://www.inkscape.org/namespaces/inkscape"
   width="350"
   height="350"
   viewBox="0 0 92.604165 92.604169"
   version="1.1"
   id="svg8"
   inkscape:version="1.0.1 (3bc2e813f5, 2020-09-07)"
   sodipodi:docname="U 0032 Digit Two.svg">
  <defs
     id="defs2" />
  <sodipodi:namedview
     id="base"
     pagecolor="#ffffff"
     bordercolor="#666666"
     borderopacity="1.0"
     inkscape:pageopacity="0.0"
     inkscape:pageshadow="2"
     inkscape:zoom="0.7"
     inkscape:cx="115.99117"
     inkscape:cy="222.6943"
     inkscape:document-units="mm"
     inkscape:current-layer="layer1"
     inkscape:document-rotation="0"
     showgrid="false"
     units="px"
     inkscape:window-width="1267"
     inkscape:window-height="728"
     inkscape:window-x="78"
     inkscape:window-y="0"
     inkscape:window-maximized="0" />
  <metadata
     id="metadata5">
    <rdf:RDF>
      <cc:Work
         rdf:about="">
        <dc:format>image/svg+xml</dc:format>
        <dc:type
           rdf:resource="http://purl.org/dc/dcmitype/StillImage" />
        <dc:title></dc:title>
      </cc:Work>
    </rdf:RDF>
  </metadata>
  <g
     inkscape:label="Layer 1"
     inkscape:groupmode="layer"
     id="layer1">
    <path
       style="fill:#000000;stroke:#000000;stroke-width:0.264583;stroke-linejoin:round"
       id="path859"
       d="m 32.86661,88.014637 c 2.83495,-0.457068 5.692164,-0.73079 8.551254,-1.000342 6.161775,-0.771279 29.371768,-0.655238 1.989074,-0.551881 4.595966,0.100012 9.184502,0.445127 13.765604,0.816689 7.083364,0.704541 13.787323,0.288785 21.200655,0.227092 0.598024,-0.005 0.510463,-0.369088 0.679211,-0.863648 -0.04477,-0.464687 -0.01937,-0.941591 -0.134305,-1.394063 -0.04503,-0.177297 -0.206195,-0.303974 -0.330972,-0.437737 -0.621557,-0.666324 -1.44629,-0.899697 -2.282868,-1.174112 -2.326812,-0.745432 -4.797417,-0.880708 -7.215385,-1.121733 -2.623754,-0.163097 -5.249209,-0.296836 -7.877625,-0.348213 -12.106471,-0.08285 -41.105423,-0.07154 -4.645872,-0.04232 -1.680144,-0.143788 -3.363851,-0.226627 -5.048565,-0.300308 -7.305907,-0.195212 -14.690071,-0.870188 -21.944208,0.09823 -1.713452,0.160245 -3.435934,0.182742 -5.155582,0.20185 -1.497062,-0.08208 -2.970061,0.173652 -4.45554,0.304496 -0.857668,0.0697 -1.718586,0.05838 -2.57814,0.05052 -0.125844,-0.0011 -0.251688,-0.0024 -0.377532,-0.0035 0,0 18.24598,2.869361 18.24598,2.869361 v 0 c 0.125225,-0.0039 0.250447,-0.0078 0.375669,-0.01172 0.813673,-0.03852 1.62419,-0.114334 2.429989,-0.235844 1.354346,-0.174062 2.71036,-0.207026 4.07566,-0.206722 1.777714,-0.05746 3.552611,-0.164798 5.326605,-0.293256 6.638459,-0.335878 0.962303,-0.03529 -16.68712,-0.02418 -0.216887,1.35e-4 0.43375,-0.0045 0.650629,-0.0061 0.809993,-0.0061 1.620057,-0.0084 2.430026,0.0027 1.581428,0.02297 3.171592,0.03649 4.738653,0.272823 6.191491,0.03406 12.382963,0.07212 18.574475,0.102176 0.205221,0.0011 0.82083,-0.0088 0.615606,-0.009 -5.656268,-0.0066 -11.312546,-0.0032 -16.968814,-0.01 -0.309176,-2.65e-4 0.618313,-0.0071 0.927484,-0.0092 0.330104,-0.0021 0.66022,-0.0026 0.990327,-0.0038 0.357095,-0.0024 0.71419,-0.0049 1.071282,-0.0074 2.691156,0.0044 5.385715,-0.0059 8.071869,0.181269 2.15194,0.164272 4.311496,0.373362 6.433838,0.765453 0.512987,0.203655 0.975929,0.388578 1.521899,0.468535 0.270817,0.03966 0.437163,0.07075 0.444238,0.03847 0.07668,-0.349898 0.05611,-0.714203 0.08416,-1.071303 0.02119,-0.170693 0.08717,-0.341693 0.06362,-0.512077 -0.0067,-0.04876 -0.09376,-0.03005 -0.140637,-0.04507 5.808453,0.01334 11.616907,0.02665 17.42536,0.03998 0.319373,7.94e-4 -0.638762,0.0013 -0.958127,-0.0013 -1.074172,-0.0088 -1.741358,-0.02711 -2.846991,-0.05057 C 68.867899,84.571422 63.844393,84.228826 58.811947,84.054 47.795083,84.01282 36.773187,83.735182 25.782981,84.66292 c -3.768143,0.241104 -7.550647,0.58896 -11.328419,0.435591 0,0 18.412047,2.916182 18.412047,2.916182 z" />
    <path
       style="fill:#000000;stroke:#000000;stroke-width:0.264583;stroke-linejoin:round"
       id="path861"
       d="m 85.779747,81.692646 c -1.578261,0.123544 -3.150177,0.01064 -4.723863,-0.10921 -2.22032,-0.155889 -4.446167,-0.153339 -6.669535,-0.235185 -3.082851,-0.176668 -6.15973,-0.440841 -9.243883,-0.597392 -2.834896,-0.179277 -5.676947,-0.07148 -8.514394,-0.03258 -9.513073,0.03614 -19.024664,0.07124 -28.536625,-0.046 -2.67402,-0.05141 -5.347617,0.0056 -8.021691,-0.0013 -0.465209,-0.0031 -0.931004,-0.03274 -1.395626,-0.0092 -0.896425,0.04543 -1.726413,0.214746 -2.606496,0.370739 -1.028106,0.182232 -2.04177,0.348938 -3.050344,0.61867 -1.408192,0.485109 -2.511596,0.743485 -3.4675878,1.956234 -4.1688385,7.968769 18.3762298,3.04655 18.5313948,3.045264 0.393038,-0.0033 0.608144,-0.498123 0.912217,-0.747183 3.144483,-2.004171 5.984232,-4.447344 8.496998,-7.201646 0.68629,-0.752261 1.328971,-1.54318 1.993453,-2.314768 3.414609,-4.029665 5.849125,-8.75506 9.135636,-12.884613 2.24513,-2.82104 3.418282,-3.876802 5.912509,-6.398191 2.494833,-2.673194 5.608426,-4.666321 8.194482,-7.234648 1.167749,-1.159745 1.223857,-1.334952 2.213213,-2.653794 2.261717,-3.588639 4.177183,-7.357475 5.824127,-11.262376 0.93167,-2.562593 1.761006,-5.162711 2.228948,-7.853754 0.0779,-0.448003 0.403826,-2.81025 0.475287,-3.322576 0.09975,-1.767978 0.77271,-3.850846 0.201507,-5.598313 -0.105082,-0.321475 -0.2813,-0.615161 -0.42195,-0.922742 C 72.979213,17.984556 72.761183,17.650355 72.442588,17.437503 70.567189,16.184555 66.932706,15.900517 64.719075,15.664268 62.271518,15.482192 59.806794,15.25807 57.482808,14.432077 57.060385,14.298795 56.635625,14.172702 56.215536,14.032231 55.827268,13.9024 55.452107,13.732572 55.058119,13.6213 c -2.352511,-0.664407 -4.793747,-1.008124 -7.215582,-1.293766 -7.377813,-0.39068 -5.242271,-0.311279 -20.038628,0.09721 -0.363276,0.01003 -2.446063,0.642011 -2.819817,0.801101 -0.900674,0.383374 -1.701748,0.968689 -2.511604,1.503452 -3.532075,2.422169 -6.498684,5.509002 -9.52977,8.502541 -1.151518,1.120848 -2.454759,2.060235 -3.705652,3.062251 -0.6161812,0.493585 -1.0016807,0.733811 -1.4318554,1.405741 -0.2036193,0.318053 -0.3365053,0.676196 -0.504758,1.014291 -0.5030825,1.05038 -0.9529585,2.124387 -1.4003486,3.199177 0,0 17.614567,0.696005 17.614567,0.696005 v 0 c 0.413937,-0.991605 0.854681,-1.967343 1.449483,-2.867824 1.50399,-1.729459 2.98331,-3.476766 4.448598,-5.240892 1.061673,-1.15159 1.762448,-1.952245 2.914367,-3.031818 2.124845,-1.991398 4.533374,-3.643844 7.15671,-4.910454 1.288073,-0.576666 2.549802,-1.125452 3.942759,-1.401472 0.437449,-0.08668 1.769632,-0.185106 1.323761,-0.193737 -10.778373,-0.208659 -21.014121,0.06416 -13.679183,-0.119369 3.021063,0.143547 6.054746,0.475522 8.83171,1.754155 0.735962,0.266979 1.45687,0.578515 2.205672,0.807022 1.865773,0.569367 3.86643,0.622044 5.795383,0.759758 1.523291,0.125377 3.015988,0.288147 4.523174,0.543572 0.735671,0.124676 1.482085,0.203474 2.203585,0.393718 0.213651,0.05633 0.412596,0.158262 0.618895,0.237393 0.146634,0.112291 0.331708,0.187191 0.439901,0.336875 0.132461,0.183255 0.188529,0.412253 0.257281,0.627661 0.44595,1.397179 0.349858,2.888568 0.393853,4.332097 -0.0942,3.631691 -0.60901,7.26783 -1.995289,10.650359 -1.692484,3.834162 -3.540162,7.600677 -6.309465,10.7931 -0.714997,0.84531 -1.454193,1.670349 -2.154169,2.528139 -1.966913,2.41037 -3.512092,5.140671 -5.602401,7.458186 -2.73599,3.425714 -5.519235,6.806948 -8.295773,10.199449 -0.930145,1.136494 -1.814425,2.310675 -2.764782,3.430326 -1.37715,1.622475 -3.557539,3.928824 -5.047244,5.52642 -0.766206,0.731454 -1.510699,1.48635 -2.298618,2.194362 -2.988967,2.685844 -6.322278,5.10713 -10.137137,6.453976 -9.2700186,1.709608 18.213972,-5.008388 15.813841,1.620369 -0.0063,0.01754 0.306157,-0.519724 0.339513,-0.407964 0.916123,-0.501168 1.951842,-0.765516 2.948983,-1.050644 2.068785,-0.461068 4.1475,-0.77824 6.278263,-0.661249 2.664024,-0.0073 5.327692,0.05005 7.991573,-0.0041 6.533348,-0.101968 23.040168,-0.128537 -4.864756,-0.05408 2.55406,0.04566 5.10754,0.118854 7.662323,0.108096 3.15206,0.05987 6.307521,0.157393 9.44463,0.488982 1.986822,0.265422 3.971305,0.320058 5.973878,0.361055 1.337263,0.07706 2.660089,0.248987 3.992894,0.346147 0,0 18.462863,-2.924231 18.462863,-2.924231 z" />
  </g>
</svg>
