<?xml version="1.0" encoding="UTF-8" standalone="no"?>
<svg
   xmlns:dc="http://purl.org/dc/elements/1.1/"
   xmlns:cc="http://creativecommons.org/ns#"
   xmlns:rdf="http://www.w3.org/1999/02/22-rdf-syntax-ns#"
   xmlns:svg="http://www.w3.org/2000/svg"
   xmlns="http://www.w3.org/2000/svg"
   xmlns:sodipodi="http://sodipodi.sourceforge.net/DTD/sodipodi-0.dtd"
   xmlns:inkscape="http://www.inkscape.org/namespaces/inkscape"
   width="350"
   height="350"
   viewBox="0 0 92.604165 92.604169"
   version="1.1"
   id="svg8"
   inkscape:version="1.0.1 (3bc2e813f5, 2020-09-07)"
   sodipodi:docname="U 0031 Digit One.svg">
  <defs
     id="defs2" />
  <sodipodi:namedview
     id="base"
     pagecolor="#ffffff"
     bordercolor="#666666"
     borderopacity="1.0"
     inkscape:pageopacity="0.0"
     inkscape:pageshadow="2"
     inkscape:zoom="0.7"
     inkscape:cx="115.99117"
     inkscape:cy="222.6943"
     inkscape:document-units="mm"
     inkscape:current-layer="layer1"
     inkscape:document-rotation="0"
     showgrid="false"
     units="px"
     inkscape:window-width="1267"
     inkscape:window-height="728"
     inkscape:window-x="78"
     inkscape:window-y="0"
     inkscape:window-maximized="0" />
  <metadata
     id="metadata5">
    <rdf:RDF>
      <cc:Work
         rdf:about="">
        <dc:format>image/svg+xml</dc:format>
        <dc:type
           rdf:resource="http://purl.org/dc/dcmitype/StillImage" />
        <dc:title></dc:title>
      </cc:Work>
    </rdf:RDF>
  </metadata>
  <g
     inkscape:label="Layer 1"
     inkscape:groupmode="layer"
     id="layer1">
    <path
       style="fill:#000000;stroke:#000000;stroke-width:0.264583;stroke-linejoin:round"
       id="path851"
       d="m 20.610064,19.206327 c 0.151446,0.177076 0.26809,0.391216 0.454337,0.531229 0.280133,0.210592 0.572393,0.494204 0.922719,0.503987 6.289186,0.175615 12.588344,0.302862 18.874849,0.04883 0.564803,-0.02282 0.991174,-0.547833 1.455394,-0.870359 0.861517,-0.59856 2.785464,-2.21352 3.559466,-2.851265 2.361715,-2.002706 4.780078,-3.988316 6.882235,-6.271269 0.466686,-0.3606758 0.79652,-0.8051007 1.094066,-1.3037408 0,0 -18.409195,-0.9987586 -18.409195,-0.9987586 v 0 c -0.225277,0.3685529 -0.457885,0.7326817 -0.668473,1.1100509 -1.385416,2.2310885 -2.942174,4.3532645 -5.050141,5.9671305 -1.626383,1.121192 -2.178836,1.675173 -4.098792,2.293367 -0.641284,0.206483 -2.659772,0.338878 -1.98682,0.370763 5.418891,0.256752 10.848024,0.204054 16.272035,0.306081 -0.52053,-0.0024 -0.321331,-0.06226 -0.62072,0.06424 0,0 -18.68096,1.099713 -18.68096,1.099713 z" />
    <path
       style="fill:#000000;stroke:#000000;stroke-width:0.264583;stroke-linejoin:round"
       id="path853"
       d="m 35.617538,8.3576127 c 0.146892,0.6705457 -2.64e-4,1.370598 0.180391,2.0381463 0.198128,0.73169 0.491069,1.434364 0.730864,2.153477 0.392279,1.176386 0.797803,2.348621 1.165344,3.53297 0.478006,1.540319 0.913995,3.093366 1.370991,4.640048 1.235215,4.890883 2.134915,9.852382 2.096672,14.913004 -0.02617,3.463784 -0.383283,4.222292 -0.593368,7.549816 -0.07532,1.193054 -0.07147,2.389791 -0.107214,3.584684 0.04939,3.801398 0.101267,4.725953 -0.01929,8.61773 -0.04955,1.599586 -0.06205,3.203247 -0.215572,4.796218 -0.364043,3.777425 -1.309354,7.509875 -2.101059,11.213087 -0.45629,3.262847 -0.277476,6.55519 -0.491403,9.834605 -0.06608,1.012944 -0.181451,2.02207 -0.272174,3.033106 0,0 15.453921,0.04778 15.453921,0.04778 v 0 c -0.02834,-1.006086 -0.09262,-2.011802 -0.08503,-3.018258 0.02461,-3.264747 0.50428,-6.481699 0.701026,-9.735267 -0.0042,-3.74958 -0.09119,-7.526626 0.208553,-11.268046 0.128939,-1.609455 0.367178,-3.208282 0.552519,-4.812221 0.640059,-5.539073 0.374385,-3.341253 1.056269,-8.646929 0.06488,-1.211308 0.209167,-2.420967 0.194652,-3.633925 -0.02294,-1.917719 -0.559052,-5.890869 -0.791658,-7.680585 -0.207065,-1.593233 -0.408283,-3.187448 -0.64489,-4.776562 -1.302125,-8.745533 -0.444994,-1.430822 -1.356526,-10.223238 -0.02466,-3.504938 -0.241493,-4.746534 0.411998,-8.003176 0.137893,-0.687179 0.440251,-1.331001 0.642483,-2.002068 0.179474,-0.5955542 0.233569,-1.2380704 0.545319,-1.7865438 0,0 -18.632831,-0.3678515 -18.632831,-0.3678515 z" />
    <path
       style="fill:#000000;stroke:#000000;stroke-width:0.264583;stroke-linejoin:round"
       id="path859"
       d="m 32.86661,88.014637 c 2.83495,-0.457068 5.692164,-0.73079 8.551254,-1.000342 6.161775,-0.771279 29.371768,-0.655238 1.989074,-0.551881 4.595966,0.100012 9.184502,0.445127 13.765604,0.816689 7.083364,0.704541 13.787323,0.288785 21.200655,0.227092 0.598024,-0.005 0.510463,-0.369088 0.679211,-0.863648 -0.04477,-0.464687 -0.01937,-0.941591 -0.134305,-1.394063 -0.04503,-0.177297 -0.206195,-0.303974 -0.330972,-0.437737 -0.621557,-0.666324 -1.44629,-0.899697 -2.282868,-1.174112 -2.326812,-0.745432 -4.797417,-0.880708 -7.215385,-1.121733 -2.623754,-0.163097 -5.249209,-0.296836 -7.877625,-0.348213 -12.106471,-0.08285 -41.105423,-0.07154 -4.645872,-0.04232 -1.680144,-0.143788 -3.363851,-0.226627 -5.048565,-0.300308 -7.305907,-0.195212 -14.690071,-0.870188 -21.944208,0.09823 -1.713452,0.160245 -3.435934,0.182742 -5.155582,0.20185 -1.497062,-0.08208 -2.970061,0.173652 -4.45554,0.304496 -0.857668,0.0697 -1.718586,0.05838 -2.57814,0.05052 -0.125844,-0.0011 -0.251688,-0.0024 -0.377532,-0.0035 0,0 18.24598,2.869361 18.24598,2.869361 v 0 c 0.125225,-0.0039 0.250447,-0.0078 0.375669,-0.01172 0.813673,-0.03852 1.62419,-0.114334 2.429989,-0.235844 1.354346,-0.174062 2.71036,-0.207026 4.07566,-0.206722 1.777714,-0.05746 3.552611,-0.164798 5.326605,-0.293256 6.638459,-0.335878 0.962303,-0.03529 -16.68712,-0.02418 -0.216887,1.35e-4 0.43375,-0.0045 0.650629,-0.0061 0.809993,-0.0061 1.620057,-0.0084 2.430026,0.0027 1.581428,0.02297 3.171592,0.03649 4.738653,0.272823 6.191491,0.03406 12.382963,0.07212 18.574475,0.102176 0.205221,0.0011 0.82083,-0.0088 0.615606,-0.009 -5.656268,-0.0066 -11.312546,-0.0032 -16.968814,-0.01 -0.309176,-2.65e-4 0.618313,-0.0071 0.927484,-0.0092 0.330104,-0.0021 0.66022,-0.0026 0.990327,-0.0038 0.357095,-0.0024 0.71419,-0.0049 1.071282,-0.0074 2.691156,0.0044 5.385715,-0.0059 8.071869,0.181269 2.15194,0.164272 4.311496,0.373362 6.433838,0.765453 0.512987,0.203655 0.975929,0.388578 1.521899,0.468535 0.270817,0.03966 0.437163,0.07075 0.444238,0.03847 0.07668,-0.349898 0.05611,-0.714203 0.08416,-1.071303 0.02119,-0.170693 0.08717,-0.341693 0.06362,-0.512077 -0.0067,-0.04876 -0.09376,-0.03005 -0.140637,-0.04507 5.808453,0.01334 11.616907,0.02665 17.42536,0.03998 0.319373,7.94e-4 -0.638762,0.0013 -0.958127,-0.0013 -1.074172,-0.0088 -1.741358,-0.02711 -2.846991,-0.05057 C 68.867899,84.571422 63.844393,84.228826 58.811947,84.054 47.795083,84.01282 36.773187,83.735182 25.782981,84.66292 c -3.768143,0.241104 -7.550647,0.58896 -11.328419,0.435591 0,0 18.412047,2.916182 18.412047,2.916182 z" />
  </g>
</svg>
