<?xml version="1.0" encoding="UTF-8" standalone="no"?>
<svg
   xmlns:dc="http://purl.org/dc/elements/1.1/"
   xmlns:cc="http://creativecommons.org/ns#"
   xmlns:rdf="http://www.w3.org/1999/02/22-rdf-syntax-ns#"
   xmlns:svg="http://www.w3.org/2000/svg"
   xmlns="http://www.w3.org/2000/svg"
   xmlns:sodipodi="http://sodipodi.sourceforge.net/DTD/sodipodi-0.dtd"
   xmlns:inkscape="http://www.inkscape.org/namespaces/inkscape"
   width="350"
   height="350"
   viewBox="0 0 92.604165 92.604169"
   version="1.1"
   id="svg8"
   inkscape:version="1.0.1 (3bc2e813f5, 2020-09-07)"
   sodipodi:docname="U 0030 Digit Zero.svg">
  <defs
     id="defs2" />
  <sodipodi:namedview
     id="base"
     pagecolor="#ffffff"
     bordercolor="#666666"
     borderopacity="1.0"
     inkscape:pageopacity="0.0"
     inkscape:pageshadow="2"
     inkscape:zoom="0.7"
     inkscape:cx="115.99117"
     inkscape:cy="222.6943"
     inkscape:document-units="mm"
     inkscape:current-layer="layer1"
     inkscape:document-rotation="0"
     showgrid="false"
     units="px"
     inkscape:window-width="1267"
     inkscape:window-height="728"
     inkscape:window-x="78"
     inkscape:window-y="0"
     inkscape:window-maximized="0" />
  <metadata
     id="metadata5">
    <rdf:RDF>
      <cc:Work
         rdf:about="">
        <dc:format>image/svg+xml</dc:format>
        <dc:type
           rdf:resource="http://purl.org/dc/dcmitype/StillImage" />
        <dc:title></dc:title>
      </cc:Work>
    </rdf:RDF>
  </metadata>
  <g
     inkscape:label="Layer 1"
     inkscape:groupmode="layer"
     id="layer1">
    <path
       style="fill:#000000;stroke:#000000;stroke-width:0.264583;stroke-linejoin:round"
       id="path841"
       d="m 48.738081,7.609313 c -6.267873,0.05132 -12.54018,-0.08721 -18.803622,0.153968 -0.366247,0.0141 -0.598636,0.425352 -0.917869,0.605424 -0.570309,0.321697 -1.17466,0.580055 -1.747152,0.89785 -0.806077,0.447458 -4.56026,2.678286 -5.177565,3.091555 -0.948637,0.635086 -1.842703,1.348124 -2.764054,2.022186 -2.680231,2.226316 -5.247525,4.755913 -6.775352,7.950566 -1.096349,2.292445 -1.358853,4.312264 -1.846318,6.774553 -0.218138,1.10186 -0.427886,2.205368 -0.641828,3.308051 0.331574,3.914571 -0.02298,7.831066 -0.09761,11.745264 -0.02276,1.193538 0.01641,2.387719 -0.0062,3.58126 -0.02034,1.075859 -0.171479,2.150888 -0.122555,3.225829 0.05426,1.192286 0.287431,2.369674 0.431147,3.55451 0.866509,4.374814 0.581398,3.462682 1.883376,7.8368 0.390999,1.313598 0.732399,2.646627 1.23366,3.922228 0.556718,1.41673 1.295996,2.754783 1.93334,4.137118 0.0099,0.02143 2.925133,6.441127 3.109067,6.846165 1.272675,2.180947 1.425081,2.928445 3.451794,4.503753 2.683789,2.086031 6.162258,2.989593 9.404301,3.741206 7.987927,1.475472 16.190576,0.891259 24.273597,0.655296 1.101151,-0.05143 2.203307,-0.06202 3.305416,-0.06989 0.366757,-0.08053 0.756645,0.07628 1.123672,0.0016 0.203147,-0.04136 0.381235,-0.163967 0.577138,-0.231801 0.585772,-0.202832 1.154372,-0.298321 1.724824,-0.548309 1.466324,-0.156393 1.653096,-0.762059 2.645034,-1.70129 2.405089,-2.277295 -0.379679,0.741765 2.230454,-2.212118 0.453879,-0.536598 0.900038,-1.079822 1.361638,-1.609796 1.37505,-1.578729 1.613744,-1.680874 2.836106,-3.39947 1.532363,-2.154449 1.243613,-2.013984 2.640513,-4.390744 0.453482,-0.771581 0.942779,-1.521548 1.414168,-2.28232 0.393126,-0.761868 0.788742,-1.522455 1.179373,-2.285606 1.133295,-2.214036 0.922726,-1.697709 1.791128,-3.902979 0.51266,-1.30188 0.941647,-2.591824 1.591839,-3.83118 0.0056,-0.01 0.72458,-1.280073 0.760228,-1.366338 0.606417,-1.467516 0.560414,-3.227673 0.622421,-4.777496 0.0155,-0.60914 0.05401,-1.218129 0.04654,-1.827422 -0.0091,-0.741259 -0.09266,-1.48056 -0.09619,-2.221867 -0.0035,-0.744485 0.06316,-1.487824 0.07502,-2.232224 0.01241,-0.780198 -0.01815,-1.560756 -0.0021,-2.340893 0.128548,-6.290931 0.08998,1.833989 0.09683,-4.263895 0.09631,-2.533232 0.269613,-5.057831 0.289348,-7.593306 -0.02656,-2.541172 -1.226889,-4.608423 -2.492938,-6.731519 -1.596163,-2.751576 -3.472363,-5.325835 -5.182058,-8.002866 -0.55875,-1.011623 -1.407387,-1.766918 -2.193555,-2.58885 -0.473209,-0.494738 -0.922213,-1.012103 -1.388221,-1.513631 -0.830707,-0.858777 -1.605404,-1.913794 -2.682631,-2.493246 -0.918065,-0.493838 -1.503992,-0.57408 -2.505573,-0.825622 -2.273715,-0.477874 -4.581585,-0.768132 -6.884656,-1.063095 -1.269677,-0.166816 -2.547083,-0.266494 -3.826142,-0.32171 -0.186558,0.223982 -1.009193,-0.13936 -1.181389,-0.05605 -0.401246,0.19413 0.26593,0.201249 -0.31565,0.137637 C 52.950301,9.542709 52.77089,9.489845 52.613254,9.394918 51.974811,9.010457 51.452955,8.421091 50.86549,7.968257 50.189392,7.447101 50.192284,7.490872 49.423492,7.080679 48.100182,6.435727 46.651921,6.270838 45.204828,6.162094 44.846955,21.081548 31.428545,3.625789 25.537928,6.523651 c -0.48029,0.236277 -0.828691,0.471774 -1.353709,0.606714 -0.539184,0.364027 -1.228383,0.315851 -1.778918,0.64263 -0.51006,0.384326 -0.255366,0.220187 -0.757256,0.502851 -0.836341,0.233469 -1.125273,1.127824 -1.500589,1.822015 -0.495259,0.720202 -1.039466,1.398918 -1.479951,2.156633 -0.2664,0.364103 -0.238668,0.875082 -0.550278,1.210695 -0.05295,0.05703 -0.142319,0.06871 -0.19906,0.121964 -0.143974,0.135127 -0.244987,0.309793 -0.371651,0.461266 -0.69942,0.378689 -1.039387,1.200816 -1.32356,1.902258 -0.327311,1.444608 -0.823486,2.852298 -0.990367,4.32757 0.0947,0.333883 0.08426,0.717912 0.284115,1.001646 0.943622,1.33967 3.224496,2.527914 4.342222,3.307366 1.435179,1.000829 2.889114,1.979792 4.257933,3.069624 1.694571,1.349193 7.433344,6.608879 8.815319,7.862776 4.538966,4.498367 8.88883,9.230845 12.518627,14.505649 0.878502,1.276633 1.638838,2.571197 2.437903,3.893122 0.319606,0.504195 0.611889,1.026787 0.958821,1.512583 2.66229,3.727905 0.213117,-0.167674 2.832076,3.934767 1.337755,2.095508 2.473471,4.260606 3.579892,6.482908 1.015137,2.046115 1.891207,4.156652 2.957793,6.176891 0.507029,1.053251 0.832577,2.183762 1.122913,3.313054 0.10229,0.487984 0.05821,0.246819 0.133424,0.723276 0,0 18.428943,-0.31886 18.428943,-0.31886 v 0 C 77.786536,75.124896 77.855052,75.435983 77.695448,74.810127 77.28065,73.547424 76.705612,72.33813 76.091641,71.161488 74.901866,68.878319 73.232348,66.942689 71.593473,64.969868 70.511145,63.415737 69.863646,62.560919 68.919605,60.879846 68.081844,59.38803 67.373092,57.827227 66.578482,56.31199 66.236399,55.659673 65.947445,54.974542 65.535716,54.363791 65.154957,53.79898 64.654773,53.324606 64.214303,52.805014 62.550103,51.167037 61.965204,50.555008 60.120974,48.916663 59.109924,48.018488 58.064545,47.159624 57.046793,46.269052 52.818902,42.569489 48.658205,38.781447 44.904038,34.59114 43.652707,33.129346 42.427016,31.645211 41.150045,30.205762 40.048081,28.963588 38.832654,27.822464 37.768524,26.54773 c -2.112727,-2.53085 -2.088502,-2.877634 -3.607879,-5.231275 -0.2799,-0.433591 -0.413875,-0.588439 -0.683488,-0.918414 -0.0043,-1.236557 0.301091,-2.504463 1.056598,-3.501078 0.465994,-0.580948 1.101323,-1.011113 1.502375,-1.645483 0.458073,-0.651701 0.601409,-1.285451 0.993527,-1.957714 0.511569,-0.725326 1.079341,-1.407705 1.574583,-2.144801 0.447492,-0.589813 0.797181,-0.54283 1.397452,-0.894155 0.358032,-0.185683 0.688893,-0.226402 1.067321,-0.359424 0.447821,-0.157415 0.86337,-0.405751 1.331143,-0.509402 0.21754,-0.09596 0.628946,-0.29227 0.874845,-0.348209 0.449897,-0.102346 0.921932,-0.02765 1.376259,-0.07803 -5.796084,-0.0055 -11.592166,-0.01103 -17.38825,-0.01654 1.434383,-0.008 2.883186,-0.02821 4.292079,0.282504 1.280829,0.309221 2.444395,0.892729 3.024248,2.149122 0.136358,0.20025 0.218414,0.450166 0.407162,0.602048 0.253241,0.20378 1.235636,0.179357 1.518941,0.402295 1.473941,-0.01981 2.948932,-0.01767 4.420656,0.07839 2.371926,0.165286 4.727469,0.472622 7.07345,0.856708 0.332798,0.04712 1.642861,0.218132 2.034294,0.323196 1.111123,0.298236 1.923071,1.221427 2.788703,1.920881 0.246801,0.270205 1.069083,1.160741 1.30379,1.455579 0.196046,0.246272 0.352766,0.522436 0.551402,0.766626 0.537115,0.660298 1.240446,1.161324 1.778289,1.821465 1.03792,0.942205 2.098772,1.886585 2.98456,2.979134 1.142553,1.40925 2.037967,2.999674 2.961466,4.553437 0.43086,1.057621 0.730996,1.657035 0.983683,2.739075 0.2593,1.110358 0.169858,2.263322 0.350788,3.384679 0.520525,2.461816 1.134549,4.911268 1.209905,7.442367 0.05578,1.396952 0.195569,2.791788 0.191,4.189846 -0.0026,0.773137 -0.08393,1.544005 -0.12315,2.316149 -0.03728,0.733984 -0.02894,1.47138 -0.106352,2.20222 -0.04258,0.40196 -0.560999,3.330231 -0.660281,3.897485 -0.31082,1.186817 -0.366565,1.5695 -0.80404,2.657599 -0.421457,1.048258 -1.060431,2.005325 -1.1572,3.164919 -0.212511,1.27821 -0.318635,2.587109 -0.603147,3.851841 -0.460198,2.045716 -1.178525,4.032936 -2.157891,5.887207 -0.419656,0.743273 -0.792618,1.514917 -1.258967,2.229818 -0.915667,1.403686 -2.18031,2.888666 -3.257505,4.179457 -0.800201,0.958865 -1.952826,2.358829 -2.858566,3.228514 -0.540978,0.519446 -1.13632,0.979138 -1.704478,1.468707 -0.379322,0.263084 -2.33413,1.645606 -2.894102,1.946604 -1.093425,0.587734 -2.260087,0.748096 -3.429643,1.094933 -0.521989,0.09455 -1.058193,0.262353 -1.5908,0.275505 -0.557445,0.01376 -1.127082,-0.106312 -1.687557,-0.02907 -1.077823,0.01947 -2.155079,0.05677 -3.231711,0.111447 -6.215004,0.179168 0.483926,-0.01966 16.294412,0.04511 0.383313,0.0016 -0.766127,0.02973 -1.149403,0.03532 -1.762016,0.02569 -3.525173,-0.03604 -5.278699,-0.218173 -4.282501,-0.570555 -8.80886,-1.397357 -12.115541,-4.43965 -0.759573,-0.698841 -1.373372,-1.541161 -2.060059,-2.311741 -1.741971,-2.480262 -2.82308,-3.803428 -4.133945,-6.623735 -0.603403,-1.29821 -1.052679,-2.663553 -1.522243,-4.015944 -1.285026,-3.700999 -2.293202,-7.502006 -2.493603,-11.433019 -0.02728,-1.16088 -0.01979,-2.3231 -0.08186,-3.482641 -0.677736,-12.660945 0.09277,6.986442 -0.405652,-6.776802 -0.09665,-2.388656 -0.316349,-5.20918 -0.102938,-7.592973 0.117448,-1.311907 0.426138,-2.599613 0.639209,-3.899421 0.143402,-1.070568 0.216443,-2.152938 0.430207,-3.211706 0.303006,-1.500769 1.279811,-4.847026 1.985537,-6.27327 1.504278,-3.040092 3.977418,-5.33389 6.641616,-7.346185 0.958543,-0.621877 1.886087,-1.29436 2.875623,-1.86563 2.148237,-1.240199 3.852839,-1.97175 6.226429,-2.695484 0.887897,-0.270729 1.793881,-0.489394 2.70891,-0.645535 0.64828,-0.110622 1.311373,-0.101581 1.967058,-0.152371 -5.920597,0.02118 -11.841191,0.04236 -17.761788,0.06354 0,0 18.462863,-2.92423 18.462863,-2.92423 z" />
  </g>
</svg>
