<?xml version="1.0" encoding="UTF-8" standalone="no"?>
<svg
   xmlns:dc="http://purl.org/dc/elements/1.1/"
   xmlns:cc="http://creativecommons.org/ns#"
   xmlns:rdf="http://www.w3.org/1999/02/22-rdf-syntax-ns#"
   xmlns:svg="http://www.w3.org/2000/svg"
   xmlns="http://www.w3.org/2000/svg"
   xmlns:sodipodi="http://sodipodi.sourceforge.net/DTD/sodipodi-0.dtd"
   xmlns:inkscape="http://www.inkscape.org/namespaces/inkscape"
   width="350"
   height="350"
   viewBox="0 0 92.604165 92.604169"
   version="1.1"
   id="svg8"
   inkscape:version="1.0.1 (3bc2e813f5, 2020-09-07)"
   sodipodi:docname="U 0035 Digit Five.svg">
  <defs
     id="defs2" />
  <sodipodi:namedview
     id="base"
     pagecolor="#ffffff"
     bordercolor="#666666"
     borderopacity="1.0"
     inkscape:pageopacity="0.0"
     inkscape:pageshadow="2"
     inkscape:zoom="0.98994949"
     inkscape:cx="309.50916"
     inkscape:cy="110.64312"
     inkscape:document-units="mm"
     inkscape:current-layer="layer1"
     inkscape:document-rotation="0"
     showgrid="false"
     units="px"
     inkscape:window-width="1267"
     inkscape:window-height="728"
     inkscape:window-x="78"
     inkscape:window-y="0"
     inkscape:window-maximized="0" />
  <metadata
     id="metadata5">
    <rdf:RDF>
      <cc:Work
         rdf:about="">
        <dc:format>image/svg+xml</dc:format>
        <dc:type
           rdf:resource="http://purl.org/dc/dcmitype/StillImage" />
        <dc:title></dc:title>
      </cc:Work>
    </rdf:RDF>
  </metadata>
  <g
     inkscape:label="Layer 1"
     inkscape:groupmode="layer"
     id="layer1">
    <path
       style="fill:#000000;stroke:#000000;stroke-width:0.264583;stroke-linejoin:round"
       id="path877"
       d="m 3.0349437,70.994784 c 0.1661853,0.0048 0.3345164,-0.01265 0.4985559,0.01442 0.4937541,0.08142 1.0470812,0.331708 1.4818601,0.53883 1.4360001,0.684085 2.7542951,1.51798 4.0765331,2.396656 2.2200182,1.606825 4.2001232,3.558717 6.6046682,4.905238 0.425874,0.238484 0.875099,0.432641 1.312648,0.648959 1.948573,0.974013 4.071309,1.276916 6.202337,1.550479 1.959435,0.313352 3.935145,0.489167 5.916422,0.573339 8.040251,0.928066 15.942881,-0.05417 23.924185,-0.262953 1.20437,-0.031 2.409032,-0.01188 3.613545,-0.0099 -33.734896,1.468385 -22.110986,-1.093915 -16.183147,0.147159 0.746112,0.156207 1.48209,0.365736 2.227638,0.527375 6.967069,1.109543 14.73192,0.301723 21.295378,0.156673 0.428525,-0.0095 0.83429,-0.197474 1.253617,-0.286287 0.441799,-0.09357 0.886304,-0.173874 1.329455,-0.26081 2.030259,-0.405488 3.974978,-1.062226 5.60855,-2.352795 1.856531,-1.381767 3.558762,-3.077654 4.869548,-4.993412 0.331967,-0.485185 0.607618,-1.006589 0.911428,-1.509884 1.029409,-2.101789 1.514809,-4.368668 1.425006,-6.706095 -0.03907,-1.01683 -0.220469,-2.193765 -0.356285,-3.20382 -0.300598,-2.036705 -0.864989,-4.0278 -1.066527,-6.078673 -0.302176,-0.601519 -0.130183,-1.328885 -0.373232,-1.941414 -0.210831,-0.531334 -0.538274,-1.008872 -0.824365,-1.503762 -0.283504,-0.490419 -0.552178,-0.992272 -0.883973,-1.451399 -0.848154,-1.173649 -1.657988,-1.923203 -2.66704,-2.953922 C 69.329741,45.967934 64.804146,44.78767 60.27707,43.192023 57.443218,42.08153 54.468428,41.485712 51.477232,40.991754 42.632878,39.54538 33.757896,40.246981 24.793246,40.321291 c -0.494414,0.08755 -0.988772,0.175406 -1.483241,0.262642 -1.206684,0.212889 -1.537184,0.217887 -2.677064,0.612923 -1.105995,0.383294 -2.162765,0.930881 -3.202454,1.461799 -0.993466,0.592032 -2.029333,1.142225 -2.935293,1.86904 -2.090515,1.677139 0.796639,-0.531878 -0.993315,0.825601 -0.137215,0.07429 -0.262666,0.176474 -0.411644,0.222866 -0.132546,0.04127 -0.278994,0.0069 -0.415035,0.03456 -0.437329,0.08892 -0.867467,0.213712 -1.291497,0.352859 -0.561003,0.184094 -1.213587,0.498562 -1.7443912,0.738719 -1.542929,0.808384 -3.323163,1.185347 -4.6979211,2.282375 -0.087513,0.09994 -0.5608259,0.588542 -0.5828173,0.787678 -0.8786016,7.955894 8.8102616,1.69686 18.7745446,0.759852 0.282001,-0.02652 0.04478,-0.564732 0.07094,-0.846767 0.03808,-0.410491 0.08119,-0.820502 0.121783,-1.230755 0.06244,-0.559284 0.136332,-1.117407 0.187314,-1.67785 0.06685,-0.734777 0.08899,-1.473422 0.166106,-2.207193 0.313478,-2.982688 0.908314,-5.910154 1.654016,-8.810739 0.434623,-1.309796 0.807977,-2.651757 1.311629,-3.938413 0.109366,-0.279395 0.26012,-0.541118 0.374661,-0.818428 0.244517,-0.592002 0.269063,-0.760536 0.429882,-1.364559 0.184139,-1.013227 0.06454,-2.038076 0.09525,-3.054736 0.04033,-1.334957 0.244661,-2.68632 0.445157,-4.004185 0.165682,-1.715294 0.655738,-3.363969 1.035375,-5.036336 0.08415,-0.9644 0.512725,-1.788416 0.942306,-2.633637 0.407678,-0.456024 0.715372,-0.98369 0.904877,-1.565533 0.0472,-0.144909 0.01987,-0.326301 0.120028,-0.441167 0.04955,-0.05682 0.146931,0.03384 0.220396,0.05076 0.142065,0.06031 0.272894,0.163102 0.426198,0.180941 0.69663,0.08106 1.399493,-0.09422 2.099345,-0.139717 1.861015,-0.120991 3.724733,-0.151103 5.588735,-0.189211 0.720831,-0.008 1.441633,-0.01944 2.162493,-0.02413 1.133342,-0.0074 3.19255,-0.0048 4.334928,0.0024 0.663157,0.0042 2.652583,0.01773 1.989415,0.01945 -14.053396,0.03648 -20.009818,-0.07068 -13.558671,0.03675 1.962389,0.04666 3.923909,0.06002 5.886617,0.05623 3.359994,-0.05631 6.7105,0.220952 10.054455,0.512275 3.199768,0.26582 6.374916,0.729254 9.54501,1.227219 1.457421,0.220946 2.917783,0.42572 4.387755,0.540748 1.237435,-0.02748 2.465599,0.138043 3.699872,0.220478 0.985425,0.155228 0.610868,0.169215 0.523653,-1.063285 -0.02717,-0.38396 0.05474,-0.77999 -0.03534,-1.154221 -0.02053,-0.08533 -0.171101,-0.03921 -0.256651,-0.05881 -0.936684,-0.01597 -1.873766,-0.01464 -2.810643,-0.02253 32.070907,-0.272662 20.1696,0.0074 13.078394,0.05237 -1.90432,0.0064 -3.808558,-0.005 -5.71273,-0.02779 -6.845829,0.06855 -13.696338,0.01809 -20.539418,0.01919 -0.982308,1.58e-4 -1.86658,0.06043 -2.829066,0.256456 -0.24009,0.0547 -0.479911,0.110601 -0.720277,0.164087 -0.591553,0.131633 -1.141064,0.212567 -1.746063,0.241429 -0.284159,0.01356 -1.137007,0.03925 -0.852524,0.03979 5.231408,0.0099 10.462829,-0.0078 15.694242,-0.01166 -3.196969,-0.0017 -6.391924,-0.115528 -9.586841,-0.215527 -0.876668,1.936684 -16.420317,-0.786258 -22.841186,0.330734 -1.116015,0.193966 -2.244595,0.278314 -3.375834,0.295878 -1.03609,0.0406 -2.087004,-0.107235 -3.103002,0.118542 -0.168407,0.03184 -0.342363,0.04211 -0.50522,0.09551 -1.478546,0.484845 0.437368,-0.01156 -0.858164,0.384719 -0.429187,0.13128 -0.887813,0.234165 -1.326524,0.334391 -2.185957,0.180253 -4.3774,0.23828 -6.570108,0.240896 5.559607,-0.01384 11.119212,-0.02768 16.678819,-0.04151 -0.08728,0.006 -0.240988,-0.06705 -0.261847,0.01791 -0.03792,0.154432 0.123568,0.296748 0.145936,0.454186 0.07031,0.494913 0.0031,1.010654 0.130836,1.493931 0.05599,0.211758 0.429737,0.0015 0.777521,-0.139832 1.463095,-0.410505 2.995909,-0.45099 4.5052,-0.498834 6.371336,-0.12004 2.934528,-0.05053 -15.999026,0.0179 -0.27868,10e-4 0.557331,0.01086 0.835704,0.024 0.688218,0.03249 1.36833,0.092 2.049876,0.189501 6.73371,1.271116 1.912488,0.40471 19.352536,0.042 0.353655,-0.0074 0.671941,-0.221494 1.009938,-0.325814 0.462698,-0.142809 0.924703,-0.288621 1.392015,-0.415531 1.436667,-0.390163 2.404227,-0.584881 3.881938,-0.912714 3.788518,-0.75728 7.6489,-0.98837 11.480048,-1.427834 0.441857,-0.223277 1.05078,-0.006 1.504961,-0.232716 0.1344,-0.06709 0.455435,-0.309379 0.30667,-0.3302 -6.268357,-0.877312 -12.557765,-1.60562 -18.852729,-2.265488 -0.213725,-0.0224 -0.398774,0.161549 -0.603792,0.225963 -0.315839,0.09923 -0.638207,0.176347 -0.95731,0.26452 -2.289157,0.486342 -4.599422,0.844208 -6.896016,1.288858 0,0 17.781196,2.427037 17.781196,2.427037 v 0 c 2.167276,-0.535506 4.368054,-0.932878 6.569274,-1.299523 0.415316,-0.057 0.828727,-0.130228 1.245949,-0.170996 0.363244,-0.03549 1.454724,-0.0061 1.093406,-0.05759 -6.000834,-0.855864 -12.030217,-1.502841 -18.031131,-2.358137 -0.0716,-0.0102 0.1373,-0.150026 0.08476,-0.199718 -0.183663,-0.173694 -0.612746,0.709134 -0.732155,0.197639 -3.370146,0.634124 -6.77155,1.093234 -10.145003,1.70991 -2.141704,0.397509 -4.290904,0.868354 -6.456651,1.120942 -0.465574,0.0543 -1.871294,0.09582 -1.40259,0.100474 13.863198,0.137772 22.770393,-0.08906 16.320801,0.07072 -0.483081,-0.08658 -0.959913,-0.209708 -1.446096,-0.276716 -0.55635,-0.07668 -1.11728,-0.138772 -1.678884,-0.141437 -17.681765,-0.08392 -12.444312,-0.371525 -19.443982,0.03595 -1.643391,0.148959 -3.280636,0.367306 -4.842728,0.929172 -0.221504,0.06147 -1.142486,0.258537 -1.256367,0.535933 -0.356946,0.869466 -0.579478,2.628086 0.836297,2.645626 6.13681,0.07603 12.274554,0.01346 18.411832,0.02019 2.433947,-0.105916 4.893997,-0.08135 7.294054,-0.545991 0.889807,-0.24302 1.755405,-0.555083 2.686778,-0.523398 1.060637,0.06296 2.129234,0.01117 3.18817,-0.06271 1.028835,-0.122624 2.047233,-0.316453 3.077771,-0.425385 6.347529,-0.307854 16.564025,-1.60577 -12.176614,-0.280945 3.250044,0.02038 6.498796,0.07408 9.74603,0.220623 6.681512,-0.0033 13.398725,0.599189 20.044325,-0.09263 0.804262,-0.08373 1.566834,-0.38137 2.372535,-0.455608 0.887817,-0.0523 0.550973,-0.04352 1.54501,-0.04852 0.330404,-0.0017 1.321631,-7.94e-4 0.991222,-7.14e-4 -28.727267,0.0058 -20.833947,-0.04998 -14.779503,0.01923 2.015903,-0.02083 4.031861,-0.03391 6.047883,-0.02593 7.507779,0.05845 15.006899,0.46772 22.521955,0.05858 0.988451,-0.01096 1.980274,-0.01234 2.96419,-0.116164 0.140669,-0.03957 0.346708,0.0065 0.422003,-0.118721 0.223364,-0.371522 0.343667,-0.808722 0.394422,-1.239238 0.158433,-1.343843 -0.332531,-1.483213 -1.395373,-1.694637 -0.670692,-0.133854 -1.318643,-0.159117 -1.99531,-0.239378 -0.364117,-0.04319 -0.716613,-0.162866 -1.081032,-0.203447 -0.162068,-0.01805 -0.326094,0.0056 -0.48914,0.0085 -1.775908,0.01515 -3.551428,-0.05525 -5.319493,-0.228963 -3.453736,-0.351144 -6.87093,-0.969061 -10.338422,-1.18831 -1.548222,-0.116102 -2.556467,-0.175521 -4.092061,-0.353521 -1.585415,-0.183775 -3.161046,-0.558978 -4.766781,-0.482089 -2.15415,-0.0078 -4.307607,0.0043 -6.461718,0.03621 -9.400698,0.103781 -18.803119,-0.03481 -28.203826,0.105527 -2.080548,0.03515 -4.166414,0.05676 -6.242721,0.210561 -0.766182,0.05675 -2.389941,0.151083 -3.17326,0.525335 -0.318768,0.152299 -0.539116,0.456711 -0.808674,0.685067 -0.355945,0.811958 -0.708758,1.617572 -1.117576,2.404982 -0.472954,1.020854 -0.959321,2.05823 -0.942154,3.210537 -0.07608,1.695461 -0.10808,3.390935 -0.172361,5.086293 -0.179515,2.31252 -0.6042992,4.592722 -1.2457222,6.820984 -0.170055,0.750223 -0.204254,1.447144 -0.283658,2.2103 -0.141074,1.355881 -0.406111,2.700858 -0.423618,4.069328 -0.234372,2.913976 -0.526979,5.923476 -1.342233,8.74304 -0.418959,1.44897 -0.862755,2.329725 -1.4609547,3.659029 -0.2216714,0.362291 -0.4154856,0.743177 -0.6650144,1.086876 -0.1419735,0.195554 -0.7447041,0.51951 -0.5030613,0.522023 6.1372606,0.06385 12.2881486,-0.778946 18.4097146,-0.335719 0.564994,0.04091 -0.584858,1.948365 -0.07688,1.697675 0.06017,-0.02969 0.111077,-0.0753 0.166619,-0.112948 1.29904,-0.72562 2.639025,-1.388544 4.039661,-1.895231 1.085789,-0.330494 2.712524,-0.646354 3.691961,-1.176176 0.246819,-0.133514 0.615966,-0.529016 0.823381,-0.737947 0.975037,-0.951114 2.157944,-1.648873 3.342462,-2.308143 2.122639,-1.022623 4.383096,-1.597562 6.742277,-1.733598 -5.162452,-0.02109 -10.324962,-0.03109 -15.487359,-0.06326 -0.525436,-0.0033 1.050795,-0.03231 1.576165,-0.02341 2.259759,0.03824 4.517597,0.282921 6.756263,0.572852 0.217474,0.03623 2.824882,0.468362 3.090322,0.520948 2.02351,0.400878 4.004218,1.002197 6.025224,1.415021 3.398481,0.895615 0.759074,0.180353 4.358209,1.214379 2.990212,0.859084 5.954842,1.736019 8.428572,3.720045 0.424876,0.421909 0.877369,0.817721 1.274633,1.265726 1.489514,1.679779 2.188503,3.31605 2.21376,5.545125 0.02735,0.138705 0.337244,1.716262 0.360344,1.808334 0.36875,1.469694 1.02724,2.848705 1.457209,4.298971 0.700886,3.240172 0.742238,5.653532 -0.862875,8.659315 -0.284165,0.43107 -0.536967,0.884534 -0.852493,1.293204 -1.514422,1.961505 -3.656608,3.186674 -5.785458,4.368202 -1.587379,0.799881 -3.198765,1.48676 -4.979125,1.743284 -0.430512,0.07373 -0.858481,0.164272 -1.291535,0.221194 -0.476234,0.0626 -1.914739,0.131117 -1.434449,0.137123 28.853154,0.360889 20.065884,0.328483 13.924444,-0.07963 -0.972833,-0.1222 -1.85493,-0.324511 -2.787473,-0.618352 -6.122225,-1.929106 -14.410761,2.654091 -19.25275,-0.399246 -1.073366,0.01397 -2.14527,0.07213 -3.216491,0.139743 -6.696179,0.410485 -18.492884,0.765611 11.366275,0.270946 -1.981624,-0.03985 -3.968216,-0.09591 -5.932956,-0.379539 -2.205069,-0.329727 -4.455636,-0.418889 -6.607016,-1.04848 -1.259364,-0.424331 -1.542357,-0.462291 -2.735557,-1.10366 -1.987176,-1.068146 -3.702658,-2.554753 -5.40804,-4.011194 -1.512618,-1.234927 -3.045426,-2.464795 -4.440383,-3.83178 0,0 -18.5226763,2.470261 -18.5226763,2.470261 z" />
    <path
       style="fill:#000000;stroke:#000000;stroke-width:0.264583;stroke-linejoin:round"
       id="path879"
       d="m 11.113109,75.489049 c 0.0408,1.777228 0.67864,2.756181 1.96147,3.921154 1.566128,1.187181 3.286876,2.138556 5.005642,3.081065 2.18675,1.006679 4.581412,1.314305 6.955206,1.513113 7.79779,0.385151 15.612941,0.196469 23.417702,0.109013 6.123318,-0.03233 14.677072,-0.111998 -14.080614,0.0057 -0.340294,0.0013 0.680035,0.02799 1.019823,0.04661 0.417232,0.02286 1.444509,0.09533 1.872731,0.124947 1.626693,0.12187 3.25687,0.179158 4.887693,0.198414 7.308369,0.100137 14.617838,-0.01527 21.926553,0.04199 1.127164,0.0104 2.254064,-0.01196 3.381073,-0.02877 1.713156,-0.08741 3.446007,0.129323 5.148363,-0.09307 1.072843,-0.08414 1.877793,-0.716677 2.499955,-1.545624 0.375621,-0.653519 0.560409,-1.499899 1.292085,-1.84326 0.311491,-0.333282 0.56787,-0.659183 1.043114,-0.730155 0.09913,-0.01479 0.207521,0.01961 0.300101,-0.01878 0.128027,-0.05311 0.22396,-0.163364 0.335939,-0.245047 0.913853,-1.085614 1.721226,-2.323983 2.287694,-3.62853 0.548663,-0.977884 0.460393,-2.152851 0.813138,-3.175979 0.124878,-0.697203 0.398116,-1.340683 0.543169,-2.038141 0.116385,-1.376177 -0.100209,-2.751417 -0.14468,-4.126949 -0.03642,-1.812557 -0.02827,-3.623757 -0.19585,-5.430343 -0.04632,-0.232309 -0.07117,-0.469955 -0.138961,-0.696928 -0.252971,-0.846958 -0.663644,-1.658721 -0.998842,-2.473042 -0.122579,-0.297791 -0.22833,-0.602234 -0.342493,-0.903348 -0.143293,-0.341474 -0.286589,-0.682951 -0.429882,-1.024425 -0.776282,-1.765445 -1.366953,-3.603111 -2.100167,-5.385413 -0.794631,-1.667328 -1.233313,-1.709582 -3.003976,-1.970268 -3.020536,-0.68208 -5.818949,-2.069166 -8.602191,-3.387108 -1.527905,-0.780828 -3.152164,-1.2909 -4.793062,-1.761432 -0.213847,-0.05245 -0.424778,-0.118692 -0.641543,-0.157358 -0.540819,-0.09647 -1.839807,-0.219986 -2.296819,-0.271579 -1.657281,-0.1871 -3.306673,-0.419844 -4.957336,-0.657313 -2.68627,-0.327845 -5.374749,-0.64797 -8.074197,-0.845878 -7.426648,-0.394867 -15.473908,-2.462763 -22.160226,1.072354 -0.834907,0.405664 -1.632125,0.894635 -2.505815,1.218133 -0.793345,0.293749 -1.643387,0.443445 -2.453689,0.685083 -0.929777,0.286327 -1.901723,0.369282 -2.851811,0.550545 -0.714278,0.136277 -1.404879,0.321784 -2.12586,0.428144 -1.307667,0.293111 -2.596245,0.657362 -3.9013079,0.963993 -0.990619,0.09777 -1.8275286,0.643269 -2.7666701,0.918919 0,0 18.223526,2.239704 18.223526,2.239704 v 0 c 0.807278,-0.35374 1.638519,-0.560359 2.496045,-0.759982 1.31115,-0.341653 2.642295,-0.601723 3.968749,-0.875477 1.520003,-0.394814 3.052956,-0.736565 4.56419,-1.166431 0.361609,-0.09551 0.728895,-0.171665 1.084829,-0.286541 1.403339,-0.452919 2.619348,-1.367851 4.034498,-1.796283 0.57816,-0.168667 1.053754,-0.329292 1.646727,-0.422608 0.227484,-0.0358 0.918382,-0.06073 0.688102,-0.06151 -29.815699,-0.100907 -21.76013,0.0209 -15.519355,0.0013 2.955243,0.04342 5.913602,0.16841 8.846955,0.550172 2.225808,0.32694 4.424506,0.817565 6.653385,1.109041 0.460528,0.08557 0.913474,0.209102 1.374087,0.294208 1.451313,0.268158 2.918653,0.459073 4.294693,1.041839 0.162329,0.06339 2.841558,1.108835 2.930921,1.146871 1.745793,0.743088 3.40532,1.664417 5.08295,2.545316 0.439489,0.209275 0.682573,0.409972 1.164037,0.389236 0.126358,-0.0054 0.240364,-0.08351 0.365504,-0.101835 0.418039,-0.06121 0.753927,0.10428 1.066861,0.367823 1.250563,1.422697 2.109896,3.186086 2.607942,5.004922 0.497591,1.594427 1.003919,3.185943 1.457386,4.793724 0.448982,1.670936 0.625099,3.36677 0.465375,5.098655 -0.06226,1.249035 -0.185629,2.506493 -0.507253,3.718777 -0.187587,0.706456 -0.415507,1.405028 -0.505445,2.133304 -0.06588,0.915718 -0.09117,1.843799 -0.485245,2.694247 -0.573559,1.061177 -1.238978,2.084945 -2.464057,2.441675 -0.139089,0.05041 -0.28893,0.07764 -0.417264,0.151244 -0.565031,0.324077 -0.874032,0.993026 -1.381098,1.388081 -0.39396,0.607385 -0.707652,1.361411 -1.309915,1.780894 -0.6355,0.332222 -1.308357,0.322792 -2.01521,0.343673 -1.64642,-0.01556 -3.293372,0.02986 -4.939903,-0.0021 -1.242933,-0.01521 -2.485898,-0.03727 -3.728921,-0.02519 -6.305341,0.06637 0.07597,-0.0026 16.960662,0.01114 0.223718,1.8e-4 -0.44741,0.0052 -0.671118,0.0074 -0.788202,0.0079 -1.576454,0.01466 -2.364701,0.0091 -1.672142,-0.01064 -3.344931,-0.01122 -5.015743,-0.08842 -1.006549,-0.04975 -2.030894,-0.176147 -3.037342,-0.183486 -6.953113,-0.05071 -13.893567,-0.06747 -20.841269,-0.06595 -6.548559,-0.03263 -3.35008,-0.01458 15.469989,-0.01582 0.299445,-2.1e-5 -0.598861,0.0065 -0.898295,0.0091 -1.035174,0.009 -2.070589,0.01767 -3.105642,-0.0073 -2.265354,-0.06625 -4.555913,-0.163108 -6.74194,-0.818994 -1.650318,-0.729057 -3.263892,-1.714111 -4.748919,-2.738469 -0.687822,-0.43629 -1.754336,-0.914429 -1.193171,-1.837661 0,0 -18.681066,-0.457737 -18.681066,-0.457737 z" />
  </g>
</svg>
