<?xml version="1.0" encoding="UTF-8" standalone="no"?>
<svg
   xmlns:dc="http://purl.org/dc/elements/1.1/"
   xmlns:cc="http://creativecommons.org/ns#"
   xmlns:rdf="http://www.w3.org/1999/02/22-rdf-syntax-ns#"
   xmlns:svg="http://www.w3.org/2000/svg"
   xmlns="http://www.w3.org/2000/svg"
   xmlns:sodipodi="http://sodipodi.sourceforge.net/DTD/sodipodi-0.dtd"
   xmlns:inkscape="http://www.inkscape.org/namespaces/inkscape"
   width="350"
   height="350"
   viewBox="0 0 92.604165 92.604169"
   version="1.1"
   id="svg8"
   inkscape:version="1.0.1 (3bc2e813f5, 2020-09-07)"
   sodipodi:docname="U 0051 Uppercase R.svg">
  <defs
     id="defs2" />
  <sodipodi:namedview
     id="base"
     pagecolor="#ffffff"
     bordercolor="#666666"
     borderopacity="1.0"
     inkscape:pageopacity="0.0"
     inkscape:pageshadow="2"
     inkscape:zoom="0.98994949"
     inkscape:cx="309.50916"
     inkscape:cy="110.64312"
     inkscape:document-units="mm"
     inkscape:current-layer="layer1"
     inkscape:document-rotation="0"
     showgrid="false"
     units="px"
     inkscape:window-width="1267"
     inkscape:window-height="728"
     inkscape:window-x="78"
     inkscape:window-y="0"
     inkscape:window-maximized="0" />
  <metadata
     id="metadata5">
    <rdf:RDF>
      <cc:Work
         rdf:about="">
        <dc:format>image/svg+xml</dc:format>
        <dc:type
           rdf:resource="http://purl.org/dc/dcmitype/StillImage" />
        <dc:title></dc:title>
      </cc:Work>
    </rdf:RDF>
  </metadata>
  <g
     inkscape:label="Layer 1"
     inkscape:groupmode="layer"
     id="layer1">
    <circle
       id="path885"
       style="fill:#000000;stroke:#000000;stroke-width:0.264583"
       cx="22.717909"
       cy="14.967093"
       r="0.11774057" />
    <path
       style="fill:#000000;stroke:#000000;stroke-width:0.264583;stroke-linejoin:round"
       id="path1476"
       d="m 17.196203,13.790596 c 1.08535,2.925812 1.525241,6.05427 1.710581,9.158504 0.07274,1.218387 0.06746,2.440181 0.101191,3.66027 -0.376824,4.371997 -0.12448,2.443287 -0.799595,6.567604 -0.155781,0.951675 -0.430166,1.890565 -0.474134,2.853899 -0.05662,1.24052 0.12415,2.480556 0.174026,3.721365 0.221807,5.51802 0.176518,3.504297 0.03297,9.235429 -0.260223,3.962109 -1.09004,7.836686 -2.021673,11.683166 -0.257368,1.062607 -0.974973,3.664914 -1.062896,4.842069 -0.0664,0.888997 0.03406,1.782622 0.05109,2.673932 0.190803,4.181771 -0.584052,8.292499 -1.124618,12.414617 -0.09695,1.382631 -0.212373,2.761716 -0.368961,4.138893 0,0 12.712224,-0.0055 12.712224,-0.0055 v 0 C 25.95826,83.362961 25.832592,81.988975 25.747003,80.609271 25.260204,76.506919 24.65809,72.387934 25.246108,68.253205 c 0.130687,-0.877138 0.314347,-1.748009 0.392063,-2.631421 0.101224,-1.150615 -7.67e-4,-3.767632 -0.025,-4.847278 -0.0878,-3.910354 -0.186289,-7.828076 0.196748,-11.729169 0.352565,-2.898654 0.727597,-6.326534 1.23648,-9.219539 0.217131,-1.23439 0.590869,-2.4398 0.77096,-3.680134 0.137872,-0.949564 0.133871,-1.914507 0.180511,-2.872894 0.09715,-1.996345 0.149665,-4.661545 0.198184,-6.636112 0.375334,-4.324479 0.664272,-8.738229 2.181719,-12.846043 0,0 -13.18157,0 -13.18157,0 z" />
    <path
       style="fill:#000000;stroke:#000000;stroke-width:0.264583;stroke-linejoin:round"
       id="path1478"
       d="m 32.647742,15.609822 c 1.409758,-0.807384 3.171711,-1.075473 4.73669,-1.333839 1.274953,-0.210485 2.554753,-0.397744 3.840009,-0.531653 4.31837,-0.449929 5.402569,-0.372983 9.821426,-0.456409 -0.826363,0.06652 -3.247776,-0.110949 -2.479088,0.199562 1.340615,0.54154 2.879389,0.291418 4.304125,0.53766 2.824846,0.488228 5.64623,1.31752 8.167971,2.704627 0.521663,0.286946 1.003281,0.641337 1.504921,0.962006 1.556041,1.181332 2.94183,2.515056 3.159678,4.537894 -0.151905,2.086379 -1.255184,3.960844 -2.8297,5.308277 -0.462765,0.396025 -0.984377,0.717597 -1.476569,1.076396 -1.262882,0.856689 -2.626833,1.542693 -3.943268,2.308797 -0.34336,0.199818 -0.709562,0.368551 -1.020003,0.616439 -0.373956,0.298601 -0.677688,0.675857 -1.018772,1.011518 -0.42567,0.418896 -0.854316,0.834755 -1.281473,1.252133 -1.304814,1.297858 -1.91077,2.010468 -3.479929,3.080017 -2.85727,1.947534 -6.141387,3.036681 -9.399601,4.087738 -4.121298,1.231228 -8.400484,1.840453 -12.645291,2.478223 -3.597722,0.485415 -7.214342,0.820586 -10.829171,1.150982 -4.515291,-0.09456 -10.4264561,-0.01519 11.006301,-0.05508 0.28775,-5.3e-4 -0.333607,-0.05189 -0.532517,0.107166 0,0 -13.097277,1.524432 -13.097277,1.524432 v 0 c 0.270992,0.241826 0.470172,0.367448 0.848319,0.368146 4.785685,0.0088 9.411631,0.77107 14.004377,-0.17223 2.928923,-0.554871 5.878006,-0.99037 8.821199,-1.461532 2.709596,-0.413004 2.644924,-0.414835 5.411301,-0.787816 2.725494,-0.367471 5.493374,-0.650192 8.022812,-1.819801 4.554752,-2.100069 9.083612,-4.347274 13.010293,-7.511815 0.560639,-0.391101 1.108712,-0.800859 1.681916,-1.173305 0.476221,-0.30943 0.982583,-0.570188 1.4643,-0.87099 1.472432,-0.919445 2.800471,-2.045536 4.168888,-3.106901 1.00138,-0.813226 2.093918,-1.645412 2.975621,-2.593414 1.040969,-1.119247 1.12109,-1.404684 1.771176,-2.66435 0.762606,-1.477691 0.491617,-0.847979 0.985748,-2.348625 -0.04908,-0.261717 -0.06298,-0.532549 -0.147222,-0.785151 C 77.970795,20.636805 77.588231,20.121722 77.178225,19.634955 76.13447,18.395784 74.884319,17.366341 73.506994,16.516282 72.808666,16.177256 72.129375,15.79583 71.41201,15.499204 69.277936,14.616779 67.453513,14.126658 65.169243,13.632115 58.084945,12.09837 50.955874,11.88202 43.693522,12.137714 c -1.767591,0.03368 -3.536111,0.03456 -5.302774,0.101049 -2.653178,0.09986 -7.75655,0.450264 -10.432988,0.679836 -5.328812,0.457078 -2.391501,0.283803 -6.882759,0.714175 -0.452631,0.04337 -0.907288,0.06207 -1.360933,0.09311 0,0 12.933674,1.883937 12.933674,1.883938 z" />
    <path
       style="fill:#000000;stroke:#000000;stroke-width:0.264583;stroke-linejoin:round"
       id="path1482"
       d="m 38.07828,42.78576 c 0.282046,0.56574 0.609592,1.108937 0.898797,1.67047 0.158756,0.308248 0.280565,0.635365 0.450861,0.937387 0.590759,1.047708 1.262705,2.047523 1.890498,3.073469 0.857419,1.33418 1.429845,2.341592 2.507851,3.530322 0.520501,0.573961 1.111705,1.079863 1.681734,1.604672 1.205618,1.109977 2.465477,2.156772 3.666003,3.272816 1.275974,1.336503 2.769211,2.45895 4.025228,3.814265 0.71216,0.768461 1.382238,1.578166 2.003893,2.421522 1.594032,2.162519 1.811226,2.805925 2.990159,5.114774 0.332002,0.800333 1.303097,3.2785 1.833269,4.037762 0.628563,0.90017 1.460069,1.642131 2.134762,2.508266 1.677844,2.15393 3.02851,4.50221 4.355031,6.878259 1.65283,3.05871 0.169351,0.419462 2.012344,3.401319 0.296904,0.48038 0.572285,0.973733 0.85843,1.460598 0,0 11.346219,-0.68893 11.346219,-0.68893 v 0 c -0.380434,-0.474118 -0.779581,-0.933805 -1.141298,-1.422347 -4.366509,-5.897465 2.29749,2.785964 -2.472212,-3.381637 -1.101817,-1.386308 -2.298586,-2.858379 -3.323457,-4.297088 -0.590767,-0.82932 -1.197499,-1.651706 -1.706184,-2.533761 -0.460071,-0.797761 -0.746427,-1.686448 -1.192319,-2.492221 -0.770326,-1.392055 -1.854933,-2.594814 -2.612271,-3.994624 -1.587243,-2.512165 -3.169703,-5.047744 -4.536217,-7.689884 -0.346784,-0.670502 -0.582041,-1.39728 -0.956718,-2.052608 -0.585165,-1.023485 -1.087892,-1.371217 -1.928481,-2.143914 -2.038377,-1.38889 -4.470519,-2.701128 -6.134045,-4.528021 -1.076375,-1.182081 -1.399193,-1.968748 -2.14594,-3.344751 -0.210098,-0.538033 -0.452866,-1.064424 -0.63029,-1.614096 -0.160729,-0.497948 -0.40504,-1.726507 -0.512845,-2.309926 -0.0011,-0.0054 -0.18415,-1.071491 -0.195847,-1.208244 -0.0081,-0.09435 0.0056,-0.189306 0.0084,-0.283959 0,0 -13.1754,0.26011 -13.1754,0.26011 z" />
  </g>
</svg>
