<?xml version="1.0" encoding="UTF-8" standalone="no"?>
<svg
   xmlns:dc="http://purl.org/dc/elements/1.1/"
   xmlns:cc="http://creativecommons.org/ns#"
   xmlns:rdf="http://www.w3.org/1999/02/22-rdf-syntax-ns#"
   xmlns:svg="http://www.w3.org/2000/svg"
   xmlns="http://www.w3.org/2000/svg"
   xmlns:sodipodi="http://sodipodi.sourceforge.net/DTD/sodipodi-0.dtd"
   xmlns:inkscape="http://www.inkscape.org/namespaces/inkscape"
   width="350"
   height="350"
   viewBox="0 0 92.604165 92.604169"
   version="1.1"
   id="svg8"
   inkscape:version="1.0.1 (3bc2e813f5, 2020-09-07)"
   sodipodi:docname="U 0033 Digit Three.svg">
  <defs
     id="defs2" />
  <sodipodi:namedview
     id="base"
     pagecolor="#ffffff"
     bordercolor="#666666"
     borderopacity="1.0"
     inkscape:pageopacity="0.0"
     inkscape:pageshadow="2"
     inkscape:zoom="0.7"
     inkscape:cx="115.99117"
     inkscape:cy="222.6943"
     inkscape:document-units="mm"
     inkscape:current-layer="layer1"
     inkscape:document-rotation="0"
     showgrid="false"
     units="px"
     inkscape:window-width="1267"
     inkscape:window-height="728"
     inkscape:window-x="78"
     inkscape:window-y="0"
     inkscape:window-maximized="0" />
  <metadata
     id="metadata5">
    <rdf:RDF>
      <cc:Work
         rdf:about="">
        <dc:format>image/svg+xml</dc:format>
        <dc:type
           rdf:resource="http://purl.org/dc/dcmitype/StillImage" />
        <dc:title></dc:title>
      </cc:Work>
    </rdf:RDF>
  </metadata>
  <g
     inkscape:label="Layer 1"
     inkscape:groupmode="layer"
     id="layer1">
    <path
       style="fill:#000000;stroke:#000000;stroke-width:0.264583;stroke-linejoin:round"
       id="path867"
       d="m 23.853563,20.004921 c 2.357752,-2.32125 5.71441,-3.840362 8.655373,-5.271415 5.558337,-2.5749 11.61053,-3.671557 17.642133,-4.443974 3.213068,-0.3719944 6.44457,-0.5479479 9.676384,-0.6430849 1.023477,-0.030129 4.095102,-0.062324 3.071183,-0.059798 -14.512362,0.035789 -17.42499,-0.2191906 -11.315089,0.2156015 2.112301,0.2236284 4.290946,0.7242664 6.044528,1.9932384 0.267988,0.193927 0.505304,0.427045 0.757954,0.640568 1.083223,1.039871 1.824453,2.331912 2.201516,3.7769 0.574061,1.503191 0.821807,3.10002 1.188866,4.661395 0.710374,2.662024 0.427307,5.371977 -0.888355,7.806335 -0.281241,0.520378 -0.635132,0.99808 -0.952698,1.497119 -1.430573,1.848397 -3.460644,3.113055 -4.929206,4.922599 -0.216442,0.266698 -0.403677,0.555825 -0.605517,0.833734 -0.537861,0.756907 -1.17729,1.69768 -1.801437,2.353437 -2.995166,3.146856 -6.833492,5.433944 -10.437045,7.795212 -2.821554,1.74621 -5.668354,3.523947 -8.769197,4.743733 -1.073962,0.422468 -2.180103,0.758121 -3.267273,1.145326 -1.91842,0.708369 -3.915476,1.043233 -5.950874,1.091967 5.774706,-0.03014 11.549415,-0.06028 17.324121,-0.09042 -0.288584,-0.08818 -0.626206,0.182983 -0.898941,0.180906 -0.172058,-0.0013 -0.217305,-0.172622 -0.280987,-0.285837 -0.02405,-0.09479 -0.04811,-0.189574 -0.07217,-0.284364 0,0 -18.437447,0.323562 -18.437447,0.323562 v 0 c 0.02284,0.169706 0.04567,0.33941 0.06851,0.509116 0.123762,0.586732 0.244868,1.279933 0.616766,1.772979 3.939734,5.22311 37.103052,-22.105763 19.566866,0.534064 1.777793,-0.299898 3.462684,-0.919634 5.079304,-1.71653 2.15982,-0.972304 4.311491,-2.013915 6.228646,-3.424234 0.575228,-0.423157 1.098952,-0.912202 1.650053,-1.366335 0.687644,-0.56665 1.377452,-1.130671 2.066176,-1.696005 2.860061,-2.143376 2.629664,-2.061212 5.834038,-4.05616 3.144277,-1.957536 6.564662,-3.671835 9.178796,-6.353207 1.618631,-1.918306 3.082925,-3.967287 4.537675,-6.010444 0.350002,-0.584526 0.748353,-1.142693 1.05001,-1.753571 1.33391,-2.701274 1.693846,-5.699487 1.704004,-8.671529 0.0031,-0.491487 0.0259,-1.549437 -0.02678,-2.073548 -0.0999,-0.993824 -0.448021,-1.958289 -0.533992,-2.956205 -0.635151,-1.73459 -1.712473,-3.21755 -2.850372,-4.660185 C 75.342522,10.347274 74.905488,9.8506736 74.150806,9.3360056 72.408983,8.1481424 69.975348,7.6076918 67.927989,7.3252707 56.945278,6.6286998 45.870714,7.0048675 34.923907,8.0982441 c -1.579266,0.2489173 -4.785522,0.7373466 -6.295118,1.0486135 -4.019075,0.8287036 -7.87324,2.2658084 -11.668614,3.7971864 -3.896146,1.648478 -7.7213098,3.435584 -11.5449977,5.242907 0,0 18.4383857,1.81797 18.4383857,1.81797 z" />
    <path
       style="fill:#000000;stroke:#000000;stroke-width:0.264583;stroke-linejoin:round"
       id="path869"
       d="m 40.028352,52.866877 c 0.895945,-0.519512 2.025427,-0.610463 3.030839,-0.7288 1.403749,-0.165227 2.194216,-0.20342 3.633142,-0.30588 6.298025,-0.738539 27.849909,-0.673325 0.488595,-0.462034 3.518128,0.193659 6.906784,0.825072 10.016715,2.519011 1.463087,0.882073 2.573718,2.148512 3.255719,3.70432 0.286541,1.10299 0.458891,2.246886 0.576691,3.38134 0.03677,0.220584 0.05778,0.444381 0.110323,0.661747 0.217162,0.898369 0.533564,1.759405 0.681387,2.677964 0.111802,0.694714 0.152061,1.399069 0.230113,2.098379 0.0035,0.926722 0.07397,1.663105 -0.214606,2.573147 -0.583819,1.841127 -2.122366,3.084946 -3.524401,4.291505 -1.365879,1.238382 -2.843535,2.391148 -4.058314,3.784152 -0.959061,0.953215 -1.498652,2.271639 -2.556692,3.133381 -0.203875,0.166048 -0.443532,0.282533 -0.665298,0.423799 -2.270855,0.711513 -4.661193,0.748575 -7.017845,0.820397 -0.53403,0.01119 -1.068001,0.02543 -1.602086,0.03355 -0.58488,0.0089 -1.169837,0.01183 -1.754757,0.01757 -0.635523,0.0062 -2.542129,0.01757 -1.906577,0.01833 25.893504,0.03152 16.878181,0.0457 11.218564,-0.04677 -1.649069,0.03606 -3.279939,-0.208592 -4.920769,-0.31012 -3.463356,-0.07723 -6.926638,-0.111123 -10.371425,-0.502415 -2.452397,-0.298728 -4.898083,-0.777182 -7.224617,-1.620785 -1.205415,-0.426778 -2.30818,-1.074856 -3.158796,-2.03292 -0.498022,-0.549336 -0.621476,-1.2518 -0.802603,-1.943836 -0.150744,-0.635272 -0.430875,-1.218951 -0.551649,-1.862111 -0.05255,-0.416015 -0.03042,-0.204547 -0.06558,-0.634487 0,0 -18.488309,0.118306 -18.488309,0.118306 v 0 c 0.025882,0.52456 0.00906,0.261816 0.050604,0.788234 0.085255,0.713052 0.1925699,1.451967 0.6096077,2.056894 0.2411807,0.943364 0.424026,1.920325 0.9964618,2.733008 0.2586501,0.334997 0.5304007,0.707721 0.8318156,1.005018 0.8256328,0.814345 1.8716974,1.367845 2.8745037,1.925703 2.6428432,1.024057 5.4607172,1.532242 8.2622132,1.897936 3.096486,0.407897 6.206939,0.594394 9.322832,0.776906 1.919073,0.0891 3.829558,0.386358 5.755529,0.273191 9.295611,-0.07925 18.592532,0.0713 27.887096,-0.07692 2.729457,-0.141777 5.568373,-0.23903 7.892415,-1.854165 1.213064,-1.211686 2.226617,-2.599521 3.439033,-3.814752 1.154459,-1.244949 2.263412,-2.531764 3.430301,-3.765471 1.978692,-2.495388 3.704932,-4.971724 3.88628,-8.273457 0.01114,-0.410273 0.04982,-0.820724 0.03341,-1.23082 -0.01397,-0.34892 -0.09265,-0.692436 -0.124243,-1.040199 -0.100243,-1.103389 -0.114223,-2.219487 -0.305872,-3.312803 -0.171296,-1.312093 -0.230521,-2.653895 -0.731747,-3.8959 -0.831316,-1.990635 -2.238703,-3.573205 -3.990531,-4.827865 -0.426114,-0.238702 -0.838239,-0.504301 -1.278342,-0.716108 -3.24794,-1.563129 -6.877439,-2.054458 -10.425911,-2.365153 -10.820591,-0.06398 -21.644854,-0.316034 -32.450204,0.39832 -2.080085,0.129807 -2.201444,0.122552 -4.214396,0.303313 -1.333446,0.11974 -2.741106,0.39941 -4.086081,0.363926 -0.163917,-0.0043 -0.323606,-0.05319 -0.485409,-0.07979 0,0 18.462863,2.924231 18.462863,2.924231 z" />
    <path
       style="fill:#000000;stroke:#000000;stroke-width:0.264583;stroke-linejoin:round"
       id="path871"
       d="m 40.072619,53.769225 c 0.150889,-0.159957 0.274503,-0.350986 0.452662,-0.479872 0.631614,-0.456922 2.192719,-1.167167 2.771138,-1.403482 2.282177,-0.932397 4.672716,-1.59783 7.026296,-2.319306 2.62655,-0.828257 5.354352,-1.396061 7.859511,-2.563863 0.229418,-0.08473 0.455972,-0.17766 0.688253,-0.254193 0.209751,-0.06911 0.429498,-0.106601 0.636913,-0.182425 0.576979,-0.210926 0.518049,-0.26747 1.050988,-0.521928 0.399714,-0.190849 0.509067,-0.20371 0.924126,-0.321429 0.393176,-0.156175 0.838341,-0.04078 1.238158,-0.118255 0.138427,-0.02682 0.261596,-0.107146 0.397565,-0.144471 0.878208,-0.241069 -0.09012,0.136412 0.843127,-0.263847 0.912881,-0.233609 1.809829,-0.497761 2.593922,-1.034945 0.13957,-0.0976 0.290322,-0.180895 0.418708,-0.292795 1.652876,-1.44062 -0.791662,0.526462 0.872818,-0.838272 0.492252,-0.403606 1.044517,-0.695383 1.581558,-1.033089 0.795104,-0.645123 1.831938,-0.843746 2.599745,-1.51487 0.39845,-0.220731 0.214141,-0.07543 0.538615,-0.453474 0,0 -18.487432,-1.618427 -18.487432,-1.618427 v 0 c -0.304953,0.132241 -0.146312,0.04312 -0.462653,0.289732 -0.829101,0.382307 -1.513499,1.015375 -2.282354,1.500034 -0.988997,0.677772 -1.888291,1.517041 -3.041102,1.910101 -0.856232,0.22679 -1.700538,0.479033 -2.552928,0.717846 -0.864931,0.125804 -1.720315,0.274304 -2.489946,0.716741 -0.972002,0.512146 -1.991238,0.908679 -2.968027,1.412536 -2.011553,0.920665 -4.060513,1.762524 -6.114716,2.582537 -2.356059,0.864383 -4.732803,1.624944 -7.13495,2.352416 -0.771267,0.233574 -3.404413,1.039053 -4.345275,1.228431 -0.352943,0.07104 -0.717128,0.06472 -1.075692,0.09708 0,0 18.460972,2.551494 18.460972,2.551494 z" />
    <path
       style="fill:#000000;stroke:#000000;stroke-width:0.264583;stroke-linejoin:round"
       id="path873"
       d="m 35.870615,54.000804 c 0.189921,-0.02704 0.385403,0.0097 0.574768,-0.02014 0.181967,-0.02871 0.355668,-0.09873 0.537371,-0.129087 0.835218,-0.139552 1.701408,-0.155581 2.544649,-0.201782 2.302134,-0.110096 4.608237,-0.106773 6.912517,-0.105749 0.972577,-5.29e-4 1.945137,0.01349 2.917719,0.009 0.325075,-0.0016 1.300266,-0.0093 0.975188,-0.0094 -17.951669,-0.0084 -21.931989,-0.04745 -15.616671,0.01021 1.916192,-0.0029 3.832445,-0.0113 5.748586,0.0056 1.681234,-0.02252 3.356578,-0.01738 5.024588,0.211082 0.670703,0.09461 1.360408,0.204312 1.985611,0.480346 0.38662,0.220488 0.201454,0.132326 0.549804,0.276125 0.287687,0.253743 0.551339,0.521885 0.919279,0.652221 0.07031,0.0249 0.151762,0.01963 0.216458,0.05674 0.282364,0.245316 0.14006,0.150352 0.415867,0.300791 0.06899,0.0806 0.137975,0.161193 0.206962,0.24179 0,0 18.513359,-1.524344 18.513359,-1.524344 v 0 c -0.06947,-0.0482 -0.138949,-0.09641 -0.208423,-0.144619 -0.56121,-0.813226 0.108503,0.08767 -0.460782,-0.50252 C 67.525603,53.50149 67.4606,53.363539 67.35619,53.26046 67.077256,52.985087 66.780356,53.006659 66.446651,52.846869 65.619566,51.977361 64.43583,51.519685 63.292944,51.221457 c -1.709409,-0.276283 -3.419025,-0.570421 -5.160557,-0.459968 -1.931072,0.01479 -3.862213,0.0081 -5.793317,0.0019 -7.794786,0.05746 -15.590022,-0.05128 -23.384393,0.02392 -2.320928,0.03501 -4.640908,0.09677 -6.960492,0.184822 -1.529513,0.08561 -3.054839,0.215715 -4.586434,0.104354 0,0 18.462864,2.924231 18.462864,2.924231 z" />
  </g>
</svg>
