<?xml version="1.0" encoding="UTF-8" standalone="no"?>
<svg
   xmlns:dc="http://purl.org/dc/elements/1.1/"
   xmlns:cc="http://creativecommons.org/ns#"
   xmlns:rdf="http://www.w3.org/1999/02/22-rdf-syntax-ns#"
   xmlns:svg="http://www.w3.org/2000/svg"
   xmlns="http://www.w3.org/2000/svg"
   xmlns:sodipodi="http://sodipodi.sourceforge.net/DTD/sodipodi-0.dtd"
   xmlns:inkscape="http://www.inkscape.org/namespaces/inkscape"
   width="350"
   height="350"
   viewBox="0 0 92.604165 92.604169"
   version="1.1"
   id="svg8"
   inkscape:version="1.0.1 (3bc2e813f5, 2020-09-07)"
   sodipodi:docname="U 0037 Digit Seven.svg">
  <defs
     id="defs2" />
  <sodipodi:namedview
     id="base"
     pagecolor="#ffffff"
     bordercolor="#666666"
     borderopacity="1.0"
     inkscape:pageopacity="0.0"
     inkscape:pageshadow="2"
     inkscape:zoom="0.98994949"
     inkscape:cx="309.50916"
     inkscape:cy="110.64312"
     inkscape:document-units="mm"
     inkscape:current-layer="layer1"
     inkscape:document-rotation="0"
     showgrid="false"
     units="px"
     inkscape:window-width="1267"
     inkscape:window-height="728"
     inkscape:window-x="78"
     inkscape:window-y="0"
     inkscape:window-maximized="0" />
  <metadata
     id="metadata5">
    <rdf:RDF>
      <cc:Work
         rdf:about="">
        <dc:format>image/svg+xml</dc:format>
        <dc:type
           rdf:resource="http://purl.org/dc/dcmitype/StillImage" />
        <dc:title></dc:title>
      </cc:Work>
    </rdf:RDF>
  </metadata>
  <g
     inkscape:label="Layer 1"
     inkscape:groupmode="layer"
     id="layer1">
    <circle
       id="path885"
       style="fill:#000000;stroke:#000000;stroke-width:0.264583"
       cx="17.372519"
       cy="14.967093"
       r="0.11774057" />
    <path
       style="fill:#000000;stroke:#000000;stroke-width:0.264583;stroke-linejoin:round"
       id="path889"
       d="m 17.795321,20.061362 c 2.475206,1.122564 5.189759,1.199629 7.859866,1.343575 3.967136,0.281864 7.94561,0.715256 11.855998,1.461331 1.766305,0.337 2.466517,0.553985 4.151699,1.003988 0.932884,0.312351 2.167109,0.754332 3.136561,0.968764 0.558932,0.123629 1.130488,0.181314 1.694066,0.281662 0.549172,0.09778 1.089401,0.252521 1.643954,0.312695 1.407324,0.15271 2.827481,0.04061 4.23413,-0.01225 3.938397,-0.369422 7.906954,-0.101894 11.823398,0.381066 3.017846,-0.159374 6.023091,0.02222 9.007171,0.47048 1.33791,0.228862 2.68251,0.466772 4.04357,0.425704 0.76122,0.0079 0.38073,-0.01175 1.14145,0.05912 0,0 0.0956,-12.695611 0.0956,-12.695611 v 0 c -0.81011,-0.04738 -0.39937,-0.0163 -1.2321,-0.09458 -1.34127,-0.05131 -2.67423,0.142552 -4.00691,0.273526 -0.97066,0.079 -1.57563,0.142772 -2.57335,0.157067 -2.162028,0.03097 -4.308842,-0.205457 -6.451631,-0.464918 -0.276045,0.02246 -2.740197,0.221861 -2.890615,0.239228 -2.957417,0.34144 -5.905524,0.977517 -8.896466,0.479058 -5.122243,-0.779156 0.383111,0.08941 -4.097105,-0.701104 -0.534606,-0.09433 -1.076981,-0.143753 -1.609108,-0.251195 -1.997102,-0.403228 -1.246492,-0.40858 -3.203181,-0.74295 -0.553585,-0.0946 -1.114062,-0.143132 -1.671092,-0.214699 C 41.197972,12.690939 40.54565,12.626522 39.891467,12.59017 35.19737,12.329336 30.421927,12.54446 25.865635,11.164159 23.351374,10.234151 20.33485,9.3231271 18.831727,6.8929641 c 0,0 -1.036376,13.1684049 -1.036376,13.1684049 z" />
    <path
       style="fill:#000000;stroke:#000000;stroke-width:0.264583;stroke-linejoin:round"
       id="path895"
       d="m 63.803572,19.154722 c 0.07218,0.01412 0.151352,0.0083 0.216535,0.04234 0.303328,0.158502 0.747032,0.567976 1.006432,0.787797 0.672992,0.570312 0.350697,0.313524 1.078976,0.850013 1.070449,0.909502 2.335562,1.599869 3.343558,2.583397 0.185061,0.180568 0.345575,0.384688 0.518364,0.577032 0.442915,0.620099 1.041421,1.340797 1.098169,2.145614 0.02177,0.308753 -0.110985,0.609231 -0.201554,0.891928 -0.820037,1.590206 -1.358069,3.336546 -2.495566,4.750562 -0.379698,0.472 -0.823831,0.888325 -1.235744,1.332489 -2.866401,2.668783 -6.540254,4.054419 -10.135558,5.429186 -1.467821,0.632627 -2.826179,1.47805 -4.068591,2.48358 -0.691276,0.559478 -1.332851,1.177867 -2.009769,1.754638 -5.813798,4.953661 0.972468,-0.957242 -5.3124,4.55359 -3.010111,2.881095 -6.10123,5.680411 -9.26952,8.386879 -2.189007,1.869932 -4.424456,3.680917 -6.598994,5.568328 -2.510219,2.269318 -4.324386,5.150998 -6.011167,8.052771 -0.293253,0.566129 -0.592721,1.175763 -0.930572,1.721024 -0.116094,0.18737 -0.268726,0.351531 -0.375055,0.544608 -0.323006,0.586526 -0.529638,1.273524 -0.724129,1.909032 -0.368753,1.536171 -0.683,3.113175 -1.299912,4.573389 -0.226857,0.602798 -0.567082,1.155142 -0.834602,1.737583 -0.165701,0.360762 -0.29255,0.73819 -0.446215,1.104241 -0.31452,0.869037 -0.846016,1.62992 -1.138505,2.505427 -0.118769,0.297502 -0.09768,0.62575 -0.162647,0.932434 -0.04117,0.194347 -0.131032,0.387522 -0.174621,0.585488 0,0 13.107233,0.293743 13.107233,0.293743 v 0 c 0.1114,-0.471043 0.134636,-0.951288 0.238538,-1.423437 0.216763,-0.794911 0.469686,-1.585439 0.785638,-2.346084 0.493771,-0.978935 1.132443,-1.923285 1.282279,-3.032069 0.258649,-1.525482 0.557247,-3.061066 1.181613,-4.485521 0.263957,-0.594564 0.595358,-1.183786 0.811811,-1.797611 0.262551,-0.744559 0.348954,-1.547815 0.668269,-2.275528 0.321341,-0.811996 0.557514,-1.463323 0.964541,-2.248395 1.041813,-2.009447 2.439447,-3.78206 3.894076,-5.504434 1.569935,-1.895186 3.079308,-3.860016 4.725652,-5.689491 2.776019,-3.084806 5.846614,-5.879163 9.215374,-8.308919 2.003435,-1.45115 4.186224,-3.1032 6.318054,-4.385056 2.547233,-1.531639 5.280607,-2.69154 8.007344,-3.852238 3.206737,-1.793513 6.466279,-3.538771 9.310841,-5.893189 0.567068,-0.488683 1.165802,-0.942862 1.701202,-1.466046 1.11083,-1.085482 1.13724,-1.310415 1.925992,-2.48821 0.419362,-0.626208 0.891852,-1.217449 1.283475,-1.861371 0.151826,-0.249637 0.268412,-0.519072 0.40262,-0.77861 0.192272,-0.622443 0.344357,-0.904751 0.293457,-1.570654 -0.08013,-1.048286 -0.911278,-1.877878 -1.416645,-2.73718 -0.520679,-0.615185 -0.64502,-0.794686 -1.231646,-1.355411 -0.768983,-0.735029 -1.691617,-1.275587 -2.453542,-2.020447 -0.154771,-0.147006 -0.303276,-0.300904 -0.464315,-0.44102 -0.123026,-0.107043 -0.269986,-0.185753 -0.38681,-0.299532 -0.125728,-0.122449 -0.413814,-0.53551 -0.535379,-0.680237 -0.05742,-0.06836 -0.137007,-0.118078 -0.185947,-0.192737 -0.0521,-0.07947 -0.07479,-0.174707 -0.112191,-0.26206 0,0 -13.168447,1.29837 -13.168447,1.29837 z" />
  </g>
</svg>
