<?xml version="1.0" encoding="UTF-8" standalone="no"?>
<svg
   xmlns:dc="http://purl.org/dc/elements/1.1/"
   xmlns:cc="http://creativecommons.org/ns#"
   xmlns:rdf="http://www.w3.org/1999/02/22-rdf-syntax-ns#"
   xmlns:svg="http://www.w3.org/2000/svg"
   xmlns="http://www.w3.org/2000/svg"
   xmlns:sodipodi="http://sodipodi.sourceforge.net/DTD/sodipodi-0.dtd"
   xmlns:inkscape="http://www.inkscape.org/namespaces/inkscape"
   width="350"
   height="350"
   viewBox="0 0 92.604165 92.604169"
   version="1.1"
   id="svg8"
   inkscape:version="1.0.1 (3bc2e813f5, 2020-09-07)"
   sodipodi:docname="U-31C7-CJK-stroke-HP.svg">
  <defs
     id="defs2" />
  <sodipodi:namedview
     id="base"
     pagecolor="#ffffff"
     bordercolor="#666666"
     borderopacity="1.0"
     inkscape:pageopacity="0.0"
     inkscape:pageshadow="2"
     inkscape:zoom="0.7"
     inkscape:cx="84.837179"
     inkscape:cy="316.12003"
     inkscape:document-units="mm"
     inkscape:current-layer="layer1"
     inkscape:document-rotation="0"
     showgrid="false"
     units="px"
     inkscape:window-width="1267"
     inkscape:window-height="728"
     inkscape:window-x="78"
     inkscape:window-y="0"
     inkscape:window-maximized="0" />
  <metadata
     id="metadata5">
    <rdf:RDF>
      <cc:Work
         rdf:about="">
        <dc:format>image/svg+xml</dc:format>
        <dc:type
           rdf:resource="http://purl.org/dc/dcmitype/StillImage" />
        <dc:title></dc:title>
      </cc:Work>
    </rdf:RDF>
  </metadata>
  <g
     inkscape:label="Layer 1"
     inkscape:groupmode="layer"
     id="layer1">
    <path
       style="fill:#000000;stroke:#000000;stroke-width:0.261494;stroke-linejoin:round"
       id="path924"
       d="m 23.018065,19.512132 c 1.80064,-0.643064 3.681166,-0.669152 5.520494,-0.81552 4.311784,-0.34312 1.826404,-0.185648 6.717073,-0.410296 -2.882607,-0.03787 10.912686,-0.145816 8.184696,-0.08495 -2.584234,0.05765 -5.170104,-0.03317 -7.753352,0.08739 -0.836868,0.03906 1.67381,0.08333 2.509606,0.15735 1.476362,0.130752 1.981777,0.245453 3.362201,0.488287 2.156217,0.46086 4.320961,0.709329 6.495922,0.843377 2.553716,0.0627 5.107301,0.119735 7.661014,0.198076 3.976384,0.12124 7.951273,0.06137 11.904088,0.787962 0.992131,0.338487 2.161204,0.488182 3.011136,1.432225 0.146182,1.295819 -0.416219,2.580371 -0.814825,3.642594 -0.369927,0.9858 -0.709525,2.00391 -1.151057,2.922379 -2.796814,5.817893 -3.403171,5.979903 -7.424124,11.535918 -2.32548,2.535908 -4.581984,5.217661 -6.976442,7.607724 -5.010836,5.001645 -10.664656,9.688614 -15.997094,13.891706 -5.657895,4.459623 -11.446597,8.516952 -17.268342,12.474574 -2.807844,1.831874 -5.595175,3.753033 -8.433181,5.482634 C 10.295721,81.13709 9.1602531,82.067273 7.3780441,83.237956 18.442219,83.650398 31.61529,75.144983 38.311562,68.196073 47.717247,58.272503 57.591167,49.357301 67.745728,41.23251 c 2.620666,-2.125395 5.271945,-4.169538 7.861999,-6.376193 2.569966,-2.189539 5.581057,-4.710457 7.782827,-7.891717 0.397518,-0.574352 0.659341,-1.325022 0.976572,-2.000665 0.296269,-0.630983 0.633894,-1.229028 0.863613,-1.918506 0.153916,-0.461959 0.18186,-0.994861 0.272794,-1.492291 -0.04119,-0.334417 -0.03884,-0.68747 -0.123622,-1.003253 -0.597501,-2.225311 -3.384251,-2.3148 -4.635113,-2.659865 -3.874036,-0.546209 -7.760313,-0.890878 -11.651435,-0.995176 -2.359111,-0.164128 -4.714835,-0.38545 -7.078024,-0.338832 -2.421894,-0.06502 -4.839111,-0.27557 -7.253669,-0.562738 -9.994294,-0.844678 -20.012914,-0.283775 -30.016948,-0.154173 -2.837561,0.01523 -5.67532,-0.01488 -8.512707,0.03429 -2.361274,0.04092 -4.723024,0.231214 -7.0851677,0.20649 -0.3258267,-0.0034 -0.6510917,-0.04075 -0.9766374,-0.06113 l 14.8478551,3.493376 z"
       sodipodi:nodetypes="cscssscccccsscsscscccsssscccccccscccc" />
  </g>
</svg>
