<?xml version="1.0" encoding="UTF-8" standalone="no"?>
<svg
   xmlns:dc="http://purl.org/dc/elements/1.1/"
   xmlns:cc="http://creativecommons.org/ns#"
   xmlns:rdf="http://www.w3.org/1999/02/22-rdf-syntax-ns#"
   xmlns:svg="http://www.w3.org/2000/svg"
   xmlns="http://www.w3.org/2000/svg"
   xmlns:sodipodi="http://sodipodi.sourceforge.net/DTD/sodipodi-0.dtd"
   xmlns:inkscape="http://www.inkscape.org/namespaces/inkscape"
   width="350"
   height="350"
   viewBox="0 0 92.604165 92.604169"
   version="1.1"
   id="svg8"
   inkscape:version="1.0.1 (3bc2e813f5, 2020-09-07)"
   sodipodi:docname="U-31C4-CJK-stroke-SW.svg">
  <defs
     id="defs2" />
  <sodipodi:namedview
     id="base"
     pagecolor="#ffffff"
     bordercolor="#666666"
     borderopacity="1.0"
     inkscape:pageopacity="0.0"
     inkscape:pageshadow="2"
     inkscape:zoom="0.98994949"
     inkscape:cx="309.50916"
     inkscape:cy="110.64312"
     inkscape:document-units="mm"
     inkscape:current-layer="layer1"
     inkscape:document-rotation="0"
     showgrid="false"
     units="px"
     inkscape:window-width="1267"
     inkscape:window-height="728"
     inkscape:window-x="78"
     inkscape:window-y="0"
     inkscape:window-maximized="0" />
  <metadata
     id="metadata5">
    <rdf:RDF>
      <cc:Work
         rdf:about="">
        <dc:format>image/svg+xml</dc:format>
        <dc:type
           rdf:resource="http://purl.org/dc/dcmitype/StillImage" />
        <dc:title />
      </cc:Work>
    </rdf:RDF>
  </metadata>
  <g
     inkscape:label="Layer 1"
     inkscape:groupmode="layer"
     id="layer1">
    <path
       style="display:inline;fill:#000000;stroke:#000000;stroke-width:0.345111;stroke-linejoin:round"
       id="path1474"
       d="m 83.139532,65.722987 c -0.389007,0.01992 -0.774821,-0.03171 -1.162698,-0.02877 -0.465742,0.0035 -0.929528,0.04773 -1.395284,0.04468 -0.496507,-0.0033 -0.990223,-0.0443 -1.485676,-0.06358 -1.977131,-0.07694 -1.34198,-0.05543 -3.426187,-0.06732 -2.019549,0.06416 -4.047508,0.03819 -6.052838,-0.124264 -1.095597,-0.08875 -2.164434,-0.274968 -3.260995,-0.359513 -0.586704,-0.04524 -1.180465,-0.04945 -1.770692,-0.07418 -4.806304,0.05168 -9.594514,0.396944 -14.40043,0.453363 -0.930043,0.01093 -1.860362,-0.01069 -2.790544,-0.01606 -7.693512,-0.03237 2.595026,-0.009 -4.934186,0.03747 -2.470276,0.01527 -2.167474,-0.129045 -4.728134,0.193202 -1.09138,0.137345 -2.155994,0.339949 -3.233992,0.509923 -1.171083,0.130503 -2.342167,0.261006 -3.513252,0.391509 -2.870345,0.254717 -5.771882,0.32665 -8.664436,0.185378 -3.151209,-0.153908 -0.719339,-0.09416 -3.525588,-0.288274 -0.523625,-0.03622 -1.051628,-0.04556 -1.577439,-0.06834 -1.391006,-0.03743 -2.76689,-0.162864 -4.141491,-0.284652 0,0 -0.129558,12.557016 -0.129558,12.557016 v 0 c 1.383375,-0.02408 2.768605,-0.04662 4.150515,0.01926 0.540527,0.01339 1.080694,0.04673 1.621585,0.04016 4.242351,-0.05153 8.320288,-0.927965 12.522504,-1.170437 1.171308,-0.05923 2.339489,-0.146518 3.513931,-0.177691 1.052873,-0.02795 2.108043,0.01093 3.161845,5.29e-4 2.897153,-0.02866 1.840979,-0.05262 4.638423,-0.179486 4.453705,-0.201972 0.444316,0.05448 4.952862,-0.267041 5.588948,-0.415189 11.303929,-0.563327 16.81857,0.244822 0.5786,0.06152 1.153091,0.138345 1.735802,0.184555 3.132504,0.248414 6.33589,0.04009 9.45693,0.362659 1.530808,0.124661 3.218042,0.17989 4.702233,0.452281 0.866318,0.158993 1.637016,0.469728 2.475685,0.668218 0,0 0.442543,-13.175397 0.442543,-13.175397 z" />
    <path
       style="fill:#000000;stroke:#000000;stroke-width:0.264583;stroke-linejoin:round"
       id="path896"
       d="m 5.9526921,9.2150439 c 0.1810541,0.8500311 0.1982501,1.7276731 0.3187716,2.5901671 0.058602,0.308944 0.086786,0.625243 0.1758055,0.926832 0.1466429,0.496814 0.3527041,0.974121 0.5290563,1.461181 0.1799823,0.595457 0.3749993,1.186575 0.5399474,1.786371 0.5253472,1.910303 0.848161,3.698171 1.1064576,5.655997 0.1992612,1.602534 0.1741178,3.227304 0.4003389,4.826599 0.1438564,1.01701 0.3290523,2.027764 0.4852742,3.042946 0.083554,0.690938 0.1799791,1.380442 0.2506612,2.072815 0.076583,0.750173 0.1505916,1.50115 0.1910625,2.254136 0.1200637,2.233858 -0.017852,4.473662 -0.084881,6.706711 -0.00254,0.375407 -0.030282,0.751488 -0.00762,1.12622 0.053447,0.883708 0.3098747,2.170965 0.4253387,3.003577 0.09828,0.708736 0.198212,1.417867 0.26116,2.130612 0.185627,2.101795 0.132216,2.541905 0.115223,4.6365 -0.03885,1.732989 -0.419564,3.429903 -0.61242,5.144683 -0.1499433,1.33322 -0.1180467,2.685778 -0.1392803,4.024807 -0.039423,2.221177 -0.2559521,4.430009 -0.271916,6.652916 0.013354,0.346007 0.024376,0.692113 0.040063,1.038024 0.05241,1.15569 0.087806,1.11206 0.047106,2.26178 -0.03069,0.866918 -0.1297051,1.729367 -0.2271993,2.590559 -0.084623,0.844177 -0.2526877,1.687161 -0.2086211,2.537744 0.066757,0.522345 0.1476634,1.041603 0.1868485,1.567047 -0.00879,0.311518 -0.051354,0.857483 -0.2197293,1.116592 -0.02331,0.05934 -0.046619,0.118676 -0.069929,0.178014 0,0 13.1178415,0.441908 13.1178415,0.441908 v 0 c 0.0228,-0.07237 0.0456,-0.144733 0.06839,-0.217099 0.101959,-0.532278 0.229738,-1.064337 0.16791,-1.610916 -0.03605,-0.544004 -0.0956,-1.086366 -0.223715,-1.617485 -0.15989,-0.784915 -0.115349,-1.608783 -0.274207,-2.396318 -0.09819,-0.861033 -0.197934,-1.723345 -0.228951,-2.590181 -0.04086,-1.141806 -0.0059,-1.113242 0.04724,-2.260716 0.01599,-0.345469 0.02776,-0.691121 0.04164,-1.03668 -0.0077,-2.213724 -0.202226,-4.419433 -0.166742,-6.632371 0.03032,-1.33259 0.127763,-2.678068 0.06075,-4.010763 -0.08699,-1.729827 -0.361048,-3.451125 -0.384516,-5.185781 -0.03439,-2.152324 -0.08537,-2.481593 0.06603,-4.644966 0.05011,-0.715963 0.136377,-1.428954 0.2115,-2.142723 0.101092,-0.96052 0.286168,-2.072108 0.24295,-3.057025 -0.01677,-0.382114 -0.103022,-0.757994 -0.154532,-1.136989 -0.396386,-2.205363 -0.918696,-4.415297 -1.02283,-6.661155 -0.03462,-0.746628 -0.0145,-1.495237 0.01002,-2.242264 0.02271,-0.691748 0.08773,-1.381459 0.131593,-2.072188 0.07142,-0.736653 0.252899,-2.327973 0.240075,-3.137203 -0.02698,-1.702103 -0.732346,-3.309846 -1.171027,-4.926477 -0.651623,-2.408948 -1.237239,-4.88197 -1.256467,-7.394827 -0.0035,-0.458796 0.0668,-0.915193 0.09677,-1.373023 0.01826,-0.279 0.03195,-0.558281 0.04793,-0.837421 0.120521,-0.862494 0.137717,-1.740136 0.318771,-2.5901671 0,0 -13.217951,0 -13.217951,0 z" />
  </g>
</svg>
