<?xml version="1.0" encoding="UTF-8" standalone="no"?>
<svg
   xmlns:dc="http://purl.org/dc/elements/1.1/"
   xmlns:cc="http://creativecommons.org/ns#"
   xmlns:rdf="http://www.w3.org/1999/02/22-rdf-syntax-ns#"
   xmlns:svg="http://www.w3.org/2000/svg"
   xmlns="http://www.w3.org/2000/svg"
   xmlns:sodipodi="http://sodipodi.sourceforge.net/DTD/sodipodi-0.dtd"
   xmlns:inkscape="http://www.inkscape.org/namespaces/inkscape"
   width="350"
   height="350"
   viewBox="0 0 92.604165 92.604169"
   version="1.1"
   id="svg8"
   inkscape:version="1.0.1 (3bc2e813f5, 2020-09-07)"
   sodipodi:docname="U-31C8-CJK-stroke-HZWG.svg">
  <defs
     id="defs2" />
  <sodipodi:namedview
     id="base"
     pagecolor="#ffffff"
     bordercolor="#666666"
     borderopacity="1.0"
     inkscape:pageopacity="0.0"
     inkscape:pageshadow="2"
     inkscape:zoom="0.98994949"
     inkscape:cx="290.92363"
     inkscape:cy="195.56655"
     inkscape:document-units="mm"
     inkscape:current-layer="layer1"
     inkscape:document-rotation="0"
     showgrid="false"
     units="px"
     inkscape:window-width="1267"
     inkscape:window-height="728"
     inkscape:window-x="78"
     inkscape:window-y="0"
     inkscape:window-maximized="0" />
  <metadata
     id="metadata5">
    <rdf:RDF>
      <cc:Work
         rdf:about="">
        <dc:format>image/svg+xml</dc:format>
        <dc:type
           rdf:resource="http://purl.org/dc/dcmitype/StillImage" />
        <dc:title></dc:title>
      </cc:Work>
    </rdf:RDF>
  </metadata>
  <g
     inkscape:label="Layer 1"
     inkscape:groupmode="layer"
     id="layer1">
    <path
       style="fill:#000000;stroke:#000000;stroke-width:0.26699;stroke-linejoin:round"
       id="path926"
       d="m 22.183997,16.034355 c 0.512369,-0.23034 0.627826,-0.301147 1.261814,-0.455593 3.519441,-0.857376 7.121569,-1.04852 10.683905,-1.308899 4.515562,-0.275781 9.038575,-0.396484 13.558958,-0.357704 1.228549,0.01052 4.913196,0.04844 3.685067,0.0925 -9.807955,0.351765 -14.290568,-0.391907 -9.194221,0.365644 0.207941,-0.14837 1.505789,0.597804 1.577152,0.560027 0.05775,-0.03057 0.02689,-0.161791 0.03947,-0.242931 0.03655,-0.235687 0.03398,0.479225 0.05334,0.71851 0.248303,6.065101 0.452375,12.132749 0.512446,18.206497 -0.02303,1.47509 -0.09412,2.950242 -0.06908,4.425278 0.02738,1.612571 0.185402,3.217478 0.22619,4.829545 0.124479,4.919968 -0.124593,9.831074 -0.432661,14.729347 -0.08677,2.547835 -0.404146,5.186146 -0.47638,7.728682 -0.02399,0.844537 0.01718,1.690158 0.01908,2.535297 0.0019,0.77179 -0.03621,1.544473 -0.0081,2.315359 0.02672,0.73431 0.114805,1.46236 0.17221,2.193538 0.167175,1.60319 0.209824,3.265251 0.656903,4.793093 0.283926,0.97028 0.747064,1.810023 1.219165,2.625218 0.503004,0.817575 1.049197,1.532834 1.43715,2.459197 0.82994,1.685156 2.251308,1.945236 3.638136,2.201127 6.844574,0.524591 13.836114,0.211179 20.624054,0.217122 0.257702,-2.94e-4 0.516644,0.03279 0.773107,-9.25e-4 0.307253,-0.04033 0.60758,-0.146821 0.911372,-0.220233 0.40908,-0.06277 0.817382,-0.135349 1.227243,-0.188328 1.360249,-0.175831 2.722926,-0.261228 4.08272,-0.446663 1.262322,-0.255344 2.638769,-0.201836 3.84972,-0.822004 0.493001,-0.252484 0.586501,-0.416367 0.975536,-0.837298 0.371347,-0.249391 0.613316,-0.715056 0.927976,-1.053741 0.08791,-0.09462 0.207992,-0.133039 0.286606,-0.241239 0.170599,-0.234801 0.365117,-0.779785 0.475732,-1.06113 0.268443,-0.906367 0.574372,-1.864551 1.080675,-2.579962 0.281594,-0.435683 0.364378,-0.896257 0.434032,-1.446619 l 0.797816,-8.304495 -17.09289,8.013554 v 0 c 0.06526,-0.23252 -0.214757,0.441763 -0.215467,0.44206 -0.342976,0.864208 -0.701083,1.730123 -1.083084,2.559693 -0.683107,0.797704 0.342793,-0.370863 -0.435994,0.41215 -0.365692,0.367677 -0.698447,0.79821 -1.119792,1.066651 -1.225906,0.528393 -2.525142,0.685389 -3.796701,0.898175 -2.497205,0.302675 -4.997499,0.650753 -7.50891,0.551501 26.702796,0.02658 16.286855,0.115377 10.312107,-0.03734 C 65.235997,81.304195 64.15903,81.347797 63.190535,80.91117 62.792536,80.357469 62.639786,79.58262 62.222576,79.047879 62.11119,78.905116 61.962049,78.824717 61.842359,78.694455 61.69226,78.531106 61.55749,78.34419 61.415056,78.169058 60.880258,77.584017 60.287929,76.985775 59.845838,76.270744 59.097859,75.06097 58.812025,73.555429 58.497064,72.077665 c -0.250321,-1.673678 -0.417442,-2.477223 -0.476553,-4.21701 -0.0276,-0.812523 0.01257,-1.626628 0.01935,-2.439935 0.02173,-2.602947 0.0944,-5.205544 0.03785,-7.808641 -0.04876,-0.999738 -0.06781,-2.002846 -0.146286,-2.999214 -0.941295,-11.950358 0.283988,6.320471 -0.743281,-7.277746 -0.361584,-4.786415 -0.248027,-4.36205 -0.151777,-9.257972 0.0289,-1.469925 0.05666,-2.939895 0.08499,-4.409839 0.353932,-6.046254 0.787795,-12.199625 2.477741,-17.888816 0.09781,-0.350721 0.238897,-0.685108 0.293434,-1.052165 0.07873,-0.52987 -0.0099,-1.61579 -0.24529,-2.049173 -0.470992,-0.867219 -2.566606,-1.083576 -3.168369,-1.184512 -11.28649,-0.730134 -22.561535,0.172835 -33.843759,0.412387 -5.499038,0.203804 -11.065802,0.106826 -16.5029219,1.346983 l 16.0518249,2.782306 z"
       sodipodi:nodetypes="csccccssccsscscccsccccccscscsscccccsccscccccsscscscccssccscccccc" />
  </g>
</svg>
