<?xml version="1.0" encoding="UTF-8" standalone="no"?>
<svg
   xmlns:dc="http://purl.org/dc/elements/1.1/"
   xmlns:cc="http://creativecommons.org/ns#"
   xmlns:rdf="http://www.w3.org/1999/02/22-rdf-syntax-ns#"
   xmlns:svg="http://www.w3.org/2000/svg"
   xmlns="http://www.w3.org/2000/svg"
   xmlns:sodipodi="http://sodipodi.sourceforge.net/DTD/sodipodi-0.dtd"
   xmlns:inkscape="http://www.inkscape.org/namespaces/inkscape"
   width="350"
   height="350"
   viewBox="0 0 92.604165 92.604169"
   version="1.1"
   id="svg8"
   inkscape:version="1.0.1 (3bc2e813f5, 2020-09-07)"
   sodipodi:docname="U-31C3-CJK-stroke-BXG.svg">
  <defs
     id="defs2" />
  <sodipodi:namedview
     id="base"
     pagecolor="#ffffff"
     bordercolor="#666666"
     borderopacity="1.0"
     inkscape:pageopacity="0.0"
     inkscape:pageshadow="2"
     inkscape:zoom="0.98994949"
     inkscape:cx="309.50916"
     inkscape:cy="110.64312"
     inkscape:document-units="mm"
     inkscape:current-layer="layer1"
     inkscape:document-rotation="0"
     showgrid="false"
     units="px"
     inkscape:window-width="1267"
     inkscape:window-height="728"
     inkscape:window-x="78"
     inkscape:window-y="0"
     inkscape:window-maximized="0" />
  <metadata
     id="metadata5">
    <rdf:RDF>
      <cc:Work
         rdf:about="">
        <dc:format>image/svg+xml</dc:format>
        <dc:type
           rdf:resource="http://purl.org/dc/dcmitype/StillImage" />
        <dc:title></dc:title>
      </cc:Work>
    </rdf:RDF>
  </metadata>
  <g
     inkscape:label="Layer 1"
     inkscape:groupmode="layer"
     id="layer1">
    <path
       style="fill:#000000;stroke:#000000;stroke-width:0.264583;stroke-linejoin:round"
       id="path866"
       d="m 14.413648,14.38666 c -0.06885,0.09816 -0.124786,0.206784 -0.206548,0.294479 -0.442444,0.474543 -0.300074,0.141618 -0.785919,0.683396 -0.711195,0.793073 -1.226804,1.803694 -1.76114,2.712891 -0.793357,2.38343 -0.434922,1.136558 -1.065031,3.810324 -0.166841,0.707958 -0.508013,1.396759 -0.499722,2.124063 0.01237,1.085541 0.34121,2.145008 0.560507,3.20824 0.646592,3.134907 1.223291,5.045074 2.078731,8.192309 0.838419,2.788769 1.150948,5.692619 1.825332,8.516522 0.276227,1.156671 0.506142,2.338996 0.975618,3.431598 0.466224,1.085035 1.095789,2.1048 1.808054,3.046791 1.610069,2.129359 3.703009,3.727696 5.70668,5.447091 3.786538,3.0553 7.865246,5.714476 11.809525,8.55322 6.4243,4.623643 1.656408,1.320315 7.400782,5.59549 0.974095,0.724955 1.977144,1.410179 2.965714,2.115267 1.992072,1.285605 3.865812,2.889877 6.137114,3.69081 1.969331,0.694449 4.099319,0.913818 6.156444,1.178753 6.108303,0.546682 12.271081,0.383985 18.389081,-0.0037 1.201806,-0.03716 2.397009,-0.118623 3.595095,-0.214114 1.085921,-0.304345 2.436624,-0.482526 3.358769,-1.186765 0.154461,-0.117964 0.273018,-0.27669 0.409527,-0.415036 0.846831,-1.12273 0.602978,-2.158859 0.296754,-3.42701 -0.198871,-0.837149 -0.413763,-1.668351 -0.709112,-2.476696 0,0 -12.791649,0.641877 -12.791649,0.641877 v 0 c 0.492014,0.604263 0.778486,1.279446 0.881803,2.059292 0.08502,0.76323 0.225597,1.54931 -0.471127,2.064382 -1.035879,0.560903 -2.193145,0.804447 -3.365387,0.866635 -1.233006,0.07527 -2.471615,0.04058 -3.697528,0.215352 -4.159332,0.456023 -9.856951,0.04967 8.487034,0.231463 1.113364,0.01103 -4.824267,0.120248 -3.340258,0.0011 -2.159469,-0.137581 -4.29912,-0.288793 -6.402742,-0.842229 -2.812042,-0.739818 -5.446991,-2.01521 -8.04599,-3.287186 -3.261037,-1.800228 -4.474078,-2.385531 -7.663643,-4.519549 -1.419386,-0.949659 -2.818328,-1.932512 -4.172101,-2.97357 -1.3106,-1.007862 -2.543759,-2.112606 -3.815564,-3.169 -4.524949,-3.758535 -2.231919,-1.863412 -6.581611,-5.442772 -1.901883,-1.782445 -3.548284,-3.183663 -5.16261,-5.233599 -2.339044,-2.970212 -3.874362,-6.498301 -4.814154,-10.144035 -0.379135,-1.470779 -0.579213,-2.981986 -0.868819,-4.472979 -0.235462,-2.371453 -0.669213,-5.605944 -0.513889,-8.048895 0.06306,-0.99177 0.304825,-1.964775 0.503287,-2.938527 0.417411,-2.048027 1.064717,-3.823031 2.428931,-5.440591 0.314163,-0.343017 0.60991,-0.703857 0.942489,-1.02905 0.666632,-0.651828 0.912183,-0.784287 1.642624,-1.260815 0.139393,-0.09094 0.859365,-0.555411 1.029656,-0.640413 0.136105,-0.06794 0.284388,-0.108084 0.426583,-0.162126 0,0 -13.08159,-1.352687 -13.08159,-1.352688 z" />
  </g>
</svg>
