<?xml version="1.0" encoding="UTF-8" standalone="no"?>
<svg
   xmlns:dc="http://purl.org/dc/elements/1.1/"
   xmlns:cc="http://creativecommons.org/ns#"
   xmlns:rdf="http://www.w3.org/1999/02/22-rdf-syntax-ns#"
   xmlns:svg="http://www.w3.org/2000/svg"
   xmlns="http://www.w3.org/2000/svg"
   xmlns:sodipodi="http://sodipodi.sourceforge.net/DTD/sodipodi-0.dtd"
   xmlns:inkscape="http://www.inkscape.org/namespaces/inkscape"
   width="350"
   height="350"
   viewBox="0 0 92.604165 92.604169"
   version="1.1"
   id="svg8"
   inkscape:version="1.0.1 (3bc2e813f5, 2020-09-07)"
   sodipodi:docname="U-31C9-CJK-stroke-SZWG.svg">
  <defs
     id="defs2" />
  <sodipodi:namedview
     id="base"
     pagecolor="#ffffff"
     bordercolor="#666666"
     borderopacity="1.0"
     inkscape:pageopacity="0.0"
     inkscape:pageshadow="2"
     inkscape:zoom="0.7"
     inkscape:cx="276.55813"
     inkscape:cy="20.974799"
     inkscape:document-units="mm"
     inkscape:current-layer="layer1"
     inkscape:document-rotation="0"
     showgrid="false"
     units="px"
     inkscape:window-width="1267"
     inkscape:window-height="728"
     inkscape:window-x="78"
     inkscape:window-y="0"
     inkscape:window-maximized="0" />
  <metadata
     id="metadata5">
    <rdf:RDF>
      <cc:Work
         rdf:about="">
        <dc:format>image/svg+xml</dc:format>
        <dc:type
           rdf:resource="http://purl.org/dc/dcmitype/StillImage" />
        <dc:title></dc:title>
      </cc:Work>
    </rdf:RDF>
  </metadata>
  <g
     inkscape:label="Layer 1"
     inkscape:groupmode="layer"
     id="layer1">
    <path
       style="fill:#000000;stroke:#000000;stroke-width:0.206789;stroke-linejoin:round"
       id="path916"
       d="m 26.046671,39.557133 c 0.25742,-0.02475 0.51963,-0.01948 0.775592,-0.05264 2.7845,-0.360705 0.02041,-0.167495 4.285555,-0.562864 5.042423,-0.46742 6.019361,-0.414352 11.534522,-0.615531 8.143062,0.01724 16.37774,0.217202 24.365022,1.561565 0.783567,0.131885 1.554967,0.303846 2.33245,0.455769 0.575383,0.133232 1.150369,0.26749 1.726146,0.399694 0.47735,0.109603 0.950285,0.231923 1.433223,0.325724 1.446209,0.280897 2.914557,0.450345 4.342792,0.789126 -0.04691,-0.35203 0.440084,0.280294 0.520034,0.151057 0.04322,-0.06987 -0.02014,-0.154598 -0.04322,-0.229975 -0.01324,-0.04318 -0.02535,-0.155386 -0.06496,-0.123292 -0.0797,0.06458 -0.09808,0.167294 -0.09957,0.256589 -0.0055,0.328404 0.0526,0.655601 0.07889,0.983401 -0.0074,0.482572 -0.0076,0.965243 -0.02212,1.447717 -0.05012,1.657441 -0.139809,2.477325 -0.126046,4.192722 0.0025,0.305523 0.189987,5.810484 0.188481,5.928622 -0.01244,0.974928 -0.118215,1.947803 -0.177323,2.921706 -0.176588,2.650505 -0.880058,5.245746 -1.507905,7.845876 -0.558231,2.311828 -0.171328,0.811262 -0.786696,3.107203 -0.444306,2.101193 -0.538007,4.230157 -0.811096,6.344934 -0.02644,0.204739 -0.264147,1.746619 -0.309393,2.041426 -0.08991,0.891172 -0.533183,1.726882 -0.72065,2.603241 -0.09737,0.455151 -0.204595,1.38371 -0.260081,1.819693 -0.138063,0.841051 -0.310472,1.696393 -0.749235,2.48112 -0.252471,0.451539 -0.652908,0.838046 -1.032976,1.226485 -0.613447,0.588235 -0.977157,0.737922 -1.920912,0.76256 -3.973607,-0.130985 -8.717043,-0.08197 10.313112,-0.03129 0.09467,1.83e-4 -0.186381,0.03644 -0.280897,0.03236 -0.112403,-0.0049 -0.2194,-0.03915 -0.329101,-0.05872 -0.97305,-0.328053 -1.885695,-0.770926 -2.781801,-1.211373 -0.620728,-0.321549 -1.304746,-0.612575 -1.816554,-1.041233 -0.322378,-0.289122 -0.572545,-0.574576 -1.024736,-0.751021 -0.422243,-0.100784 -0.859282,-0.167241 -1.267087,-0.0084 -0.0445,-0.0101 -0.09368,-0.01189 -0.133503,-0.03028 C 71.561912,82.466134 71.38447,82.2955 71.310687,82.236559 71.083032,82.054702 70.846273,81.877972 70.607142,81.705214 70.42113,81.595285 70.209286,81.519961 70.03958,81.394784 L 58.423307,81.83905 v 0 c 0.149179,0.298748 0.322551,0.56825 0.694139,0.737537 0.495817,0.160644 0.850049,0.432298 1.074947,0.811579 0.411713,0.50039 0.680089,0.447254 1.379497,0.401979 0.48344,-0.07879 0.693005,-0.112008 1.000627,0.246097 0.319324,0.207772 0.153782,0.09049 0.490159,0.357233 0.504615,0.336207 1.151908,0.534825 1.692038,0.832045 0.867216,0.41695 1.759006,0.826131 2.54061,1.334117 0.09925,0.05746 0.199447,0.113951 0.297757,0.17237 0.09997,0.0594 0.171037,0.178827 0.297047,0.181074 3.361568,0.05988 8.590145,0.860565 12.531834,-0.137539 0.807979,-0.329002 1.258662,-0.82314 1.685782,-1.438187 0.228718,-0.349106 0.380782,-0.538809 0.513584,-0.927761 0.34659,-1.015097 0.225217,-2.099999 0.527577,-3.122166 0.100696,-0.310469 0.187587,-0.623815 0.302087,-0.931405 0.06529,-0.175398 0.560562,-1.281713 0.632897,-1.504392 0.22754,-0.700447 0.238783,-1.42378 0.130539,-2.137485 -0.215147,-1.120673 -0.467839,-2.251773 -0.522316,-3.385966 -0.07846,-1.633441 0.16145,-3.257934 0.660019,-4.845157 0.123949,-0.51689 0.244204,-1.034319 0.371851,-1.55067 0.286386,-1.158486 0.588664,-2.007335 0.606122,-3.195079 0.0084,-0.572813 -0.08964,-1.143699 -0.151462,-1.714548 -0.661098,-6.104037 0.161265,2.439903 -0.497257,-4.630703 -0.03564,-0.969785 -0.146794,-1.939668 -0.106898,-2.909352 0.09052,-2.200298 0.452863,-3.736595 1.00141,-5.869316 0.346532,-1.347304 0.756692,-2.802862 1.373063,-4.102605 0.224775,-0.473981 0.535185,-0.920942 0.802778,-1.381413 0.250042,-0.259152 0.501538,-0.51747 0.750132,-0.777457 0.111792,-0.116916 0.258337,-0.219095 0.331003,-0.353228 0.150882,-0.278511 0.188587,-0.748304 -0.03851,-1.01472 -0.131304,-0.154058 -1.00829,-0.248936 -1.103244,-0.263943 -3.282088,-0.448027 -5.87137,-1.448808 -9.14509,-1.935922 C 77.425388,38.65985 75.77387,38.285933 74.64983,38.181716 71.341764,37.875005 68.368202,37.360529 65.043898,37.20517 56.687183,36.814625 48.374983,35.925505 40.003913,35.960785 c -2.814183,0.01364 -6.222197,0.425448 -9.036185,0.45438 -5.504012,0.05659 -11.016147,1.874588 -16.519961,1.72032 l 11.598899,1.421654 z"
       sodipodi:nodetypes="ccscscsscsssccccscscscscscccccccccsscccscccccccscccscsscscscscssscsscccsscsccc" />
    <path
       style="fill:#000000;stroke:#000000;stroke-width:0.264583;stroke-linejoin:round"
       id="path942"
       d="m 26.046671,39.557133 c -1.366834,-3.810992 -1.361223,-7.540236 -0.851909,-11.536301 0.156152,-1.225167 0.416668,-2.434761 0.625002,-3.652141 0.868634,-4.19373 2.410642,-8.19464 3.728471,-12.256964 0.224672,-0.663323 0.37826,-1.344153 0.508771,-2.030671 0,0 -18.303149,-0.1325293 -18.303149,-0.1325293 v 0 c 0.03654,0.6300983 0.07352,1.2602573 0.09041,1.8912853 0.07709,4.108881 -0.201388,8.222563 -0.698994,12.299967 -0.441039,3.073801 -0.57044,4.402544 -1.2598807,7.455203 -0.4722231,2.090878 -1.0267609,3.987199 -1.7252664,5.997173 -0.170883,0.49172 -0.3921924,0.964776 -0.5676731,1.454877 -0.059316,0.165664 -0.090593,0.340067 -0.1358895,0.510101 0,0 18.5901037,0 18.5901037,0 z" />
  </g>
</svg>
