<?xml version="1.0" encoding="UTF-8" standalone="no"?>
<svg
   xmlns:dc="http://purl.org/dc/elements/1.1/"
   xmlns:cc="http://creativecommons.org/ns#"
   xmlns:rdf="http://www.w3.org/1999/02/22-rdf-syntax-ns#"
   xmlns:svg="http://www.w3.org/2000/svg"
   xmlns="http://www.w3.org/2000/svg"
   xmlns:sodipodi="http://sodipodi.sourceforge.net/DTD/sodipodi-0.dtd"
   xmlns:inkscape="http://www.inkscape.org/namespaces/inkscape"
   width="350"
   height="350"
   viewBox="0 0 92.604165 92.604169"
   version="1.1"
   id="svg8"
   inkscape:version="1.0.1 (3bc2e813f5, 2020-09-07)"
   sodipodi:docname="U-31C6-CJK-stroke-HZG.svg">
  <defs
     id="defs2" />
  <sodipodi:namedview
     id="base"
     pagecolor="#ffffff"
     bordercolor="#666666"
     borderopacity="1.0"
     inkscape:pageopacity="0.0"
     inkscape:pageshadow="2"
     inkscape:zoom="0.7"
     inkscape:cx="276.55813"
     inkscape:cy="20.974799"
     inkscape:document-units="mm"
     inkscape:current-layer="layer1"
     inkscape:document-rotation="0"
     showgrid="false"
     units="px"
     inkscape:window-width="1267"
     inkscape:window-height="728"
     inkscape:window-x="78"
     inkscape:window-y="0"
     inkscape:window-maximized="0" />
  <metadata
     id="metadata5">
    <rdf:RDF>
      <cc:Work
         rdf:about="">
        <dc:format>image/svg+xml</dc:format>
        <dc:type
           rdf:resource="http://purl.org/dc/dcmitype/StillImage" />
        <dc:title></dc:title>
      </cc:Work>
    </rdf:RDF>
  </metadata>
  <g
     inkscape:label="Layer 1"
     inkscape:groupmode="layer"
     id="layer1">
    <path
       style="fill:#000000;stroke:#000000;stroke-width:0.264583;stroke-linejoin:round"
       id="path916"
       d="m 18.148078,17.871852 c 0.289741,-0.03599 0.584873,-0.02833 0.872972,-0.07656 3.134113,-0.524631 0.02297,-0.243614 4.823635,-0.818664 5.675531,-0.679845 6.775131,-0.602659 12.982756,-0.895266 9.165476,0.02508 18.434071,0.315912 27.424208,2.271237 0.881949,0.191821 1.750203,0.441933 2.625304,0.662899 0.647626,0.19378 1.294805,0.389054 1.942875,0.581339 0.537284,0.159414 1.069599,0.337324 1.613173,0.473754 1.62779,0.408553 3.280499,0.655009 4.888058,1.147754 -0.0528,-0.512015 0.495339,0.407676 0.585327,0.219706 0.04865,-0.101624 -0.02267,-0.224857 -0.04865,-0.33449 -0.0149,-0.06281 -0.02853,-0.226003 -0.07312,-0.179324 -0.08971,0.09393 -0.110398,0.243323 -0.112072,0.3732 -0.0062,0.477651 0.0592,0.953546 0.0888,1.430319 -0.0083,0.701883 -0.0085,1.40391 -0.0249,2.10565 -0.05641,2.410684 -0.157363,3.603174 -0.141872,6.098155 0.0028,0.444371 0.213842,8.451128 0.212146,8.622956 -0.014,1.417995 -0.133057,2.833005 -0.199586,4.24951 -0.19876,3.855059 -0.990555,7.629739 -1.697233,11.411529 -0.62832,3.362466 -0.192839,1.17995 -0.885471,4.519309 -0.500091,3.056106 -0.605557,6.152602 -0.912934,9.228465 -0.02976,0.297786 -0.297312,2.540392 -0.348239,2.969178 -0.101193,1.296175 -0.600128,2.511684 -0.811133,3.786315 -0.109591,0.662 -0.230283,2.012553 -0.292735,2.646674 -0.155398,1.223277 -0.349454,2.46734 -0.843307,3.608695 -0.28417,0.656746 -0.734885,1.218906 -1.162672,1.783876 -0.69047,0.855565 -1.099846,1.07328 -2.162095,1.109115 -4.472519,-0.190514 -9.811525,-0.119227 11.60799,-0.04551 0.10655,2.65e-4 -0.209783,0.053 -0.316166,0.04706 -0.126516,-0.0071 -0.246947,-0.05694 -0.370422,-0.08541 -1.095222,-0.477141 -2.122456,-1.121283 -3.131074,-1.761897 -0.698664,-0.46768 -1.468565,-0.890966 -2.044634,-1.514433 -0.362855,-0.420518 -0.644432,-0.835699 -1.153398,-1.092332 -0.475258,-0.146587 -0.967171,-0.243245 -1.426178,-0.01225 -0.05009,-0.01469 -0.105445,-0.0173 -0.150265,-0.04404 -0.129119,-0.07705 -0.32884,-0.325224 -0.411888,-0.410951 -0.256238,-0.264504 -0.522724,-0.521552 -0.791879,-0.772822 -0.209367,-0.159887 -0.44781,-0.269443 -0.638823,-0.451508 L 54.58981,79.369297 v 0 c 0.167909,0.434518 0.36305,0.826498 0.781293,1.072719 0.55807,0.233651 0.956778,0.628761 1.209913,1.180412 0.463407,0.727797 0.765479,0.650513 1.552702,0.584663 0.544139,-0.114599 0.780016,-0.162912 1.126262,0.357939 0.359418,0.302196 0.173091,0.13162 0.551702,0.519581 0.567973,0.489 1.296537,0.777883 1.904484,1.210178 0.976101,0.606438 1.979861,1.201576 2.8596,1.940422 0.111716,0.08357 0.224489,0.165738 0.335143,0.250706 0.112525,0.0864 0.192511,0.260098 0.334343,0.263366 3.783635,0.0871 9.668693,1.251659 14.105287,-0.200046 0.909426,-0.47852 1.416695,-1.197226 1.897443,-2.091788 0.257435,-0.507762 0.428591,-0.783677 0.578067,-1.349393 0.390107,-1.47642 0.253495,-3.054369 0.593818,-4.541073 0.113339,-0.451565 0.21114,-0.907315 0.340016,-1.354693 0.07349,-0.255109 0.630944,-1.864202 0.712361,-2.188081 0.256109,-1.018773 0.268764,-2.070833 0.146929,-3.108891 -0.24216,-1.629976 -0.526579,-3.275118 -0.587896,-4.924758 -0.08831,-2.375779 0.181721,-4.738542 0.742889,-7.047098 0.139512,-0.751797 0.274865,-1.504378 0.418539,-2.25539 0.322344,-1.684975 0.662575,-2.919593 0.682225,-4.647121 0.0095,-0.833135 -0.100891,-1.663467 -0.170479,-2.493745 -0.744103,-8.878091 0.181512,3.548745 -0.559691,-6.735183 -0.04011,-1.410515 -0.165225,-2.821173 -0.12032,-4.231542 0.101891,-3.200249 0.509723,-5.434735 1.127144,-8.536697 0.390041,-1.959602 0.851699,-4.076657 1.54546,-5.967083 0.252997,-0.689388 0.60238,-1.339475 0.903571,-2.009213 0.281437,-0.376927 0.56451,-0.752641 0.844317,-1.130782 0.125828,-0.17005 0.290772,-0.318666 0.372562,-0.513757 0.169826,-0.405084 0.212265,-1.088379 -0.04335,-1.475871 -0.14779,-0.224072 -1.134887,-0.362069 -1.241763,-0.383895 C 83.83821,18.911544 80.923827,17.455946 77.23907,16.747457 75.977725,16.566788 74.118849,16.02294 72.853678,15.871361 69.130263,15.425261 65.783351,14.676976 62.041659,14.451012 52.635705,13.882979 43.279854,12.589787 33.857742,12.641101 c -3.167522,0.01984 -7.003434,0.618798 -10.170737,0.660878 -6.195076,0.08231 -12.399295,2.726518 -18.5941487,2.50214 l 13.0552157,2.067743 z"
       sodipodi:nodetypes="ccscscsscsssccccscscscscscccccccccsscccscccccccscccscsscscscscssscsscccsscsccc" />
  </g>
</svg>
