<?xml version="1.0" encoding="UTF-8" standalone="no"?>
<svg
   xmlns:dc="http://purl.org/dc/elements/1.1/"
   xmlns:cc="http://creativecommons.org/ns#"
   xmlns:rdf="http://www.w3.org/1999/02/22-rdf-syntax-ns#"
   xmlns:svg="http://www.w3.org/2000/svg"
   xmlns="http://www.w3.org/2000/svg"
   xmlns:sodipodi="http://sodipodi.sourceforge.net/DTD/sodipodi-0.dtd"
   xmlns:inkscape="http://www.inkscape.org/namespaces/inkscape"
   width="350"
   height="350"
   viewBox="0 0 92.604165 92.604169"
   version="1.1"
   id="svg8"
   inkscape:version="1.0.1 (3bc2e813f5, 2020-09-07)"
   sodipodi:docname="U-31C2-CJK-stroke-XG.svg">
  <defs
     id="defs2" />
  <sodipodi:namedview
     id="base"
     pagecolor="#ffffff"
     bordercolor="#666666"
     borderopacity="1.0"
     inkscape:pageopacity="0.0"
     inkscape:pageshadow="2"
     inkscape:zoom="0.98994949"
     inkscape:cx="309.50916"
     inkscape:cy="110.64312"
     inkscape:document-units="mm"
     inkscape:current-layer="layer1"
     inkscape:document-rotation="0"
     showgrid="false"
     units="px"
     inkscape:window-width="1267"
     inkscape:window-height="728"
     inkscape:window-x="78"
     inkscape:window-y="0"
     inkscape:window-maximized="0" />
  <metadata
     id="metadata5">
    <rdf:RDF>
      <cc:Work
         rdf:about="">
        <dc:format>image/svg+xml</dc:format>
        <dc:type
           rdf:resource="http://purl.org/dc/dcmitype/StillImage" />
        <dc:title></dc:title>
      </cc:Work>
    </rdf:RDF>
  </metadata>
  <g
     inkscape:label="Layer 1"
     inkscape:groupmode="layer"
     id="layer1">
    <path
       style="fill:#000000;stroke:#000000;stroke-width:0.264583;stroke-linejoin:round"
       id="path860"
       d="m 34.479394,10.535773 c -0.771867,0.665559 -1.763832,1.038006 -2.687064,1.439935 -2.051341,0.796686 -4.18974,1.581931 -5.331092,3.633209 -0.277511,0.498751 -0.426439,1.058871 -0.639658,1.588306 -0.123272,0.702431 -0.351044,1.394375 -0.369814,2.107294 -0.05514,2.094228 0.621592,5.974905 0.97952,7.783532 1.017359,5.140767 2.139285,8.778698 2.965306,14.050034 0.383574,2.447824 0.540803,4.92579 0.811204,7.388685 0.466701,4.835401 0.424384,7.43045 1.931474,11.997425 0.97545,2.955928 2.804044,6.353824 4.664091,8.865992 1.840037,2.485147 3.667943,4.072938 5.865315,6.17815 2.768211,2.537079 5.702335,4.996776 9.151776,6.551769 4.592894,1.461953 2.166737,0.757674 13.56799,-0.610992 0.309446,-0.03715 0.324326,-0.540898 0.408826,-0.840893 0.125801,-0.446641 0.122452,-0.920679 0.215392,-1.375296 0.310041,-1.516587 0.447836,-1.759223 0.956172,-3.24271 0.806495,-1.945362 0.383405,-1.02998 1.251691,-2.754196 0,0 -11.850666,-0.416753 -11.850666,-0.416753 v 0 c -0.408893,1.765498 -0.162153,0.841473 -0.762238,2.766108 -0.444148,1.106093 -0.807493,2.150043 -1.436219,3.171454 -0.236215,0.383749 -0.525024,0.734605 -0.8244,1.071406 -0.146373,0.164672 -0.726146,0.41709 -0.505976,0.425281 10.342335,0.384747 16.002013,-0.817978 11.187891,0.159274 -0.369348,-0.03715 -0.742826,-0.04501 -1.108041,-0.111461 -1.147776,-0.208857 -2.333916,-0.602967 -3.407444,-1.0331 -2.911285,-1.166479 -5.626243,-2.745888 -8.21635,-4.505423 -3.041428,-2.349471 -4.10002,-2.94169 -6.697424,-5.907794 -3.576238,-4.083883 -6.165729,-8.889386 -7.834228,-14.046292 -0.679043,-2.098741 -1.10943,-4.269944 -1.664142,-6.404917 -0.366265,-2.457849 -0.90955,-4.895779 -1.098799,-7.373554 -0.393721,-5.1548 -0.05289,-8.973809 0.656948,-13.995606 0.456604,-3.230248 1.119719,-6.420587 2.64338,-9.330133 0.752555,-1.070178 0.882158,-1.42552 1.864321,-2.225174 1.344165,-1.094391 3.068224,-1.526259 4.660942,-2.112307 1.338119,-0.471569 2.730412,-0.904665 3.819721,-1.854877 0,0 -13.168405,-1.036376 -13.168405,-1.036376 z" />
  </g>
</svg>
