<?xml version="1.0" encoding="UTF-8" standalone="no"?>
<svg
   xmlns:dc="http://purl.org/dc/elements/1.1/"
   xmlns:cc="http://creativecommons.org/ns#"
   xmlns:rdf="http://www.w3.org/1999/02/22-rdf-syntax-ns#"
   xmlns:svg="http://www.w3.org/2000/svg"
   xmlns="http://www.w3.org/2000/svg"
   xmlns:sodipodi="http://sodipodi.sourceforge.net/DTD/sodipodi-0.dtd"
   xmlns:inkscape="http://www.inkscape.org/namespaces/inkscape"
   width="350"
   height="350"
   viewBox="0 0 92.604165 92.604169"
   version="1.1"
   id="svg8"
   inkscape:version="1.0.1 (3bc2e813f5, 2020-09-07)"
   sodipodi:docname="U-31C0-CJK-stroke-T.svg">
  <defs
     id="defs2" />
  <sodipodi:namedview
     id="base"
     pagecolor="#ffffff"
     bordercolor="#666666"
     borderopacity="1.0"
     inkscape:pageopacity="0.0"
     inkscape:pageshadow="2"
     inkscape:zoom="0.98994949"
     inkscape:cx="309.50916"
     inkscape:cy="110.64312"
     inkscape:document-units="mm"
     inkscape:current-layer="layer1"
     inkscape:document-rotation="0"
     showgrid="false"
     units="px"
     inkscape:window-width="1267"
     inkscape:window-height="728"
     inkscape:window-x="78"
     inkscape:window-y="0"
     inkscape:window-maximized="0" />
  <metadata
     id="metadata5">
    <rdf:RDF>
      <cc:Work
         rdf:about="">
        <dc:format>image/svg+xml</dc:format>
        <dc:type
           rdf:resource="http://purl.org/dc/dcmitype/StillImage" />
        <dc:title></dc:title>
      </cc:Work>
    </rdf:RDF>
  </metadata>
  <g
     inkscape:label="Layer 1"
     inkscape:groupmode="layer"
     id="layer1">
    <path
       style="display:inline;fill:#000000;stroke:#000000;stroke-width:0.345111;stroke-linejoin:round"
       id="path1474"
       d="m 82.070454,40.866921 c -0.389007,0.01992 -0.774821,-0.03171 -1.162698,-0.02877 -0.465742,0.0035 -0.929528,0.04773 -1.395284,0.04468 -0.496507,-0.0033 -0.990223,-0.0443 -1.485676,-0.06358 -1.977131,-0.07694 -1.34198,-0.05543 -3.426187,-0.06732 -2.019549,0.06416 -4.047508,0.03819 -6.052838,-0.124264 -1.095597,-0.08875 -2.164434,-0.274968 -3.260995,-0.359513 -0.586704,-0.04524 -1.180465,-0.04945 -1.770692,-0.07418 -4.806304,0.05168 -9.594514,0.396944 -14.40043,0.453363 -0.930043,0.01093 -1.860362,-0.01069 -2.790544,-0.01606 -7.693512,-0.03237 2.595026,-0.009 -4.934186,0.03747 -2.470276,0.01527 -2.167474,-0.129045 -4.728134,0.193202 -1.09138,0.137345 -2.155994,0.339949 -3.233992,0.509923 -1.171083,0.130503 -2.342167,0.261006 -3.513252,0.391509 -2.870345,0.254717 -5.771882,0.32665 -8.664436,0.185378 -3.151209,-0.153908 -0.719339,-0.09416 -3.525588,-0.288274 -0.523625,-0.03622 -1.051628,-0.04556 -1.577439,-0.06834 -1.391006,-0.03743 -2.76689,-0.162864 -4.141491,-0.284652 0,0 -0.129558,12.557016 -0.129558,12.557016 v 0 c 1.383375,-0.02408 2.768605,-0.04662 4.150515,0.01926 0.540527,0.01339 1.080694,0.04673 1.621585,0.04016 4.242351,-0.05153 8.320288,-0.927965 12.522504,-1.170437 1.171308,-0.05923 2.339489,-0.146518 3.513931,-0.177691 1.052873,-0.02795 2.108043,0.01093 3.161845,5.29e-4 2.897153,-0.02866 1.840979,-0.05262 4.638423,-0.179486 4.453705,-0.201972 0.444316,0.05448 4.952862,-0.267041 5.588948,-0.415189 11.303929,-0.563327 16.81857,0.244822 0.5786,0.06152 1.153091,0.138345 1.735802,0.184555 3.132504,0.248414 6.33589,0.04009 9.45693,0.362659 1.530808,0.124661 3.218042,0.17989 4.702233,0.452281 0.866318,0.158993 1.637016,0.469728 2.475685,0.668218 0,0 0.442543,-13.175397 0.442543,-13.175397 z" />
  </g>
</svg>
