<?xml version="1.0" encoding="UTF-8" standalone="no"?>
<svg
   xmlns:dc="http://purl.org/dc/elements/1.1/"
   xmlns:cc="http://creativecommons.org/ns#"
   xmlns:rdf="http://www.w3.org/1999/02/22-rdf-syntax-ns#"
   xmlns:svg="http://www.w3.org/2000/svg"
   xmlns="http://www.w3.org/2000/svg"
   xmlns:sodipodi="http://sodipodi.sourceforge.net/DTD/sodipodi-0.dtd"
   xmlns:inkscape="http://www.inkscape.org/namespaces/inkscape"
   width="350"
   height="350"
   viewBox="0 0 92.604165 92.604169"
   version="1.1"
   id="svg8"
   inkscape:version="1.0.1 (3bc2e813f5, 2020-09-07)"
   sodipodi:docname="U-31C1-CJK-stroke-WG.svg">
  <defs
     id="defs2" />
  <sodipodi:namedview
     id="base"
     pagecolor="#ffffff"
     bordercolor="#666666"
     borderopacity="1.0"
     inkscape:pageopacity="0.0"
     inkscape:pageshadow="2"
     inkscape:zoom="0.98994949"
     inkscape:cx="309.50916"
     inkscape:cy="110.64312"
     inkscape:document-units="mm"
     inkscape:current-layer="layer1"
     inkscape:document-rotation="0"
     showgrid="false"
     units="px"
     inkscape:window-width="1267"
     inkscape:window-height="728"
     inkscape:window-x="78"
     inkscape:window-y="0"
     inkscape:window-maximized="0" />
  <metadata
     id="metadata5">
    <rdf:RDF>
      <cc:Work
         rdf:about="">
        <dc:format>image/svg+xml</dc:format>
        <dc:type
           rdf:resource="http://purl.org/dc/dcmitype/StillImage" />
        <dc:title></dc:title>
      </cc:Work>
    </rdf:RDF>
  </metadata>
  <g
     inkscape:label="Layer 1"
     inkscape:groupmode="layer"
     id="layer1">
    <path
       style="fill:#000000;stroke:#000000;stroke-width:0.264583;stroke-linejoin:round"
       id="path838"
       d="m 32.600476,11.59612 c 0.134726,0.0016 0.27318,-0.02671 0.404178,0.0048 0.88148,0.212037 1.851504,0.771987 2.559338,1.232131 0.92383,0.600557 1.853843,1.202485 2.694845,1.914413 4.421476,3.74287 4.146502,3.9639 7.827557,8.802601 1.13083,1.969996 2.378239,3.87751 3.392485,5.909986 2.907842,5.82712 4.923917,12.107669 5.856319,18.552139 0.583732,4.034573 0.416113,4.92316 0.327226,8.794482 -0.236159,1.220973 -0.359042,2.469417 -0.708474,3.662918 -0.650619,2.222209 -1.753124,4.27168 -3.03748,6.181585 -0.554189,0.824106 -1.204881,1.579081 -1.814976,2.362703 -3.17527,4.07842 -0.205401,0.173892 -3.109897,4.021272 -0.4392,0.542581 -0.878054,1.085437 -1.317598,1.627738 -0.991137,1.222851 -1.288682,1.647584 -2.365174,2.748201 -0.857311,0.876522 -1.779127,1.710449 -2.679247,2.54363 -0.602488,0.475006 -1.104652,1.050266 -1.620875,1.61187 -0.149453,0.162592 -0.338116,0.293889 -0.455988,0.480645 -0.26974,0.427387 -0.4537,1.184008 -0.590659,1.649328 -0.166703,0.42436 -0.3874,1.060799 -0.647504,1.454105 -0.100481,0.15194 -0.245356,0.269309 -0.368035,0.403963 4.018735,-0.221964 8.045235,-0.331811 12.05621,-0.66589 0.396042,-0.03299 -0.798616,-0.09348 -1.167622,-0.241035 -0.458404,-0.183304 -0.855657,-0.492731 -1.283486,-0.739098 -1.568246,-1.109916 -2.895803,-2.505049 -4.344963,-3.75761 -0.299477,-0.194267 -0.52401,-0.49657 -0.82341,-0.690073 -0.07507,-0.04852 -0.164822,-0.06988 -0.24347,-0.112342 -0.243948,-0.131712 -0.358386,-0.22361 -0.585255,-0.384622 0,0 -12.912066,1.320292 -12.912066,1.320292 v 0 c 0.33661,0.174596 0.244083,0.105529 0.543811,0.347194 0.0899,0.07248 0.16402,0.167018 0.264832,0.223345 0.09319,0.05207 0.206962,0.05488 0.30571,0.09544 0.29628,0.121692 0.547931,0.289631 0.822547,0.454348 1.89661,0.960601 3.639947,2.204415 5.233607,3.608501 0.315314,0.298521 0.649123,0.578644 0.945946,0.895559 0.247796,0.26457 0.321964,0.837507 0.684377,0.845124 14.545709,0.305634 11.76302,3.241381 13.895437,-2.574589 0.130845,-0.235058 0.243769,-0.481031 0.392536,-0.705178 0.620461,-0.934826 1.547942,-1.648439 2.128644,-2.616996 0.398807,-0.538803 0.811467,-1.067568 1.197774,-1.615398 0.550093,-0.780095 1.062943,-1.585852 1.604188,-2.372109 0.353197,-0.513085 0.733059,-1.008205 1.068705,-1.532937 0.347633,-0.543481 0.653047,-1.11284 0.979572,-1.669262 1.823937,-3.137775 3.847862,-6.152467 5.151527,-9.567097 0.436393,-1.143022 0.866682,-2.298899 1.115878,-3.496747 0.264874,-1.273214 0.279016,-2.58595 0.418523,-3.878926 C 64.110652,55.360657 63.917009,53.974317 63.539816,52.63293 63.250002,51.602288 60.030986,42.565199 59.863061,42.07233 59.129363,39.918918 58.493913,37.732039 57.724545,35.591113 55.730303,30.04171 54.933071,28.516162 52.557994,23.193778 51.739635,21.450934 50.899353,19.718216 50.102915,17.965245 49.500443,16.639196 49.008828,15.26252 48.361703,13.95768 47.640919,12.504321 46.622541,11.179033 45.697986,9.849383 c 0,0 -13.09751,1.746738 -13.09751,1.746737 z" />
  </g>
</svg>
