<?xml version="1.0" encoding="UTF-8" standalone="no"?>
<svg
   xmlns:dc="http://purl.org/dc/elements/1.1/"
   xmlns:cc="http://creativecommons.org/ns#"
   xmlns:rdf="http://www.w3.org/1999/02/22-rdf-syntax-ns#"
   xmlns:svg="http://www.w3.org/2000/svg"
   xmlns="http://www.w3.org/2000/svg"
   xmlns:sodipodi="http://sodipodi.sourceforge.net/DTD/sodipodi-0.dtd"
   xmlns:inkscape="http://www.inkscape.org/namespaces/inkscape"
   width="350"
   height="350"
   viewBox="0 0 92.604165 92.604169"
   version="1.1"
   id="svg8"
   inkscape:version="1.0.1 (3bc2e813f5, 2020-09-07)"
   sodipodi:docname="U-31C5-CJK-stroke-HZZ.svg">
  <defs
     id="defs2" />
  <sodipodi:namedview
     id="base"
     pagecolor="#ffffff"
     bordercolor="#666666"
     borderopacity="1.0"
     inkscape:pageopacity="0.0"
     inkscape:pageshadow="2"
     inkscape:zoom="0.98994949"
     inkscape:cx="309.50916"
     inkscape:cy="110.64312"
     inkscape:document-units="mm"
     inkscape:current-layer="layer1"
     inkscape:document-rotation="0"
     showgrid="false"
     units="px"
     inkscape:window-width="1267"
     inkscape:window-height="728"
     inkscape:window-x="78"
     inkscape:window-y="0"
     inkscape:window-maximized="0" />
  <metadata
     id="metadata5">
    <rdf:RDF>
      <cc:Work
         rdf:about="">
        <dc:format>image/svg+xml</dc:format>
        <dc:type
           rdf:resource="http://purl.org/dc/dcmitype/StillImage" />
        <dc:title></dc:title>
      </cc:Work>
    </rdf:RDF>
  </metadata>
  <g
     inkscape:label="Layer 1"
     inkscape:groupmode="layer"
     id="layer1">
    <path
       style="fill:#000000;stroke:#000000;stroke-width:0.264583;stroke-linejoin:round"
       id="path902"
       d="m 24.30928,14.929041 c 2.439171,-0.323818 4.88159,-0.684846 7.322813,-1.016835 5.057624,-0.633319 10.145734,-1.042199 15.243821,-1.046009 -17.865574,0.01949 -7.025407,-0.213889 -2.873807,0.538166 0.03945,0.0035 1.019326,0.271024 1.033455,0.32415 0.01228,0.04615 0.009,0.09508 0.01347,0.142614 0.0048,1.990507 0.05911,3.980659 0.146037,5.969152 0.06375,0.680342 0.154808,1.358676 0.191254,2.041026 0.03693,0.691252 0.01005,1.384528 0.02868,2.076514 0.01926,0.715203 0.05716,1.429783 0.08502,2.144703 0.02746,0.704908 0.04706,1.410152 0.08094,2.114782 0.03408,0.708861 0.104183,1.416058 0.122899,2.125491 0.0168,0.637402 -0.0109,1.275201 -0.01635,1.912805 -0.0199,1.367912 -0.109352,2.730804 -0.356814,4.077068 -0.056,0.304659 -0.122563,0.607321 -0.189895,0.909679 -0.06446,0.289494 -0.174074,0.570789 -0.205456,0.865709 -0.04752,0.446604 -0.02,0.898028 -0.02999,1.347039 -0.136128,2.233226 -0.02651,4.473019 -0.09318,6.707232 -0.0258,0.864018 -0.127502,1.724938 -0.14469,2.58917 -0.01736,0.87272 0.03358,1.745496 0.04113,2.618357 0.0067,0.778922 0.0011,1.557901 0.0019,2.33685 -0.0011,2.506419 -0.131222,5.010668 -0.08154,7.516915 0.102102,2.347696 0.344693,4.689436 0.250806,7.041534 -0.02109,0.528622 -0.222681,3.055829 -0.268608,3.645249 -0.204665,1.932276 -0.191947,3.894923 -0.492662,5.817251 -0.08257,0.527796 -0.264715,1.251148 -0.392231,1.784453 -0.381453,1.015061 -0.480238,2.094066 -0.696526,3.147669 -0.173975,0.735554 -0.293021,1.480444 -0.351796,2.233601 -0.07086,0.727205 -0.01648,1.311193 0.298773,1.97453 4.410228,0.07567 8.819817,0.218506 13.230688,0.227005 0.110186,2.12e-4 0.166367,-0.147024 0.262427,-0.201004 0.284649,-0.159954 1.00721,-0.405305 1.240335,-0.474094 1.179094,-0.347922 1.454541,-0.354859 2.759215,-0.588325 4.684699,-0.636532 9.423955,-0.705297 14.144559,-0.736404 1.436841,2.65e-4 2.873639,0.01506 4.310345,0.03369 0.323091,0.0042 1.292368,0.01328 0.969251,0.01421 -10.833941,0.0305 -15.476863,-0.04561 -11.005299,0.02458 0.903174,0.01601 1.806464,0.01937 2.709709,0.02911 0.117115,0.0013 0.234231,0.0026 0.351343,0.0038 0,0 12.783566,-2.022702 12.783566,-2.022702 v 0 c -0.129447,7.94e-4 -0.258897,0.0019 -0.388345,0.0027 -0.986356,0.0059 -1.972728,0.0028 -2.959076,0.01072 -5.945373,0.05243 -11.897045,-0.157666 -17.836255,0.179123 -4.733801,0.218223 -9.471107,0.4235 -14.189977,0.872233 -0.708629,0.09265 -1.419165,0.171736 -2.125885,0.277963 -0.943332,0.141793 -1.879314,0.347668 -2.820842,0.501605 -0.270216,0.04418 -0.540041,0.10146 -0.813599,0.11303 -0.127667,0.0054 -0.25213,-0.04175 -0.378193,-0.06262 4.281255,0.07901 8.562512,0.158025 12.843769,0.237037 -0.314867,0.815049 -0.420849,0.03744 -0.360029,-0.353898 0.01019,-0.693963 0.03828,-1.38828 0.130604,-2.076935 0.151757,-1.080751 0.371522,-2.160479 0.335743,-3.257558 -0.06022,-1.032544 -0.153453,-2.067001 -0.17136,-3.101408 -0.02646,-1.527609 0.03529,-3.057811 0.0026,-4.585616 -0.03177,-0.872791 -0.112193,-2.794521 -0.09775,-3.634721 0.0406,-2.362073 0.454049,-4.690377 0.876366,-7.008344 0.0892,-0.708909 0.228701,-1.390081 0.118637,-2.108727 -0.04928,-0.321733 -0.183632,-0.624541 -0.277943,-0.936064 -0.460052,-1.519581 -0.923091,-3.040046 -1.18101,-4.611362 -0.102549,-0.760346 -0.25287,-1.515763 -0.307652,-2.281034 -0.06064,-0.847029 -0.05291,-1.698241 -0.03799,-2.547307 0.05457,-3.105793 0.558599,-6.17364 1.60074,-9.105117 0.180898,-0.451305 0.402423,-0.888381 0.542692,-1.353915 0.565277,-1.876073 -0.186018,-4.26737 -0.364948,-6.152774 -0.0748,-0.636339 -0.173193,-1.270347 -0.224387,-1.909017 -0.05651,-0.704958 -0.0628,-1.413052 -0.09851,-2.119365 -0.1294,-2.558659 -0.13448,-1.630357 -0.125418,-4.209337 0.0024,-0.686809 -0.02035,-1.37502 0.02582,-2.06028 0.04515,-0.6701 0.165172,-1.333045 0.247759,-1.999568 0.197508,-1.365691 0.362632,-2.73202 0.743476,-4.062086 0.358106,-1.250661 0.159078,-0.390053 0.510487,-1.447133 0.0536,-0.161233 0.0889,-0.327983 0.133342,-0.491975 0.07846,-1.386594 -0.464716,-1.870326 -1.779124,-2.228488 -1.250889,-0.203474 -2.47882,-0.274823 -3.745167,-0.335796 -5.517401,-0.265654 -11.021409,-0.44525 -16.559095,-0.175615 -0.694614,0.01453 -1.389838,0.01107 -2.083843,0.0436 -4.16148,0.19506 -8.279567,0.982337 -12.439258,1.212145 -3.386724,0.266043 -6.788511,0.602722 -10.189084,0.45513 0,0 13.019283,2.062052 13.019283,2.062052 z" />
  </g>
</svg>
